<svg width="8" height="8" viewBox="0 0 8 8" fill="none" xmlns="http://www.w3.org/2000/svg">
<g clip-path="url(#clip0_1941_12647)">
<path d="M4.34333 0.623327L0.679999 0.0666602C0.51 0.0399935 0.336666 0.0866602 0.206666 0.19666C0.0766666 0.309994 0 0.473327 0 0.643327V7.66667C0 7.85 0.15 8 0.333333 8H1.41667V6.25C1.41667 5.92667 1.67667 5.66667 2 5.66667H2.83333C3.15666 5.66667 3.41666 5.92667 3.41666 6.25V8H4.83333V1.19999C4.83333 0.913328 4.62666 0.669994 4.34333 0.623327ZM1.83333 4.91666H1.33333C1.19533 4.91666 1.08333 4.80466 1.08333 4.66666C1.08333 4.52866 1.19533 4.41666 1.33333 4.41666H1.83333C1.97133 4.41666 2.08333 4.52866 2.08333 4.66666C2.08333 4.80466 1.97133 4.91666 1.83333 4.91666ZM1.83333 3.91666H1.33333C1.19533 3.91666 1.08333 3.80466 1.08333 3.66666C1.08333 3.52866 1.19533 3.41666 1.33333 3.41666H1.83333C1.97133 3.41666 2.08333 3.52866 2.08333 3.66666C2.08333 3.80466 1.97133 3.91666 1.83333 3.91666ZM1.83333 2.91666H1.33333C1.19533 2.91666 1.08333 2.80466 1.08333 2.66666C1.08333 2.52866 1.19533 2.41666 1.33333 2.41666H1.83333C1.97133 2.41666 2.08333 2.52866 2.08333 2.66666C2.08333 2.80466 1.97133 2.91666 1.83333 2.91666ZM1.83333 1.91666H1.33333C1.19533 1.91666 1.08333 1.80466 1.08333 1.66666C1.08333 1.52866 1.19533 1.41666 1.33333 1.41666H1.83333C1.97133 1.41666 2.08333 1.52866 2.08333 1.66666C2.08333 1.80466 1.97133 1.91666 1.83333 1.91666ZM3.5 4.91666H3C2.862 4.91666 2.75 4.80466 2.75 4.66666C2.75 4.52866 2.862 4.41666 3 4.41666H3.5C3.638 4.41666 3.75 4.52866 3.75 4.66666C3.75 4.80466 3.638 4.91666 3.5 4.91666ZM3.5 3.91666H3C2.862 3.91666 2.75 3.80466 2.75 3.66666C2.75 3.52866 2.862 3.41666 3 3.41666H3.5C3.638 3.41666 3.75 3.52866 3.75 3.66666C3.75 3.80466 3.638 3.91666 3.5 3.91666ZM3.5 2.91666H3C2.862 2.91666 2.75 2.80466 2.75 2.66666C2.75 2.52866 2.862 2.41666 3 2.41666H3.5C3.638 2.41666 3.75 2.52866 3.75 2.66666C3.75 2.80466 3.638 2.91666 3.5 2.91666ZM3.5 1.91666H3C2.862 1.91666 2.75 1.80466 2.75 1.66666C2.75 1.52866 2.862 1.41666 3 1.41666H3.5C3.638 1.41666 3.75 1.52866 3.75 1.66666C3.75 1.80466 3.638 1.91666 3.5 1.91666Z" fill="white"/>
<path d="M7.54033 3.61394L5.16699 3.11694V7.99995H7.41699C7.73866 7.99995 8.00033 7.73828 8.00033 7.41662V4.18395C8.00033 3.90861 7.81266 3.67428 7.54033 3.61394ZM6.75033 6.99995H6.25033C6.11233 6.99995 6.00033 6.88795 6.00033 6.74995C6.00033 6.61195 6.11233 6.49995 6.25033 6.49995H6.75033C6.88833 6.49995 7.00033 6.61195 7.00033 6.74995C7.00033 6.88795 6.88833 6.99995 6.75033 6.99995ZM6.75033 5.99995H6.25033C6.11233 5.99995 6.00033 5.88795 6.00033 5.74995C6.00033 5.61195 6.11233 5.49995 6.25033 5.49995H6.75033C6.88833 5.49995 7.00033 5.61195 7.00033 5.74995C7.00033 5.88795 6.88833 5.99995 6.75033 5.99995ZM6.75033 4.99995H6.25033C6.11233 4.99995 6.00033 4.88795 6.00033 4.74995C6.00033 4.61195 6.11233 4.49995 6.25033 4.49995H6.75033C6.88833 4.49995 7.00033 4.61195 7.00033 4.74995C7.00033 4.88795 6.88833 4.99995 6.75033 4.99995Z" fill="white"/>
</g>
<defs>
<clipPath id="clip0_1941_12647">
<rect width="8" height="8" fill="white"/>
</clipPath>
</defs>
</svg>
