<svg width="8" height="8" viewBox="0 0 8 8" fill="none" xmlns="http://www.w3.org/2000/svg">
<path d="M7.45452 3.27246H0.545455C0.244363 3.27246 0 3.51682 0 3.81792V4.18153C0 4.48262 0.244363 4.72698 0.545455 4.72698H7.45452C7.75561 4.72698 7.99998 4.48262 7.99998 4.18153V3.81792C7.99998 3.51682 7.75561 3.27246 7.45452 3.27246Z" fill="white"/>
<path d="M3.27271 0.545455V7.45452C3.27271 7.75561 3.51707 7.99998 3.81816 7.99998H4.18177C4.48287 7.99998 4.72723 7.75561 4.72723 7.45452V0.545455C4.72723 0.244363 4.48287 0 4.18177 0H3.81816C3.51707 0 3.27271 0.244363 3.27271 0.545455Z" fill="white"/>
</svg>
