<svg width="24" height="24" viewBox="0 0 24 24" fill="none" xmlns="http://www.w3.org/2000/svg">
<path d="M5.22168 0.75C5.22168 0.335786 5.55747 0 5.97168 0H18.0279C18.4422 0 18.7779 0.335786 18.7779 0.75V1.82812C18.7779 2.24234 18.4422 2.57812 18.0279 2.57812H5.97168C5.55747 2.57812 5.22168 2.24234 5.22168 1.82812V0.75Z" fill="#898B87"/>
<path d="M5.22168 4.73438C5.22168 4.32016 5.55747 3.98438 5.97168 3.98438H18.0279C18.4422 3.98438 18.7779 4.32016 18.7779 4.73438V5.8125C18.7779 6.22671 18.4422 6.5625 18.0279 6.5625H5.97168C5.55747 6.5625 5.22168 6.22671 5.22168 5.8125V4.73438Z" fill="#898B87"/>
<path d="M5.22168 8.71875C5.22168 8.30454 5.55747 7.96875 5.97168 7.96875H18.0279C18.4422 7.96875 18.7779 8.30454 18.7779 8.71875V9.79688C18.7779 10.2111 18.4422 10.5469 18.0279 10.5469H5.97168C5.55747 10.5469 5.22168 10.2111 5.22168 9.79688V8.71875Z" fill="#898B87"/>
<path d="M9.17188 19.0937C9.17188 18.6795 9.50766 18.3438 9.92188 18.3438H14.0781C14.4924 18.3438 14.8281 18.6795 14.8281 19.0938V23.25C14.8281 23.6642 14.4924 24 14.0781 24H9.92188C9.50766 24 9.17188 23.6642 9.17188 23.25V19.0937Z" fill="#898B87"/>
<path d="M17.6406 19.0937C17.6406 18.6795 17.9764 18.3438 18.3906 18.3438H22.5469C22.9611 18.3438 23.2969 18.6795 23.2969 19.0938V23.25C23.2969 23.6642 22.9611 24 22.5469 24H18.3906C17.9764 24 17.6406 23.6642 17.6406 23.25V19.0937Z" fill="#898B87"/>
<path d="M0.703125 19.0937C0.703125 18.6795 1.03891 18.3438 1.45312 18.3438H5.60939C6.0236 18.3438 6.35939 18.6795 6.35939 19.0938V23.25C6.35939 23.6642 6.0236 24 5.60939 24H1.45313C1.03891 24 0.703125 23.6642 0.703125 23.25V19.0937Z" fill="#898B87"/>
<path d="M11.2969 12.6562C11.2969 12.2679 11.6117 11.9531 12 11.9531C12.3883 11.9531 12.7031 12.2679 12.7031 12.6562V16.2188C12.7031 16.6071 12.3883 16.9219 12 16.9219C11.6117 16.9219 11.2969 16.6071 11.2969 16.2188V12.6562Z" fill="#898B87"/>
<path d="M4.23437 15.8906C4.23437 15.4764 4.57016 15.1406 4.98437 15.1406H9.14063C9.55485 15.1406 9.89063 14.8048 9.89063 14.3906V12.6562C9.89063 12.2679 9.57583 11.9531 9.18751 11.9531C8.79918 11.9531 8.48438 12.2679 8.48438 12.6562V12.9844C8.48438 13.3986 8.1486 13.7344 7.73438 13.7344H3.57812C3.16391 13.7344 2.82812 14.0702 2.82812 14.4844V16.2188C2.82812 16.6071 3.14292 16.9219 3.53125 16.9219C3.91957 16.9219 4.23437 16.6071 4.23437 16.2188V15.8906Z" fill="#898B87"/>
<path d="M14.1094 14.3906C14.1094 14.8048 14.4452 15.1406 14.8594 15.1406H19.0156C19.4299 15.1406 19.7656 15.4764 19.7656 15.8906V16.2188C19.7656 16.6071 20.0804 16.9219 20.4688 16.9219C20.8571 16.9219 21.1719 16.6071 21.1719 16.2188V14.4844C21.1719 14.0702 20.8361 13.7344 20.4219 13.7344H16.2656C15.8514 13.7344 15.5156 13.3986 15.5156 12.9844V12.6562C15.5156 12.2679 15.2008 11.9531 14.8125 11.9531C14.4242 11.9531 14.1094 12.2679 14.1094 12.6562V14.3906Z" fill="#898B87"/>
</svg>
