<svg width="3" height="5" viewBox="0 0 3 5" fill="none" xmlns="http://www.w3.org/2000/svg">
<path d="M2.54033 0.613944L0.166992 0.116943V4.99995H2.41699C2.73866 4.99995 3.00033 4.73828 3.00033 4.41662V1.18395C3.00033 0.908611 2.81266 0.674278 2.54033 0.613944ZM1.75033 3.99995H1.25033C1.11233 3.99995 1.00033 3.88795 1.00033 3.74995C1.00033 3.61195 1.11233 3.49995 1.25033 3.49995H1.75033C1.88833 3.49995 2.00033 3.61195 2.00033 3.74995C2.00033 3.88795 1.88833 3.99995 1.75033 3.99995ZM1.75033 2.99995H1.25033C1.11233 2.99995 1.00033 2.88795 1.00033 2.74995C1.00033 2.61195 1.11233 2.49995 1.25033 2.49995H1.75033C1.88833 2.49995 2.00033 2.61195 2.00033 2.74995C2.00033 2.88795 1.88833 2.99995 1.75033 2.99995ZM1.75033 1.99995H1.25033C1.11233 1.99995 1.00033 1.88795 1.00033 1.74995C1.00033 1.61195 1.11233 1.49995 1.25033 1.49995H1.75033C1.88833 1.49995 2.00033 1.61195 2.00033 1.74995C2.00033 1.88795 1.88833 1.99995 1.75033 1.99995Z" fill="white"/>
</svg>
