<svg width="22" height="17" viewBox="0 0 22 17" fill="none" xmlns="http://www.w3.org/2000/svg">
<path d="M20.9998 8.00001H3.41378L8.70678 2.70702C8.80229 2.61477 8.87848 2.50443 8.93088 2.38242C8.98329 2.26042 9.01088 2.1292 9.01203 1.99642C9.01319 1.86364 8.98788 1.73196 8.9376 1.60907C8.88732 1.48617 8.81307 1.37452 8.71918 1.28062C8.62529 1.18673 8.51363 1.11248 8.39074 1.0622C8.26784 1.01192 8.13616 0.986616 8.00338 0.98777C7.8706 0.988924 7.73938 1.01651 7.61738 1.06892C7.49538 1.12133 7.38503 1.19751 7.29278 1.29302L0.292786 8.29301C0.105315 8.48054 0 8.73485 0 9.00001C0 9.26518 0.105315 9.51948 0.292786 9.70701L7.29278 16.707C7.48139 16.8892 7.73399 16.99 7.99618 16.9877C8.25838 16.9854 8.50919 16.8802 8.6946 16.6948C8.88001 16.5094 8.98518 16.2586 8.98746 15.9964C8.98973 15.7342 8.88894 15.4816 8.70678 15.293L3.41378 10H20.9998C21.265 10 21.5193 9.89466 21.7069 9.70712C21.8944 9.51958 21.9998 9.26523 21.9998 9.00001C21.9998 8.7348 21.8944 8.48044 21.7069 8.29291C21.5193 8.10537 21.265 8.00001 20.9998 8.00001Z" fill="#1F1F1F"/>
</svg>
