<svg width="20" height="24" viewBox="0 0 20 24" fill="none" xmlns="http://www.w3.org/2000/svg">
<path d="M15.437 10.4996C13.1627 10.4996 11.3121 12.3502 11.3121 14.6245C11.3121 16.8988 13.1627 18.7493 15.437 18.7493C17.7112 18.7493 19.5618 16.8988 19.5618 14.6245C19.5618 12.3502 17.7112 10.4996 15.437 10.4996ZM17.1858 13.9626C15.9867 15.7615 16.3268 15.2515 15.6859 16.2125C15.4557 16.5578 14.9896 16.6494 14.6457 16.4202L13.5208 15.6702C13.1763 15.4405 13.0834 14.9751 13.3131 14.6301C13.5428 14.2856 14.0083 14.1928 14.3532 14.4224L14.8539 14.7562C16.05 12.9623 15.9857 13.0119 16.1869 12.8972C16.87 12.502 17.6248 13.3033 17.1858 13.9626ZM12.0621 19.1215V23.2491C12.0621 23.8238 12.6845 24.1859 13.1842 23.9002L15.437 22.6131L17.6897 23.9002C18.1874 24.1855 18.8118 23.8254 18.8118 23.2491V19.1215C16.8137 20.6248 14.0631 20.627 12.0621 19.1215ZM16.9369 9.2031V1.62885C16.9369 0.730754 16.2061 0 15.3081 0H2.06635C1.16825 0 0.4375 0.730754 0.4375 1.62885V18.9954C0.4375 19.8935 1.16825 20.6242 2.06635 20.6242H10.5621C10.5621 17.3969 10.5571 17.5966 10.5739 17.4481C8.06322 13.1439 12.061 7.84902 16.9369 9.2031ZM4.93734 3.74986H11.3121C11.7265 3.74986 12.0621 4.08547 12.0621 4.49983C12.0621 4.91419 11.7265 5.24981 11.3121 5.24981H4.93734C4.52298 5.24981 4.18736 4.91419 4.18736 4.49983C4.18736 4.08547 4.52298 3.74986 4.93734 3.74986ZM8.6872 11.2496H4.93734C4.52298 11.2496 4.18736 10.914 4.18736 10.4996C4.18736 10.0853 4.52298 9.74964 4.93734 9.74964H8.6872C9.10156 9.74964 9.43717 10.0853 9.43717 10.4996C9.43717 10.914 9.10156 11.2496 8.6872 11.2496ZM4.93734 8.24969C4.52298 8.24969 4.18736 7.91408 4.18736 7.49972C4.18736 7.08536 4.52298 6.74975 4.93734 6.74975H11.3121C11.7265 6.74975 12.0621 7.08536 12.0621 7.49972C12.0621 7.91408 11.7265 8.24969 11.3121 8.24969H4.93734Z" fill="#6D9E3F"/>
</svg>
