<svg width="25" height="24" viewBox="0 0 25 24" fill="none" xmlns="http://www.w3.org/2000/svg">
<path d="M18.6571 8.08443C18.6571 6.53147 18.0198 5.04212 16.8854 3.94402C15.751 2.84591 14.2124 2.229 12.6081 2.229C11.0038 2.229 9.46525 2.84591 8.33085 3.94402C7.19645 5.04212 6.55915 6.53147 6.55915 8.08443C6.55915 14.9158 3.53467 16.8676 3.53467 16.8676H21.6816C21.6816 16.8676 18.6571 14.9158 18.6571 8.08443Z" stroke="#333333" stroke-width="2" stroke-linecap="round" stroke-linejoin="round"/>
<path d="M14.3525 20.7715C14.1752 21.0673 13.9208 21.3128 13.6147 21.4834C13.3087 21.6541 12.9616 21.7439 12.6084 21.7439C12.2551 21.7439 11.9081 21.6541 11.602 21.4834C11.2959 21.3128 11.0415 21.0673 10.8643 20.7715" stroke="#333333" stroke-width="2" stroke-linecap="round" stroke-linejoin="round"/>
</svg>
