<svg width="24" height="24" viewBox="0 0 24 24" fill="none" xmlns="http://www.w3.org/2000/svg">
<g clip-path="url(#clip0_2683_18881)">
<path d="M17.4374 10.4996C15.1632 10.4996 13.3126 12.3502 13.3126 14.6245C13.3126 16.8988 15.1632 18.7493 17.4374 18.7493C19.7117 18.7493 21.5623 16.8988 21.5623 14.6245C21.5623 12.3502 19.7117 10.4996 17.4374 10.4996ZM19.1863 13.9626C17.9872 15.7615 18.3272 15.2515 17.6863 16.2125C17.4561 16.5578 16.9901 16.6494 16.6462 16.4202L15.5213 15.6702C15.1767 15.4405 15.0839 14.9751 15.3136 14.6301C15.5433 14.2856 16.0087 14.1928 16.3537 14.4224L16.8543 14.7562C18.0505 12.9623 17.9861 13.0119 18.1874 12.8972C18.8705 12.502 19.6253 13.3033 19.1863 13.9626ZM14.0626 19.1215V23.2491C14.0626 23.8238 14.6849 24.1859 15.1847 23.9002L17.4374 22.6131L19.6902 23.9002C20.1879 24.1855 20.8123 23.8254 20.8123 23.2491V19.1215C18.8142 20.6248 16.0635 20.627 14.0626 19.1215ZM18.9374 9.2031V1.62885C18.9374 0.730754 18.2066 0 17.3085 0H4.06684C3.16874 0 2.43799 0.730754 2.43799 1.62885V18.9954C2.43799 19.8935 3.16874 20.6242 4.06684 20.6242H12.5626C12.5626 17.3969 12.5576 17.5966 12.5743 17.4481C10.0637 13.1439 14.0615 7.84902 18.9374 9.2031ZM6.93782 3.74986H13.3126C13.727 3.74986 14.0626 4.08547 14.0626 4.49983C14.0626 4.91419 13.727 5.24981 13.3126 5.24981H6.93782C6.52346 5.24981 6.18785 4.91419 6.18785 4.49983C6.18785 4.08547 6.52346 3.74986 6.93782 3.74986ZM10.6877 11.2496H6.93782C6.52346 11.2496 6.18785 10.914 6.18785 10.4996C6.18785 10.0853 6.52346 9.74964 6.93782 9.74964H10.6877C11.102 9.74964 11.4377 10.0853 11.4377 10.4996C11.4377 10.914 11.102 11.2496 10.6877 11.2496ZM6.93782 8.24969C6.52346 8.24969 6.18785 7.91408 6.18785 7.49972C6.18785 7.08536 6.52346 6.74975 6.93782 6.74975H13.3126C13.727 6.74975 14.0626 7.08536 14.0626 7.49972C14.0626 7.91408 13.727 8.24969 13.3126 8.24969H6.93782Z" fill="#898B87"/>
</g>
<defs>
<clipPath id="clip0_2683_18881">
<rect width="24" height="24" fill="white"/>
</clipPath>
</defs>
</svg>
