<svg width="24" height="24" viewBox="0 0 24 24" fill="none" xmlns="http://www.w3.org/2000/svg">
<g clip-path="url(#clip0_2683_19250)">
<path d="M17.4373 10.4996C15.163 10.4996 13.3125 12.3502 13.3125 14.6245C13.3125 16.8988 15.163 18.7493 17.4373 18.7493C19.7116 18.7493 21.5622 16.8988 21.5622 14.6245C21.5622 12.3502 19.7116 10.4996 17.4373 10.4996ZM19.1862 13.9626C17.9871 15.7615 18.3271 15.2515 17.6862 16.2125C17.456 16.5578 16.99 16.6494 16.6461 16.4202L15.5211 15.6702C15.1766 15.4405 15.0838 14.9751 15.3135 14.6301C15.5432 14.2856 16.0086 14.1928 16.3536 14.4224L16.8542 14.7562C18.0503 12.9623 17.986 13.0119 18.1873 12.8972C18.8704 12.502 19.6251 13.3033 19.1862 13.9626ZM14.0624 19.1215V23.2491C14.0624 23.8238 14.6848 24.1859 15.1846 23.9002L17.4373 22.6131L19.6901 23.9002C20.1878 24.1855 20.8122 23.8254 20.8122 23.2491V19.1215C18.8141 20.6248 16.0634 20.627 14.0624 19.1215ZM18.9373 9.2031V1.62885C18.9373 0.730754 18.2065 0 17.3084 0H4.06671C3.16862 0 2.43787 0.730754 2.43787 1.62885V18.9954C2.43787 19.8935 3.16862 20.6242 4.06671 20.6242H12.5625C12.5625 17.3969 12.5575 17.5966 12.5742 17.4481C10.0636 13.1439 14.0614 7.84902 18.9373 9.2031ZM6.9377 3.74986H13.3125C13.7268 3.74986 14.0624 4.08547 14.0624 4.49983C14.0624 4.91419 13.7268 5.24981 13.3125 5.24981H6.9377C6.52334 5.24981 6.18773 4.91419 6.18773 4.49983C6.18773 4.08547 6.52334 3.74986 6.9377 3.74986ZM10.6876 11.2496H6.9377C6.52334 11.2496 6.18773 10.914 6.18773 10.4996C6.18773 10.0853 6.52334 9.74964 6.9377 9.74964H10.6876C11.1019 9.74964 11.4375 10.0853 11.4375 10.4996C11.4375 10.914 11.1019 11.2496 10.6876 11.2496ZM6.9377 8.24969C6.52334 8.24969 6.18773 7.91408 6.18773 7.49972C6.18773 7.08536 6.52334 6.74975 6.9377 6.74975H13.3125C13.7268 6.74975 14.0624 7.08536 14.0624 7.49972C14.0624 7.91408 13.7268 8.24969 13.3125 8.24969H6.9377Z" fill="#6D9E3F"/>
</g>
<defs>
<clipPath id="clip0_2683_19250">
<rect width="24" height="24" fill="white"/>
</clipPath>
</defs>
</svg>
