<svg width="16" height="16" viewBox="0 0 16 16" fill="none" xmlns="http://www.w3.org/2000/svg">
<path d="M0.872562 15.1274C1.43531 15.6901 2.18341 16 2.97919 15.9999L13.0208 16C13.8166 16 14.5647 15.6901 15.1274 15.1274C15.6901 14.5647 16 13.8166 15.9999 13.0208L16 2.97916C15.9999 1.33647 14.6635 0 13.0208 0L2.97919 0C1.3365 0 0 1.33647 0 2.97919V13.0208C0 13.8166 0.309875 14.5647 0.872562 15.1274ZM10.8168 10.3649L8.33153 12.8502C8.24362 12.9381 8.12438 12.9875 8.00009 12.9875C7.87575 12.9875 7.75656 12.9382 7.66866 12.8502L5.18344 10.3651C5.00034 10.182 5.00034 9.88522 5.18338 9.70216C5.36647 9.51912 5.66322 9.51906 5.84634 9.70216L7.53141 11.3872L7.53134 6.38666C7.53134 6.12778 7.74119 5.91791 8.00009 5.91791C8.259 5.91791 8.46884 6.12778 8.46884 6.38666L8.46894 11.387L10.1539 9.702C10.2454 9.61047 10.3654 9.56469 10.4853 9.56469C10.6053 9.56469 10.7252 9.61044 10.8168 9.702C10.9998 9.88503 10.9998 10.1818 10.8168 10.3649ZM3.48122 3.0125L12.5187 3.0125C12.7776 3.0125 12.9875 3.22237 12.9875 3.48125C12.9875 3.74012 12.7776 3.95 12.5187 3.95L3.48119 3.95C3.22234 3.95 3.01244 3.74012 3.01244 3.48125C3.01247 3.22237 3.22234 3.0125 3.48122 3.0125Z" fill="white"/>
</svg>
