<svg width="24" height="24" viewBox="0 0 24 24" fill="none" xmlns="http://www.w3.org/2000/svg">
<path d="M1.30884 22.6911C2.15297 23.5351 3.27511 24 4.46878 23.9999L19.5313 24C20.7249 24 21.8471 23.5351 22.6912 22.6911C23.5352 21.847 24 20.7248 23.9999 19.5313L24 4.46873C23.9999 2.0047 21.9952 0 19.5312 0L4.46878 0C2.00475 0 0 2.0047 0 4.46878L0 19.5311C0 20.7248 0.464813 21.8471 1.30884 22.6911ZM16.2251 15.5474L12.4973 19.2753C12.3654 19.4072 12.1866 19.4813 12.0001 19.4813C11.8136 19.4813 11.6348 19.4072 11.503 19.2753L7.77516 15.5476C7.50051 15.273 7.50052 14.8278 7.77506 14.5532C8.0497 14.2787 8.49483 14.2786 8.76952 14.5532L11.2971 17.0808L11.297 9.57998C11.297 9.19167 11.6118 8.87686 12.0001 8.87686C12.3885 8.87686 12.7033 9.19167 12.7033 9.57998L12.7034 17.0805L15.2308 14.553C15.3681 14.4157 15.5481 14.347 15.728 14.347C15.908 14.347 16.0879 14.4157 16.2252 14.553C16.4997 14.8275 16.4997 15.2727 16.2251 15.5474ZM5.22183 4.51875L18.7781 4.51875C19.1663 4.51875 19.4812 4.83356 19.4812 5.22187C19.4812 5.61019 19.1663 5.925 18.7781 5.925L5.22178 5.925C4.83352 5.925 4.51866 5.61019 4.51866 5.22187C4.5187 4.83356 4.83352 4.51875 5.22183 4.51875Z" fill="#6D9E3F"/>
</svg>
