<svg width="24" height="24" viewBox="0 0 24 24" fill="none" xmlns="http://www.w3.org/2000/svg">
<g clip-path="url(#clip0_2737_20382)">
<path d="M16.6793 24H7.3207C7.13419 24 6.95536 23.9259 6.82355 23.794L0.205969 17.1765C0.0740625 17.0446 0 16.8658 0 16.6793V7.3207C0 7.13419 0.0740625 6.95536 0.205969 6.82355L6.8235 0.205969C6.95536 0.0740625 7.13419 0 7.3207 0H16.6793C16.8658 0 17.0446 0.0740625 17.1765 0.205969L23.794 6.82355C23.9259 6.95541 24 7.13423 24 7.3207V16.6793C24 16.8658 23.9259 17.0446 23.794 17.1765L17.1765 23.794C17.0446 23.9259 16.8658 24 16.6793 24V24Z" fill="white"/>
<path d="M16.6793 24C16.8658 24 17.0446 23.9259 17.1765 23.794L23.794 17.1765C23.9259 17.0446 24 16.8658 24 16.6793V7.3207C24 7.13419 23.9259 6.95536 23.794 6.82355L17.1765 0.205969C17.0446 0.0740625 16.8658 0 16.6793 0H12V24H16.6793Z" fill="white"/>
<path d="M13.3796 14.8806H10.6204C10.3439 14.8806 10.1163 14.663 10.104 14.3867L9.6573 4.37654C9.63105 3.78807 10.1011 3.29663 10.6901 3.29663H13.3099C13.8989 3.29663 14.3689 3.78807 14.3427 4.37654L13.896 14.3867C13.8837 14.663 13.6562 14.8806 13.3796 14.8806Z" fill="#DB371F"/>
<path d="M11.9999 20.7034C10.965 20.7034 10.126 19.8644 10.126 18.8294C10.126 17.7945 10.965 16.9554 11.9999 16.9554C13.0349 16.9554 13.8739 17.7945 13.8739 18.8294C13.8739 19.8644 13.0349 20.7034 11.9999 20.7034Z" fill="#DB371F"/>
<path d="M12 16.9554V20.7034C13.0349 20.7032 13.8738 19.8643 13.8738 18.8294V18.8294C13.8737 17.7945 13.0349 16.9556 12 16.9554Z" fill="#DB371F"/>
<path d="M13.3097 3.29663H12V14.8806H13.3794C13.6559 14.8806 13.8835 14.663 13.8958 14.3867L14.3425 4.37654C14.3688 3.78807 13.8988 3.29663 13.3097 3.29663Z" fill="#DB371F"/>
</g>
<defs>
<clipPath id="clip0_2737_20382">
<rect width="24" height="24" fill="white"/>
</clipPath>
</defs>
</svg>
