<svg width="24" height="24" viewBox="0 0 24 24" fill="none" xmlns="http://www.w3.org/2000/svg">
<g clip-path="url(#clip0_2385_2941)">
<path d="M8.43633 12.8203H8.01562C7.62731 12.8203 7.3125 13.1351 7.3125 13.5234C7.3125 13.9117 7.62731 14.2265 8.01562 14.2265H15.9844C16.3727 14.2265 16.6875 13.9117 16.6875 13.5234C16.6875 13.1351 16.3727 12.8203 15.9844 12.8203H15.5637C15.28 11.3803 14.1432 10.2431 12.7031 9.95947V11.0624C12.7031 11.4508 12.3883 11.7656 12 11.7656C11.6117 11.7656 11.2969 11.4508 11.2969 11.0624V9.95947C9.85683 10.2431 8.72006 11.3803 8.43633 12.8203Z" fill="#898B87"/>
<path d="M15.6243 18.8823C14.7881 19.9697 13.4746 20.6719 12 20.6719C10.5254 20.6719 9.21187 19.9697 8.37567 18.8823C7.02258 19.8626 6.14062 21.4552 6.14062 23.25C6.14062 23.6383 6.45544 23.9531 6.84375 23.9531H17.1562C17.5446 23.9531 17.8594 23.6383 17.8594 23.25C17.8594 21.4552 16.9774 19.8626 15.6243 18.8823Z" fill="#898B87"/>
<path d="M12 19.2656C13.7475 19.2656 15.1641 17.849 15.1641 16.1016V15.6328H8.83594V16.1016C8.83594 17.849 10.2525 19.2656 12 19.2656Z" fill="#898B87"/>
<path d="M12.7031 9.95953V9.65625C12.7031 9.26794 12.3883 8.95312 12 8.95312C11.6117 8.95312 11.2969 9.26794 11.2969 9.65625V9.95953C11.5245 9.91472 11.7594 9.89063 12 9.89063C12.2406 9.89063 12.4755 9.91472 12.7031 9.95953Z" fill="#898B87"/>
<path d="M14.1562 5.32025H22.125C22.5133 5.32025 22.8281 5.00544 22.8281 4.61713C22.8281 4.22881 22.5133 3.914 22.125 3.914H21.7043C21.4206 2.47405 20.2838 1.33686 18.8438 1.05322V2.15619C18.8438 2.5445 18.5289 2.85932 18.1406 2.85932C17.7523 2.85932 17.4375 2.5445 17.4375 2.15619V1.05322C15.9975 1.33686 14.8607 2.47405 14.577 3.914H14.1562C13.7679 3.914 13.4531 4.22881 13.4531 4.61713C13.4531 5.00544 13.7679 5.32025 14.1562 5.32025Z" fill="#898B87"/>
<path d="M18.1406 10.3594C19.8881 10.3594 21.3047 8.94277 21.3047 7.19531V6.72656H14.9766V7.19531C14.9766 8.94277 16.3932 10.3594 18.1406 10.3594Z" fill="#898B87"/>
<path d="M21.8208 9.90173C20.9879 11.0313 19.6484 11.7656 18.1404 11.7656C17.606 11.7656 17.0929 11.6731 16.6158 11.5038C16.617 11.5065 16.6184 11.5091 16.6195 11.5118C17.4731 11.782 18.0935 12.5816 18.0935 13.5234C18.0935 14.4841 17.4476 15.2963 16.5675 15.5501C16.5691 15.5775 16.5701 15.605 16.5701 15.6328V16.1015C16.5701 16.6449 16.4746 17.1663 16.2998 17.6501C16.3508 17.6782 16.4009 17.7085 16.4492 17.7435C17.04 18.1716 17.5504 18.6875 17.9688 19.2656H23.2966C23.685 19.2656 23.9998 18.9508 23.9998 18.5625V14.1094C23.9998 12.3743 23.1384 10.8367 21.8208 9.90173Z" fill="#898B87"/>
<path d="M18.8438 1.05328V0.75C18.8438 0.361687 18.5289 0.046875 18.1406 0.046875C17.7523 0.046875 17.4375 0.361687 17.4375 0.75V1.05328C17.6651 1.00847 17.9001 0.984375 18.1406 0.984375C18.3812 0.984375 18.6161 1.00847 18.8438 1.05328Z" fill="#898B87"/>
<path d="M1.875 5.32025H9.84375C10.2321 5.32025 10.5469 5.00544 10.5469 4.61713C10.5469 4.22881 10.2321 3.914 9.84375 3.914H9.42305C9.13931 2.47405 8.00255 1.33686 6.5625 1.05322V2.15619C6.5625 2.5445 6.24769 2.85932 5.85938 2.85932C5.47106 2.85932 5.15625 2.5445 5.15625 2.15619V1.05322C3.7162 1.33686 2.57944 2.47405 2.2957 3.914H1.875C1.48669 3.914 1.17188 4.22881 1.17188 4.61713C1.17188 5.00544 1.48669 5.32025 1.875 5.32025Z" fill="#898B87"/>
<path d="M9.02344 7.19531V6.72656H2.69531V7.19531C2.69531 8.94277 4.11192 10.3594 5.85938 10.3594C7.60683 10.3594 9.02344 8.94277 9.02344 7.19531Z" fill="#898B87"/>
<path d="M7.55062 17.7435C7.59891 17.7085 7.64906 17.6781 7.70002 17.6501C7.52522 17.1662 7.42973 16.6448 7.42973 16.1015V15.6327C7.42973 15.6049 7.43077 15.5774 7.43236 15.55C6.55214 15.2963 5.90625 14.4841 5.90625 13.5234C5.90625 12.5816 6.52664 11.782 7.38019 11.5118C7.38136 11.5091 7.38272 11.5065 7.38389 11.5038C6.90684 11.6731 6.39375 11.7656 5.85938 11.7656C4.35141 11.7656 3.01191 11.0313 2.17898 9.90173C0.861422 10.8367 0 12.3743 0 14.1093V18.5625C0 18.9508 0.314812 19.2656 0.703125 19.2656H6.03098C6.44934 18.6875 6.95986 18.1715 7.55062 17.7435Z" fill="#898B87"/>
<path d="M6.5625 1.05328V0.75C6.5625 0.361687 6.24769 0.046875 5.85938 0.046875C5.47106 0.046875 5.15625 0.361687 5.15625 0.75V1.05328C5.38387 1.00847 5.61881 0.984375 5.85938 0.984375C6.09994 0.984375 6.33487 1.00847 6.5625 1.05328Z" fill="#898B87"/>
</g>
<defs>
<clipPath id="clip0_2385_2941">
<rect width="24" height="24" fill="white"/>
</clipPath>
</defs>
</svg>
