<svg width="39" height="40" viewBox="0 0 39 40" fill="none" xmlns="http://www.w3.org/2000/svg">
<path fill-rule="evenodd" clip-rule="evenodd" d="M13.1845 18.186C12.1696 18.186 11.9578 18.3949 11.9578 19.3953V21.2094C11.9578 22.21 12.1696 22.4188 13.1845 22.4188H15.6379V29.6751C15.6379 30.6756 15.8497 30.8844 16.8646 30.8844H19.318C20.3329 30.8844 20.5446 30.6756 20.5446 29.6751V22.4188H23.2994C24.0692 22.4188 24.2676 22.2713 24.479 21.5417L25.0047 19.7276C25.3669 18.4778 25.1437 18.186 23.8252 18.186H20.5446V15.1626C20.5446 14.4947 21.0938 13.9532 21.7713 13.9532H25.2628C26.2776 13.9532 26.4895 13.7444 26.4895 12.7438V10.3251C26.4895 9.32454 26.2776 9.11572 25.2628 9.11572H21.7713C18.3839 9.11572 15.6379 11.823 15.6379 15.1626V18.186H13.1845Z" stroke="#006D33" stroke-width="1.19577" stroke-linejoin="round"/>
</svg>
