<svg width="24" height="24" viewBox="0 0 24 24" fill="none" xmlns="http://www.w3.org/2000/svg">
<path d="M9.99102 4.44679C10.7855 3.15078 11.7575 1.30078 10.81 1.30078C9.35452 1.30078 8.80402 1.80528 7.54152 1.80528H7.46102C6.20001 1.80478 5.65001 1.30078 4.19251 1.30078C3.24501 1.30078 4.21701 3.15078 5.01151 4.44679H9.99102Z" fill="#898B87"/>
<path d="M9.57417 5.55931C9.54416 5.43984 9.54416 5.31479 9.57417 5.19531H5.43066C5.46068 5.31479 5.46068 5.43984 5.43066 5.55931H9.57417Z" fill="#898B87"/>
<path d="M18.5818 18.3075C18.5747 18.559 18.5497 18.8096 18.5068 19.0575C18.6463 19.0615 18.7878 19.0645 18.9348 19.0645C21.7798 19.0645 23.2499 18.3295 23.2499 18.0145V17.5195C22.2948 18.0595 20.5748 18.3145 18.9348 18.3145C18.8178 18.3145 18.6998 18.31 18.5818 18.3075Z" fill="#898B87"/>
<path d="M18.4209 16.8486C18.4818 17.0815 18.5264 17.3184 18.5544 17.5576C18.6794 17.5606 18.8044 17.5636 18.9349 17.5636C21.7849 17.5636 23.2499 16.8336 23.2499 16.5186V16.0586C22.2949 16.6036 20.5749 16.8586 18.9349 16.8586C18.7644 16.8586 18.5924 16.8541 18.4209 16.8486Z" fill="#898B87"/>
<path d="M17.7827 15.3576C17.9313 15.5915 18.0612 15.8367 18.1712 16.0911C18.4152 16.1031 18.6667 16.1116 18.9352 16.1116C21.7852 16.1116 23.2502 15.3766 23.2502 15.0616V14.6016C22.2952 15.1466 20.5752 15.4016 18.9352 15.4016C18.5502 15.4016 18.1647 15.3861 17.7827 15.3576Z" fill="#898B87"/>
<path d="M16.0688 13.652C16.4688 13.8992 16.8343 14.1981 17.1558 14.541C17.7459 14.6151 18.3401 14.6514 18.9348 14.6495C21.7848 14.6495 23.2498 13.9145 23.2498 13.6045V13.1445C22.2948 13.6845 20.5748 13.9395 18.9348 13.9395C17.972 13.9456 17.0113 13.8492 16.0688 13.652Z" fill="#898B87"/>
<path d="M14.625 11.6836V12.1436C14.635 12.4586 16.1 13.1886 18.935 13.1886C21.785 13.1886 23.25 12.4586 23.25 12.1436V11.6836C22.295 12.2236 20.575 12.4836 18.935 12.4836C17.295 12.4836 15.58 12.2236 14.625 11.6836Z" fill="#898B87"/>
<path d="M14.625 10.2266V10.6916C14.635 11.0066 16.1 11.7366 18.935 11.7366C21.785 11.7366 23.25 11.0016 23.25 10.6866V10.2266C22.295 10.7716 20.575 11.0266 18.935 11.0266C17.295 11.0266 15.58 10.7716 14.625 10.2266Z" fill="#898B87"/>
<path d="M18.935 10.2747C21.785 10.2747 23.25 9.53969 23.25 9.22469C23.25 8.90969 21.785 8.17969 18.935 8.17969C16.085 8.17969 14.625 8.91469 14.625 9.22469C14.625 9.53469 16.09 10.2747 18.935 10.2747Z" fill="#898B87"/>
<path d="M13.3 12.8591C13.6869 12.8601 14.0725 12.9035 14.45 12.9886C13.942 10.5386 12.3875 7.74909 10.331 6.30859H4.6725C2.145 8.07909 0.375 11.8851 0.375 14.6011C0.375 18.2486 3.5655 20.5216 7.5 20.5216C7.84833 20.5196 8.19631 20.4992 8.54249 20.4606C8.14817 19.6547 7.96571 18.7617 8.01231 17.8658C8.05892 16.9699 8.33306 16.1006 8.80887 15.34C9.28467 14.5795 9.94644 13.9527 10.7317 13.5189C11.517 13.0851 12.3999 12.8585 13.297 12.8606L13.3 12.8591Z" fill="#898B87"/>
<path d="M13.2998 13.6094C12.4015 13.6094 11.5233 13.8758 10.7764 14.3748C10.0295 14.8739 9.44733 15.5833 9.10355 16.4132C8.75978 17.2432 8.66983 18.1564 8.84509 19.0375C9.02034 19.9185 9.45292 20.7278 10.0881 21.3631C10.7233 21.9983 11.5326 22.4308 12.4137 22.6061C13.2948 22.7814 14.208 22.6914 15.038 22.3476C15.8679 22.0039 16.5773 21.4217 17.0763 20.6748C17.5754 19.9278 17.8418 19.0497 17.8418 18.1514C17.8417 16.9468 17.3631 15.7916 16.5113 14.9398C15.6596 14.0881 14.5044 13.6095 13.2998 13.6094ZM12.7548 17.7759H13.6963C14.042 17.7759 14.3736 17.9132 14.618 18.1577C14.8625 18.4021 14.9998 18.7337 14.9998 19.0794C14.9998 19.4251 14.8625 19.7566 14.618 20.0011C14.3736 20.2455 14.042 20.3829 13.6963 20.3829H13.5998V21.1019C13.5998 21.2013 13.5603 21.2967 13.49 21.367C13.4196 21.4374 13.3243 21.4769 13.2248 21.4769C13.1254 21.4769 13.03 21.4374 12.9596 21.367C12.8893 21.2967 12.8498 21.2013 12.8498 21.1019V20.3829H12.7548C12.409 20.3829 12.0773 20.2456 11.8326 20.0012C11.5879 19.7568 11.4502 19.4252 11.4498 19.0794C11.4498 18.9799 11.4893 18.8845 11.5596 18.8142C11.63 18.7439 11.7254 18.7044 11.8248 18.7044C11.9243 18.7044 12.0196 18.7439 12.09 18.8142C12.1603 18.8845 12.1998 18.9799 12.1998 19.0794C12.1999 19.2261 12.2583 19.3668 12.3621 19.4706C12.4658 19.5744 12.6066 19.6327 12.7533 19.6329H13.6948C13.8416 19.6329 13.9824 19.5746 14.0862 19.4708C14.19 19.367 14.2483 19.2262 14.2483 19.0794C14.2483 18.9326 14.19 18.7918 14.0862 18.688C13.9824 18.5842 13.8416 18.5259 13.6948 18.5259H12.7548C12.4135 18.5192 12.0883 18.3789 11.8493 18.1351C11.6102 17.8913 11.4763 17.5635 11.4763 17.2221C11.4763 16.8807 11.6102 16.5529 11.8493 16.3091C12.0883 16.0654 12.4135 15.9251 12.7548 15.9184H12.8498V15.1989C12.8498 15.0994 12.8893 15.004 12.9596 14.9337C13.03 14.8634 13.1254 14.8239 13.2248 14.8239C13.3243 14.8239 13.4196 14.8634 13.49 14.9337C13.5603 15.004 13.5998 15.0994 13.5998 15.1989V15.9184H13.6953C14.0411 15.9185 14.3726 16.0559 14.6172 16.3002C14.8618 16.5446 14.9994 16.8761 14.9998 17.2219C14.9998 17.3213 14.9603 17.4167 14.89 17.487C14.8196 17.5574 14.7243 17.5969 14.6248 17.5969C14.5253 17.5969 14.43 17.5574 14.3596 17.487C14.2893 17.4167 14.2498 17.3213 14.2498 17.2219C14.2497 17.0751 14.1913 16.9344 14.0875 16.8306C13.9838 16.7269 13.8431 16.6685 13.6963 16.6684H12.7548C12.6108 16.6727 12.4742 16.7329 12.3739 16.8363C12.2736 16.9397 12.2175 17.0781 12.2175 17.2221C12.2175 17.3662 12.2736 17.5046 12.3739 17.6079C12.4742 17.7113 12.6108 17.7715 12.7548 17.7759Z" fill="#898B87"/>
</svg>
