<svg width="24" height="24" viewBox="0 0 24 24" fill="none" xmlns="http://www.w3.org/2000/svg">
<g clip-path="url(#clip0_2933_22410)">
<path d="M22.6998 10.0974C22.4185 9.86609 21.9933 9.51654 21.9448 9.33508C21.8904 9.13129 22.0816 8.61877 22.2211 8.24451C22.4914 7.51941 22.7979 6.69745 22.3932 5.99799C21.9836 5.2901 21.1111 5.1449 20.3412 5.01672C19.9744 4.95557 19.4202 4.86328 19.2784 4.72156C19.1367 4.57983 19.0444 4.02557 18.9833 3.65881C18.8551 2.88885 18.7097 2.01636 18.0018 1.60675C17.3027 1.20209 16.4806 1.50861 15.7553 1.77887C15.3812 1.9184 14.8685 2.10919 14.6649 2.05499C14.4835 2.00647 14.1339 1.5813 13.9025 1.30005C13.4015 0.690857 12.8335 0 12 0C11.1665 0 10.5985 0.690857 10.0974 1.30023C9.86609 1.58148 9.51654 2.00665 9.33508 2.05518C9.1311 2.10938 8.61877 1.9184 8.24451 1.77887C7.51941 1.50861 6.69745 1.20209 5.99799 1.60675C5.2901 2.01636 5.1449 2.88885 5.01672 3.65881C4.95557 4.02557 4.86328 4.57983 4.72156 4.72156C4.57983 4.86328 4.02557 4.95557 3.65881 5.01672C2.88885 5.1449 2.01636 5.29028 1.60675 5.99817C1.20209 6.69745 1.50861 7.51941 1.77887 8.24469C1.9184 8.61877 2.10938 9.13147 2.05499 9.33508C2.00647 9.51654 1.5813 9.86609 1.30005 10.0975C0.690857 10.5985 0 11.1665 0 12C0 12.8335 0.690857 13.4015 1.30023 13.9026C1.58148 14.1339 2.00665 14.4835 2.05518 14.6649C2.10956 14.8687 1.9184 15.3812 1.77887 15.7555C1.50861 16.4806 1.20209 17.3026 1.60675 18.002C2.01636 18.7099 2.88885 18.8551 3.65881 18.9833C4.02557 19.0444 4.57983 19.1367 4.72156 19.2784C4.86328 19.4202 4.95557 19.9744 5.01672 20.3412C5.1449 21.1111 5.29028 21.9836 5.99817 22.3932C6.69727 22.7979 7.51941 22.4914 8.24469 22.2211C8.61877 22.0816 9.13165 21.8908 9.33508 21.945C9.51654 21.9935 9.86609 22.4187 10.0975 22.7C10.5985 23.3091 11.1665 24 12 24C12.8335 24 13.4015 23.3091 13.9026 22.6998C14.1339 22.4185 14.4835 21.9933 14.6649 21.9448C14.8689 21.8908 15.3812 22.0816 15.7555 22.2211C16.4806 22.4912 17.3026 22.7979 18.002 22.3932C18.7099 21.9836 18.8551 21.1111 18.9833 20.3412C19.0444 19.9744 19.1367 19.4202 19.2784 19.2784C19.4202 19.1367 19.9744 19.0444 20.3412 18.9833C21.1111 18.8551 21.9836 18.7097 22.3932 18.0018C22.7979 17.3026 22.4914 16.4806 22.2211 15.7553C22.0816 15.3812 21.8906 14.8685 21.945 14.6649C21.9935 14.4835 22.4187 14.1339 22.7 13.9025C23.3091 13.4015 24 12.8335 24 12C24 11.1665 23.3091 10.5985 22.6998 10.0974ZM17.1693 10.3385L13.0153 15.8769C12.6942 16.3054 12.2034 16.5729 11.6693 16.6108C11.6259 16.6139 11.582 16.6154 11.5384 16.6154C11.0453 16.6154 10.5817 16.4235 10.233 16.0746L7.46375 13.3055C6.74396 12.5856 6.74396 11.4144 7.46375 10.6946C8.18372 9.97485 9.35486 9.97485 10.0746 10.6946L11.3386 11.9586L14.2154 8.12311C14.5113 7.7287 14.9431 7.4729 15.4312 7.40314C15.9194 7.33337 16.4055 7.45807 16.7999 7.75397C17.1945 8.04968 17.4501 8.48163 17.5199 8.96979C17.5897 9.45795 17.4651 9.94391 17.1693 10.3385Z" fill="white"/>
</g>
<defs>
<clipPath id="clip0_2933_22410">
<rect width="24" height="24" fill="white"/>
</clipPath>
</defs>
</svg>
