<svg width="24" height="24" viewBox="0 0 24 24" fill="none" xmlns="http://www.w3.org/2000/svg">
<path fill-rule="evenodd" clip-rule="evenodd" d="M12.5156 13.7528L10.4804 13.2432C10.2169 13.1775 9.92761 13.2692 9.75311 13.4994L8.21136 15.5311L6.66669 13.4957C6.50409 13.2656 6.21094 13.1473 5.92145 13.2211L3.49017 13.8442C1.41357 14.3765 0 16.1964 0 18.3369V20.5276C0 20.9159 0.314758 21.2307 0.703125 21.2307H12.6345C12.5576 21.0119 12.5156 20.7764 12.5156 20.5312V13.7528Z" fill="#898B87"/>
<path fill-rule="evenodd" clip-rule="evenodd" d="M19.2784 12.5918L19.7061 12.8068V11.1562H18.2246V12.8068L18.6481 12.594C18.8391 12.4969 19.072 12.4887 19.2784 12.5918Z" fill="#898B87"/>
<path fill-rule="evenodd" clip-rule="evenodd" d="M23.2969 11.1562H21.1122V13.9437C21.1122 14.332 20.7975 14.6468 20.4091 14.6468C20.2723 14.6468 20.1445 14.6076 20.0365 14.5399L18.9653 14.0017L17.8347 14.5699C17.3639 14.8059 16.8208 14.4531 16.8212 13.9437L16.8182 11.1562H14.625C14.2366 11.1562 13.9219 11.4712 13.9219 11.8594V20.5312C13.9219 20.9196 14.2366 21.2344 14.625 21.2344H23.2969C23.6852 21.2344 24 20.9196 24 20.5312V11.8594C24 11.471 23.6852 11.1562 23.2969 11.1562Z" fill="#898B87"/>
<path fill-rule="evenodd" clip-rule="evenodd" d="M12.9453 7.45312C12.9453 10.0679 10.8257 12.1875 8.21094 12.1875C5.59619 12.1875 3.47656 10.0679 3.47656 7.45312C3.47656 4.83838 5.59619 2.71875 8.21094 2.71875C10.8257 2.71875 12.9453 4.83838 12.9453 7.45312Z" fill="#898B87"/>
</svg>
