<svg width="24" height="24" viewBox="0 0 24 24" fill="none" xmlns="http://www.w3.org/2000/svg">
<path d="M10.4687 3.75L11.7342 1.5H6.26611L7.53165 3.75H10.4687Z" fill="#898B87"/>
<path d="M12.75 19.5H7.125C6.91772 19.5 6.75 19.3323 6.75 19.125C6.75 18.9177 6.91772 18.75 7.125 18.75H12.75V15.75H7.125C6.91772 15.75 6.75 15.5823 6.75 15.375C6.75 15.1677 6.91772 15 7.125 15H12.75V14.7914C12.3038 14.5312 12 14.0528 12 13.5V12.75C12 12.4756 12.0794 12.2215 12.2086 12H7.125C6.91772 12 6.75 11.8323 6.75 11.625C6.75 11.4177 6.91772 11.25 7.125 11.25H16.5V2.25C16.5 1.83577 16.1642 1.5 15.75 1.5H12.5941L11.0142 4.30884C10.9482 4.42676 10.823 4.5 10.6875 4.5H7.3125C7.177 4.5 7.05176 4.42676 6.98584 4.30884L5.40587 1.5H2.25C1.83577 1.5 1.5 1.83577 1.5 2.25V21.75C1.5 22.1642 1.83577 22.5 2.25 22.5H15.75C16.1642 22.5 16.5 22.1642 16.5 21.75V21H14.25C13.4227 21 12.75 20.3273 12.75 19.5ZM7.125 7.5H14.625C14.8323 7.5 15 7.66772 15 7.875C15 8.08228 14.8323 8.25 14.625 8.25H7.125C6.91772 8.25 6.75 8.08228 6.75 7.875C6.75 7.66772 6.91772 7.5 7.125 7.5ZM5.89014 17.8901L4.39014 19.3901C4.31689 19.4634 4.22095 19.5 4.125 19.5C4.02905 19.5 3.93311 19.4634 3.85986 19.3901L3.10986 18.6401C2.96338 18.4937 2.96338 18.2563 3.10986 18.1099C3.25635 17.9634 3.49365 17.9634 3.64014 18.1099L4.125 18.5947L5.35986 17.3599C5.50635 17.2134 5.74365 17.2134 5.89014 17.3599C6.03662 17.5063 6.03662 17.7437 5.89014 17.8901ZM5.89014 14.1401L4.39014 15.6401C4.31689 15.7134 4.22095 15.75 4.125 15.75C4.02905 15.75 3.93311 15.7134 3.85986 15.6401L3.10986 14.8901C2.96338 14.7437 2.96338 14.5063 3.10986 14.3599C3.25635 14.2134 3.49365 14.2134 3.64014 14.3599L4.125 14.8447L5.35986 13.6099C5.50635 13.4634 5.74365 13.4634 5.89014 13.6099C6.03662 13.7563 6.03662 13.9937 5.89014 14.1401ZM5.89014 10.3901L4.39014 11.8901C4.31689 11.9634 4.22095 12 4.125 12C4.02905 12 3.93311 11.9634 3.85986 11.8901L3.10986 11.1401C2.96338 10.9937 2.96338 10.7563 3.10986 10.6099C3.25635 10.4634 3.49365 10.4634 3.64014 10.6099L4.125 11.0947L5.35986 9.85986C5.50635 9.71338 5.74365 9.71338 5.89014 9.85986C6.03662 10.0063 6.03662 10.2437 5.89014 10.3901ZM5.89014 6.64014L4.39014 8.14014C4.31689 8.21338 4.22095 8.25 4.125 8.25C4.02905 8.25 3.93311 8.21338 3.85986 8.14014L3.10986 7.39014C2.96338 7.24365 2.96338 7.00635 3.10986 6.85986C3.25635 6.71338 3.49365 6.71338 3.64014 6.85986L4.125 7.34473L5.35986 6.10986C5.50635 5.96338 5.74365 5.96338 5.89014 6.10986C6.03662 6.25635 6.03662 6.49365 5.89014 6.64014Z" fill="#898B87"/>
<path d="M21.75 12H13.5C13.0858 12 12.75 12.3358 12.75 12.75V13.5C12.75 13.9142 13.0858 14.25 13.5 14.25H21.75C22.1642 14.25 22.5 13.9142 22.5 13.5V12.75C22.5 12.3358 22.1642 12 21.75 12Z" fill="#898B87"/>
<path d="M13.5 19.5C13.5 19.9142 13.8358 20.25 14.25 20.25H21C21.4142 20.25 21.75 19.9142 21.75 19.5V15H13.5V19.5ZM16.875 16.125H18.375C18.5823 16.125 18.75 16.2927 18.75 16.5C18.75 16.7073 18.5823 16.875 18.375 16.875H16.875C16.6677 16.875 16.5 16.7073 16.5 16.5C16.5 16.2927 16.6677 16.125 16.875 16.125Z" fill="#898B87"/>
</svg>
