<svg width="8" height="8" viewBox="0 0 8 8" fill="none" xmlns="http://www.w3.org/2000/svg">
<path d="M7.90259 7.20786L6.01516 5.31929C6.4231 4.76617 6.66655 4.08479 6.66655 3.3449C6.66655 1.50424 5.17478 0.0117188 3.33328 0.0117188C1.49246 0.0117188 0 1.50424 0 3.34497C0 5.18616 1.49246 6.6783 3.33328 6.6783C4.07378 6.6783 4.75486 6.43447 5.30799 6.0263L7.19626 7.91426C7.32588 8.04418 7.53806 8.04418 7.66768 7.91426L7.90282 7.67889C8.03252 7.54965 8.03252 7.33717 7.90259 7.20786ZM3.33328 1.34502C3.79371 1.34502 4.16656 1.71832 4.16656 2.1786C4.16656 2.63888 3.79371 3.01157 3.33328 3.01157C2.873 3.01172 2.49999 2.63888 2.49999 2.1786C2.49999 1.71832 2.873 1.34502 3.33328 1.34502ZM5.33332 5.10506C4.84496 5.66017 4.131 6.01196 3.33328 6.01196C2.53593 6.01196 1.8219 5.66009 1.33346 5.10475V4.67828C1.33346 4.1282 1.78337 3.6786 2.33329 3.6786H4.33326C4.88379 3.6786 5.33332 4.1282 5.33332 4.67828V5.10506Z" fill="white"/>
</svg>
