<svg width="8" height="8" viewBox="0 0 8 8" fill="none" xmlns="http://www.w3.org/2000/svg">
<path d="M2.7031 5.84375C2.93227 5.58333 3.14778 5.15364 3.54685 4.72395C3.92064 4.3215 4.09418 4.08333 4.35415 3.77605C4.68742 3.38203 5.13384 2.91419 5.45351 2.55469H5.02539C4.77047 2.756 4.04551 3.33055 3.87885 3.48438C3.67573 3.67188 2.49196 4.59531 2.17182 4.85938C1.48099 5.42911 0.125629 6.42127 0.124817 6.42188V7.87619H1.18748C1.18748 7.87619 1.53316 7.40262 1.74998 7.14062C2.10026 6.71734 2.35916 6.23458 2.7031 5.84375V5.84375Z" fill="white"/>
<path d="M0.124817 4.40103V5.67188C0.125629 5.67137 1.48438 4.84897 1.58852 4.80731C1.69266 4.76566 2.61968 4.03647 2.61968 4.03647C2.61968 4.03647 3.11978 3.6198 3.35154 3.54688C3.58331 3.47395 3.75518 3.20312 3.99998 3.04688C4.1815 2.93103 4.53734 2.67794 4.70936 2.55469H4.10779C3.12123 2.90233 2.33123 3.41759 2.0781 3.5052C1.80734 3.59894 0.125629 4.40064 0.124817 4.40103V4.40103Z" fill="white"/>
<path d="M0.124817 3.20312L0.124973 4C0.124973 4 1.7031 3.34375 1.99997 3.24272C2.29684 3.14169 2.70309 2.91406 2.79684 2.875C2.86387 2.84706 3.34623 2.65937 3.61575 2.55469H2.61031C1.81203 2.74745 0.125629 3.20291 0.124817 3.20312V3.20312Z" fill="white"/>
<path d="M0.124973 2.88281C0.438192 2.78645 1.1318 2.64891 1.63974 2.55469H0.124817L0.124973 2.88281Z" fill="white"/>
<path d="M4.63557 7.05937C4.70069 6.52678 5.01994 5.24477 5.20705 4.82812C5.42517 4.34253 5.5457 3.94777 5.6685 3.62486C5.83683 3.18228 5.88691 2.89517 5.99955 2.55469H5.68522C5.43231 3.05684 4.94221 3.3903 4.84377 3.60938C4.74078 3.83855 4.0469 4.55078 3.9219 4.8125C3.81252 5.04139 3.23924 5.76741 3.1664 5.88281C2.80703 6.45203 2.46942 6.95648 2.3594 7.15105C2.09292 7.6223 1.94342 7.87617 1.94342 7.87617H4.39065C4.39065 7.87617 4.46935 7.53753 4.57718 7.27736C4.60643 7.20768 4.62607 7.13435 4.63557 7.05937V7.05937Z" fill="white"/>
<path d="M7.80206 2.2821C7.66648 2.22029 7.50864 2.1636 7.04685 1.90075C6.70826 1.70794 6.22373 1.83575 6.0442 1.95544C5.89795 2.05279 5.43232 2.182 5.02607 2.16107C4.83592 2.15138 4.53638 2.01185 4.31763 1.99966C4.09888 1.98747 3.53951 2.20669 3.40435 2.1995C3.13888 2.18348 2.87585 2.13938 2.61966 2.06794C2.24044 1.95841 1.57013 1.682 0.999974 1.88153C0.725262 1.97989 0.456351 2.09375 0.194536 2.22257C0.173599 2.23287 0.155968 2.24884 0.143645 2.26865C0.131322 2.28847 0.124799 2.31134 0.124817 2.33468V2.41372H7.87498V2.39576C7.87501 2.37181 7.86814 2.34837 7.85522 2.32822C7.84229 2.30806 7.82383 2.29206 7.80206 2.2821V2.2821Z" fill="white"/>
<path d="M7.87473 2.55469H7.38361C7.56806 2.75233 7.74767 3.06198 7.87498 3.18927L7.87473 2.55469Z" fill="white"/>
<path d="M6.89062 4.95312C6.81094 4.58698 6.77656 4.07247 6.63281 3.47656C6.60495 3.36109 6.54687 2.76153 6.52741 2.55469H6.21153C6.07606 3.05738 5.98341 3.39653 5.92969 3.61719C5.78138 4.22689 5.27437 5.5267 5.20703 6.54106C5.16309 7.20289 5.01562 7.87617 5.01562 7.87617H7.39062C7.31345 7.54406 7.15625 7.07813 7.13303 6.45516C7.10255 5.63802 6.97156 5.32478 6.89062 4.95312Z" fill="white"/>
<path d="M7.09416 2.55469H6.73749C6.7888 2.82228 6.97178 3.7743 7.02088 4.00105C7.07818 4.26562 7.27088 5.20105 7.3438 5.47395C7.41672 5.74686 7.54166 6.39062 7.61457 6.58855C7.68747 6.78647 7.87499 7.35677 7.87499 7.35677V3.82197C7.79986 3.73313 7.73045 3.63961 7.66718 3.54197C7.366 3.06939 7.36002 2.8898 7.09416 2.55469V2.55469Z" fill="white"/>
</svg>
