<svg width="24" height="24" viewBox="0 0 24 24" fill="none" xmlns="http://www.w3.org/2000/svg">
<g clip-path="url(#clip0_3050_26737)">
<path d="M11.5863 12.4141H8.27591V15.5663L6.20694 14.5319L4.13798 15.5663V12.4141H0.827637V20.6899H1.93867C2.4046 19.713 3.39936 19.0348 4.55177 19.0348C5.70419 19.0348 6.69894 19.713 7.16487 20.6899H11.5863V12.4141Z" fill="#6D9E3F"/>
<path d="M7.41504 21.5156C7.43449 21.6513 7.44814 21.7887 7.44814 21.9294C7.44814 22.0701 7.43449 22.2075 7.41504 22.3432H11.6192C11.5997 22.2075 11.5861 22.0701 11.5861 21.9294C11.5861 21.7887 11.5997 21.6513 11.6192 21.5156H7.41504Z" fill="#6D9E3F"/>
<path d="M17.4697 18.2088H14.8963C14.4399 18.2088 14.0688 17.8376 14.0688 17.3812V16.5536C14.0688 16.0972 14.4399 15.726 14.8963 15.726H16.849L16.7203 15.2117C16.6744 15.0275 16.5093 14.8984 16.319 14.8984H12.4136V19.9099C12.9399 19.3715 13.6723 19.0364 14.4825 19.0364C15.635 19.0364 16.6297 19.7146 17.0957 20.6915H18.0904L17.4697 18.2088Z" fill="#6D9E3F"/>
<path d="M0 21.5156V22.3432H1.68828C1.66883 22.2075 1.65517 22.0701 1.65517 21.9294C1.65517 21.7887 1.66883 21.6513 1.68828 21.5156H0Z" fill="#6D9E3F"/>
<path d="M4.55188 19.8633C3.41105 19.8633 2.48291 20.7914 2.48291 21.9323C2.48291 23.0731 3.41105 24.0012 4.55188 24.0012C5.69271 24.0012 6.62084 23.0731 6.62084 21.9323C6.62084 20.7914 5.69271 19.8633 4.55188 19.8633ZM4.55188 22.7598C4.09464 22.7598 3.72429 22.3895 3.72429 21.9323C3.72429 21.475 4.09464 21.1047 4.55188 21.1047C5.00912 21.1047 5.37946 21.475 5.37946 21.9323C5.37946 22.3895 5.00912 22.7598 4.55188 22.7598Z" fill="#6D9E3F"/>
<path d="M4.96533 14.2273L6.20671 13.6066L7.4481 14.2273V12.4141H4.96533V14.2273Z" fill="#6D9E3F"/>
<path d="M14.4825 19.8633C13.3417 19.8633 12.4136 20.7914 12.4136 21.9323C12.4136 23.0731 13.3417 24.0012 14.4825 24.0012C15.6234 24.0012 16.5515 23.0731 16.5515 21.9323C16.5515 20.7914 15.6234 19.8633 14.4825 19.8633ZM14.4825 22.7598C14.0253 22.7598 13.6549 22.3895 13.6549 21.9323C13.6549 21.475 14.0253 21.1047 14.4825 21.1047C14.9398 21.1047 15.3101 21.475 15.3101 21.9323C15.3101 22.3895 14.9398 22.7598 14.4825 22.7598Z" fill="#6D9E3F"/>
<path d="M14.8965 17.3784H17.263L17.0561 16.5508H14.8965V17.3784Z" fill="#6D9E3F"/>
<path d="M17.3793 21.9294C17.3793 22.0701 17.3656 22.2075 17.3462 22.3432H18.2069V21.5156H17.3462C17.3656 21.6513 17.3793 21.7887 17.3793 21.9294Z" fill="#6D9E3F"/>
<path d="M16.5515 10.9167L19.8052 6.77503C20.3754 6.04965 20.6894 5.14179 20.6894 4.21862V4.13793C20.6894 1.85628 18.8332 0 16.5515 0C14.2699 0 12.4136 1.85628 12.4136 4.13793V4.21862C12.4136 5.14138 12.7276 6.04965 13.2979 6.77503L16.5515 10.9167ZM16.5515 1.24138C18.1512 1.24138 19.4481 2.53821 19.4481 4.13793C19.4481 5.73766 18.1512 7.03448 16.5515 7.03448C14.9518 7.03448 13.655 5.73766 13.655 4.13793C13.655 2.53821 14.9518 1.24138 16.5515 1.24138Z" fill="#6D9E3F"/>
</g>
<defs>
<clipPath id="clip0_3050_26737">
<rect width="24" height="24" fill="white"/>
</clipPath>
</defs>
</svg>
