<svg width="24" height="24" viewBox="0 0 24 24" fill="none" xmlns="http://www.w3.org/2000/svg">
<g clip-path="url(#clip0_2933_22437)">
<path d="M11.5863 12.4136H8.27591V15.5659L6.20694 14.5314L4.13798 15.5659V12.4136H0.827637V20.6894H1.93867C2.4046 19.7125 3.39936 19.0343 4.55177 19.0343C5.70419 19.0343 6.69894 19.7125 7.16487 20.6894H11.5863V12.4136Z" fill="white"/>
<path d="M7.41504 21.5171C7.43449 21.6528 7.44814 21.7902 7.44814 21.9309C7.44814 22.0716 7.43449 22.2089 7.41504 22.3447H11.6192C11.5997 22.2089 11.5861 22.0716 11.5861 21.9309C11.5861 21.7902 11.5997 21.6528 11.6192 21.5171H7.41504Z" fill="white"/>
<path d="M17.4697 18.2068H14.8963C14.4399 18.2068 14.0688 17.8357 14.0688 17.3792V16.5517C14.0688 16.0952 14.4399 15.7241 14.8963 15.7241H16.849L16.7203 15.2097C16.6744 15.0256 16.5093 14.8965 16.319 14.8965H12.4136V19.9079C12.9399 19.3696 13.6723 19.0344 14.4825 19.0344C15.635 19.0344 16.6297 19.7126 17.0957 20.6896H18.0904L17.4697 18.2068Z" fill="white"/>
<path d="M0 21.5171V22.3447H1.68828C1.66883 22.2089 1.65517 22.0716 1.65517 21.9309C1.65517 21.7902 1.66883 21.6528 1.68828 21.5171H0Z" fill="white"/>
<path d="M4.55188 19.8623C3.41105 19.8623 2.48291 20.7904 2.48291 21.9313C2.48291 23.0721 3.41105 24.0002 4.55188 24.0002C5.69271 24.0002 6.62084 23.0721 6.62084 21.9313C6.62084 20.7904 5.69271 19.8623 4.55188 19.8623ZM4.55188 22.7589C4.09464 22.7589 3.72429 22.3885 3.72429 21.9313C3.72429 21.474 4.09464 21.1037 4.55188 21.1037C5.00912 21.1037 5.37946 21.474 5.37946 21.9313C5.37946 22.3885 5.00912 22.7589 4.55188 22.7589Z" fill="white"/>
<path d="M4.96533 14.2268L6.20671 13.6061L7.4481 14.2268V12.4136H4.96533V14.2268Z" fill="white"/>
<path d="M14.4825 19.8623C13.3417 19.8623 12.4136 20.7904 12.4136 21.9313C12.4136 23.0721 13.3417 24.0002 14.4825 24.0002C15.6234 24.0002 16.5515 23.0721 16.5515 21.9313C16.5515 20.7904 15.6234 19.8623 14.4825 19.8623ZM14.4825 22.7589C14.0253 22.7589 13.6549 22.3885 13.6549 21.9313C13.6549 21.474 14.0253 21.1037 14.4825 21.1037C14.9398 21.1037 15.3101 21.474 15.3101 21.9313C15.3101 22.3885 14.9398 22.7589 14.4825 22.7589Z" fill="white"/>
<path d="M14.8965 17.3793H17.263L17.0561 16.5518H14.8965V17.3793Z" fill="white"/>
<path d="M17.3793 21.9309C17.3793 22.0716 17.3656 22.2089 17.3462 22.3447H18.2069V21.5171H17.3462C17.3656 21.6528 17.3793 21.7902 17.3793 21.9309Z" fill="white"/>
<path d="M16.5515 10.9167L19.8052 6.77503C20.3754 6.04965 20.6894 5.14179 20.6894 4.21862V4.13793C20.6894 1.85628 18.8332 0 16.5515 0C14.2699 0 12.4136 1.85628 12.4136 4.13793V4.21862C12.4136 5.14138 12.7276 6.04965 13.2979 6.77503L16.5515 10.9167ZM16.5515 1.24138C18.1512 1.24138 19.4481 2.53821 19.4481 4.13793C19.4481 5.73766 18.1512 7.03448 16.5515 7.03448C14.9518 7.03448 13.655 5.73766 13.655 4.13793C13.655 2.53821 14.9518 1.24138 16.5515 1.24138Z" fill="white"/>
</g>
<defs>
<clipPath id="clip0_2933_22437">
<rect width="24" height="24" fill="white"/>
</clipPath>
</defs>
</svg>
