<svg width="24" height="24" viewBox="0 0 24 24" fill="none" xmlns="http://www.w3.org/2000/svg">
<g clip-path="url(#clip0_2385_2999)">
<path d="M11.5863 12.4138H8.27591V15.5661L6.20694 14.5316L4.13798 15.5661V12.4138H0.827637V20.6897H1.93867C2.4046 19.7127 3.39936 19.0345 4.55177 19.0345C5.70419 19.0345 6.69894 19.7127 7.16487 20.6897H11.5863V12.4138Z" fill="#898B87"/>
<path d="M7.41504 21.5172C7.43449 21.6529 7.44814 21.7903 7.44814 21.931C7.44814 22.0717 7.43449 22.2091 7.41504 22.3448H11.6192C11.5997 22.2091 11.5861 22.0717 11.5861 21.931C11.5861 21.7903 11.5997 21.6529 11.6192 21.5172H7.41504Z" fill="#898B87"/>
<path d="M17.4697 18.2069H14.8963C14.4399 18.2069 14.0688 17.8357 14.0688 17.3793V16.5517C14.0688 16.0953 14.4399 15.7241 14.8963 15.7241H16.849L16.7203 15.2098C16.6744 15.0256 16.5093 14.8965 16.319 14.8965H12.4136V19.908C12.9399 19.3696 13.6723 19.0345 14.4825 19.0345C15.635 19.0345 16.6297 19.7127 17.0957 20.6896H18.0904L17.4697 18.2069Z" fill="#898B87"/>
<path d="M0 21.5172V22.3448H1.68828C1.66883 22.2091 1.65517 22.0717 1.65517 21.931C1.65517 21.7903 1.66883 21.6529 1.68828 21.5172H0Z" fill="#898B87"/>
<path d="M4.55188 19.8621C3.41105 19.8621 2.48291 20.7902 2.48291 21.931C2.48291 23.0719 3.41105 24 4.55188 24C5.69271 24 6.62084 23.0719 6.62084 21.931C6.62084 20.7902 5.69271 19.8621 4.55188 19.8621ZM4.55188 22.7586C4.09464 22.7586 3.72429 22.3883 3.72429 21.931C3.72429 21.4738 4.09464 21.1034 4.55188 21.1034C5.00912 21.1034 5.37946 21.4738 5.37946 21.931C5.37946 22.3883 5.00912 22.7586 4.55188 22.7586Z" fill="#898B87"/>
<path d="M4.96533 14.227L6.20671 13.6064L7.4481 14.227V12.4138H4.96533V14.227Z" fill="#898B87"/>
<path d="M14.4825 19.8621C13.3417 19.8621 12.4136 20.7902 12.4136 21.931C12.4136 23.0719 13.3417 24 14.4825 24C15.6234 24 16.5515 23.0719 16.5515 21.931C16.5515 20.7902 15.6234 19.8621 14.4825 19.8621ZM14.4825 22.7586C14.0253 22.7586 13.6549 22.3883 13.6549 21.931C13.6549 21.4738 14.0253 21.1034 14.4825 21.1034C14.9398 21.1034 15.3101 21.4738 15.3101 21.931C15.3101 22.3883 14.9398 22.7586 14.4825 22.7586Z" fill="#898B87"/>
<path d="M14.8965 17.3793H17.263L17.0561 16.5517H14.8965V17.3793Z" fill="#898B87"/>
<path d="M17.3793 21.931C17.3793 22.0717 17.3656 22.2091 17.3462 22.3448H18.2069V21.5172H17.3462C17.3656 21.6529 17.3793 21.7903 17.3793 21.931Z" fill="#898B87"/>
<path d="M16.5515 10.9167L19.8052 6.77503C20.3754 6.04965 20.6894 5.14179 20.6894 4.21862V4.13793C20.6894 1.85628 18.8332 0 16.5515 0C14.2699 0 12.4136 1.85628 12.4136 4.13793V4.21862C12.4136 5.14138 12.7276 6.04965 13.2979 6.77503L16.5515 10.9167ZM16.5515 1.24138C18.1512 1.24138 19.4481 2.53821 19.4481 4.13793C19.4481 5.73766 18.1512 7.03448 16.5515 7.03448C14.9518 7.03448 13.655 5.73766 13.655 4.13793C13.655 2.53821 14.9518 1.24138 16.5515 1.24138Z" fill="#898B87"/>
</g>
<defs>
<clipPath id="clip0_2385_2999">
<rect width="24" height="24" fill="white"/>
</clipPath>
</defs>
</svg>
