<svg width="24" height="24" viewBox="0 0 24 24" fill="none" xmlns="http://www.w3.org/2000/svg">
<path d="M19.0039 10.0531C18.5806 10.0531 18.166 9.92215 17.83 9.68652C17.4984 9.91778 17.097 10.0531 16.665 10.0531C16.233 10.0531 15.8315 9.91778 15.4999 9.68652C15.1682 9.91778 14.7668 10.0531 14.3348 10.0531C13.9028 10.0531 13.5013 9.91778 13.1697 9.68652C12.838 9.91778 12.4366 10.0531 12.0002 10.0531C11.5682 10.0531 11.1668 9.91778 10.8351 9.68652C10.5035 9.91778 10.1021 10.0531 9.67004 10.0531C9.24678 10.0531 8.83223 9.92215 8.49622 9.68652C8.1646 9.91778 7.76313 10.0531 7.33113 10.0531C6.89914 10.0531 6.49769 9.91778 6.16605 9.68652C5.83441 9.91778 5.43296 10.0531 5.00097 10.0531C4.56894 10.0531 4.1675 9.91778 3.83586 9.68652C3.53477 9.89597 3.18131 10.0269 2.79297 10.0487V19.2909C2.79297 19.7054 3.12458 20.0371 3.53913 20.0371H5.76894V13.6749C5.76894 13.4523 5.95224 13.2734 6.17913 13.2734H10.2111C10.4337 13.2734 10.617 13.4523 10.617 13.6749V20.0371H20.4657C20.8759 20.0371 21.2075 19.7054 21.2075 19.2909V10.0487C20.8235 10.0269 20.47 9.89597 20.1689 9.68652C19.8373 9.91778 19.4359 10.0531 19.0039 10.0531ZM18.0744 15.9003C18.0744 16.1927 17.8388 16.4284 17.5464 16.4284H13.881C13.5886 16.4284 13.3486 16.1927 13.3486 15.9003V13.3171C13.3486 13.0247 13.5886 12.7891 13.881 12.7891H17.5464C17.8388 12.7891 18.0744 13.0247 18.0744 13.3171V15.9003Z" fill="#6D9E3F"/>
<path d="M19.5044 4.25864C19.2862 4.071 19.0025 3.96191 18.7145 3.96191H5.28763C4.99964 3.96191 4.716 4.071 4.49782 4.25864L1.5 6.87245V8.01572C1.5 8.66153 2.01927 9.18081 2.66508 9.18081C3.30655 9.18081 3.83453 8.66153 3.83453 8.01572C3.83453 8.66153 4.35818 9.18081 4.99964 9.18081C5.64545 9.18081 6.16473 8.66153 6.16473 8.01572C6.16473 8.66153 6.68837 9.18081 7.32981 9.18081C7.97999 9.18081 8.49055 8.66153 8.49489 8.02009C8.48227 7.97593 8.491 8.00648 8.50363 8.05064C8.50363 8.61274 8.97984 9.18081 9.66871 9.18081C10.3102 9.18081 10.8338 8.66153 10.8338 8.01572C10.8338 8.66153 11.3531 9.18081 11.9989 9.18081C12.6403 9.18081 13.1684 8.66153 13.1684 8.01572C13.1684 8.66153 13.692 9.18081 14.3334 9.18081C14.9793 9.18081 15.4985 8.66153 15.4985 8.01572C15.4985 8.66153 16.0222 9.18081 16.6636 9.18081C17.3138 9.18081 17.8243 8.66153 17.8287 8.02009C17.8287 8.02446 17.8331 8.03317 17.8375 8.05064V8.06372V8.06808C17.8548 8.65716 18.3452 9.18081 19.0025 9.18081C19.644 9.18081 20.1676 8.66153 20.1676 8.01572C20.1676 8.66153 20.6869 9.18081 21.3327 9.18081C21.9742 9.18081 22.5022 8.66153 22.5022 8.01572V6.87245L19.5044 4.25864Z" fill="#6D9E3F"/>
<path d="M9.68917 17.3783C9.90582 17.3783 10.0815 17.2027 10.0815 16.986C10.0815 16.7694 9.90582 16.5938 9.68917 16.5938C9.47251 16.5938 9.29688 16.7694 9.29688 16.986C9.29688 17.2027 9.47251 17.3783 9.68917 17.3783Z" fill="#6D9E3F"/>
</svg>
