<svg width="24" height="24" viewBox="0 0 24 24" fill="none" xmlns="http://www.w3.org/2000/svg">
<path d="M19.0014 10.0538C18.5782 10.0538 18.1636 9.92294 17.8276 9.68732C17.496 9.91858 17.0945 10.0538 16.6625 10.0538C16.2305 10.0538 15.829 9.91858 15.4974 9.68732C15.1658 9.91858 14.7643 10.0538 14.3323 10.0538C13.9003 10.0538 13.4989 9.91858 13.1672 9.68732C12.8356 9.91858 12.4342 10.0538 11.9978 10.0538C11.5658 10.0538 11.1643 9.91858 10.8327 9.68732C10.5011 9.91858 10.0996 10.0538 9.66759 10.0538C9.24433 10.0538 8.82978 9.92294 8.49378 9.68732C8.16216 9.91858 7.76069 10.0538 7.32869 10.0538C6.8967 10.0538 6.49525 9.91858 6.16361 9.68732C5.83197 9.91858 5.43052 10.0538 4.99853 10.0538C4.5665 10.0538 4.16506 9.91858 3.83342 9.68732C3.53232 9.89676 3.17887 10.0277 2.79053 10.0495V19.2917C2.79053 19.7062 3.12214 20.0379 3.53669 20.0379H5.7665V13.6757C5.7665 13.4531 5.9498 13.2742 6.17669 13.2742H10.2087C10.4312 13.2742 10.6145 13.4531 10.6145 13.6757V20.0379H20.4633C20.8734 20.0379 21.205 19.7062 21.205 19.2917V10.0495C20.821 10.0277 20.4676 9.89676 20.1665 9.68732C19.8349 9.91858 19.4334 10.0538 19.0014 10.0538ZM18.072 15.9011C18.072 16.1935 17.8363 16.4291 17.544 16.4291H13.8785C13.5862 16.4291 13.3462 16.1935 13.3462 15.9011V13.3179C13.3462 13.0255 13.5862 12.7899 13.8785 12.7899H17.544C17.8363 12.7899 18.072 13.0255 18.072 13.3179V15.9011Z" fill="#898B87"/>
<path d="M19.5034 4.25894C19.2852 4.07131 19.0016 3.96222 18.7136 3.96222H5.28666C4.99867 3.96222 4.71502 4.07131 4.49684 4.25894L1.49902 6.87276V8.01603C1.49902 8.66184 2.0183 9.18111 2.66411 9.18111C3.30557 9.18111 3.83356 8.66184 3.83356 8.01603C3.83356 8.66184 4.3572 9.18111 4.99867 9.18111C5.64448 9.18111 6.16375 8.66184 6.16375 8.01603C6.16375 8.66184 6.68739 9.18111 7.32883 9.18111C7.97901 9.18111 8.48958 8.66184 8.49392 8.0204C8.48129 7.97624 8.49003 8.00679 8.50265 8.05094C8.50265 8.61304 8.97886 9.18111 9.66774 9.18111C10.3092 9.18111 10.8328 8.66184 10.8328 8.01603C10.8328 8.66184 11.3521 9.18111 11.9979 9.18111C12.6394 9.18111 13.1674 8.66184 13.1674 8.01603C13.1674 8.66184 13.691 9.18111 14.3325 9.18111C14.9783 9.18111 15.4976 8.66184 15.4976 8.01603C15.4976 8.66184 16.0212 9.18111 16.6627 9.18111C17.3128 9.18111 17.8234 8.66184 17.8277 8.0204C17.8277 8.02476 17.8321 8.03347 17.8365 8.05094V8.06402V8.06839C17.8538 8.65747 18.3443 9.18111 19.0016 9.18111C19.643 9.18111 20.1666 8.66184 20.1666 8.01603C20.1666 8.66184 20.6859 9.18111 21.3318 9.18111C21.9732 9.18111 22.5012 8.66184 22.5012 8.01603V6.87276L19.5034 4.25894Z" fill="#898B87"/>
<path d="M9.68917 17.3782C9.90582 17.3782 10.0815 17.2026 10.0815 16.9859C10.0815 16.7693 9.90582 16.5936 9.68917 16.5936C9.47251 16.5936 9.29688 16.7693 9.29688 16.9859C9.29688 17.2026 9.47251 17.3782 9.68917 17.3782Z" fill="#898B87"/>
</svg>
