<svg width="24" height="24" viewBox="0 0 24 24" fill="none" xmlns="http://www.w3.org/2000/svg">
<path d="M19.0014 10.054C18.5782 10.054 18.1636 9.92313 17.8276 9.6875C17.496 9.91876 17.0945 10.054 16.6625 10.054C16.2305 10.054 15.829 9.91876 15.4974 9.6875C15.1658 9.91876 14.7643 10.054 14.3323 10.054C13.9003 10.054 13.4989 9.91876 13.1672 9.6875C12.8356 9.91876 12.4342 10.054 11.9978 10.054C11.5658 10.054 11.1643 9.91876 10.8327 9.6875C10.5011 9.91876 10.0996 10.054 9.66759 10.054C9.24433 10.054 8.82978 9.92313 8.49378 9.6875C8.16216 9.91876 7.76069 10.054 7.32869 10.054C6.8967 10.054 6.49525 9.91876 6.16361 9.6875C5.83197 9.91876 5.43052 10.054 4.99853 10.054C4.5665 10.054 4.16506 9.91876 3.83342 9.6875C3.53232 9.89695 3.17887 10.0279 2.79053 10.0497V19.2919C2.79053 19.7064 3.12214 20.038 3.53669 20.038H5.7665V13.6759C5.7665 13.4533 5.9498 13.2744 6.17669 13.2744H10.2087C10.4312 13.2744 10.6145 13.4533 10.6145 13.6759V20.038H20.4633C20.8734 20.038 21.205 19.7064 21.205 19.2919V10.0497C20.821 10.0279 20.4676 9.89695 20.1665 9.6875C19.8349 9.91876 19.4334 10.054 19.0014 10.054ZM18.072 15.9013C18.072 16.1937 17.8363 16.4293 17.544 16.4293H13.8785C13.5862 16.4293 13.3462 16.1937 13.3462 15.9013V13.3181C13.3462 13.0257 13.5862 12.79 13.8785 12.79H17.544C17.8363 12.79 18.072 13.0257 18.072 13.3181V15.9013Z" fill="white"/>
<path d="M19.5034 4.25913C19.2852 4.07149 19.0016 3.9624 18.7136 3.9624H5.28666C4.99867 3.9624 4.71502 4.07149 4.49684 4.25913L1.49902 6.87294V8.01621C1.49902 8.66202 2.0183 9.18129 2.66411 9.18129C3.30557 9.18129 3.83356 8.66202 3.83356 8.01621C3.83356 8.66202 4.3572 9.18129 4.99867 9.18129C5.64448 9.18129 6.16375 8.66202 6.16375 8.01621C6.16375 8.66202 6.68739 9.18129 7.32883 9.18129C7.97901 9.18129 8.48958 8.66202 8.49392 8.02058C8.48129 7.97642 8.49003 8.00697 8.50265 8.05113C8.50265 8.61323 8.97886 9.18129 9.66774 9.18129C10.3092 9.18129 10.8328 8.66202 10.8328 8.01621C10.8328 8.66202 11.3521 9.18129 11.9979 9.18129C12.6394 9.18129 13.1674 8.66202 13.1674 8.01621C13.1674 8.66202 13.691 9.18129 14.3325 9.18129C14.9783 9.18129 15.4976 8.66202 15.4976 8.01621C15.4976 8.66202 16.0212 9.18129 16.6627 9.18129C17.3128 9.18129 17.8234 8.66202 17.8277 8.02058C17.8277 8.02495 17.8321 8.03366 17.8365 8.05113V8.0642V8.06857C17.8538 8.65765 18.3443 9.18129 19.0016 9.18129C19.643 9.18129 20.1666 8.66202 20.1666 8.01621C20.1666 8.66202 20.6859 9.18129 21.3318 9.18129C21.9732 9.18129 22.5012 8.66202 22.5012 8.01621V6.87294L19.5034 4.25913Z" fill="white"/>
<path d="M9.68917 17.3783C9.90582 17.3783 10.0815 17.2027 10.0815 16.986C10.0815 16.7694 9.90582 16.5938 9.68917 16.5938C9.47251 16.5938 9.29688 16.7694 9.29688 16.986C9.29688 17.2027 9.47251 17.3783 9.68917 17.3783Z" fill="white"/>
</svg>
