<svg width="24" height="24" viewBox="0 0 24 24" fill="none" xmlns="http://www.w3.org/2000/svg">
<path d="M10.8676 17.6697L8.74507 19.7845C7.86763 20.662 6.43501 20.662 5.55757 19.7845L3.43501 17.662C2.56489 16.7922 2.56489 15.3596 3.43501 14.4822L5.55757 12.3596L10.8676 17.6697ZM20.9399 11.8271L11.3924 2.28699C11.2276 2.1145 10.9874 2.0321 10.7548 2.06946C10.515 2.10718 10.3125 2.24963 10.2 2.45947L5.90254 10.582L12.6599 17.3397L20.7597 13.0195C20.9699 12.9148 21.1128 12.7046 21.1501 12.472C21.1875 12.2322 21.1047 11.9996 20.9399 11.8271ZM4.49995 20.8422L2.37739 18.7196C2.07747 18.4197 1.84492 18.0897 1.67244 17.7297C1.29744 18.7797 1.5373 20.0021 2.37739 20.8422C2.94758 21.412 3.69758 21.7273 4.49995 21.7273C4.84492 21.7273 5.18257 21.6672 5.49751 21.5548C5.12984 21.382 4.79256 21.1421 4.49995 20.8422ZM13.2524 20.0471L11.9326 18.7273L9.80232 20.8495C9.62251 21.0297 9.42732 21.1871 9.21748 21.3223L10.5974 22.7021C10.95 23.0548 11.4224 23.2496 11.9249 23.2496C12.4273 23.2496 12.9001 23.0548 13.2524 22.7021C13.9797 21.9672 13.9797 20.7821 13.2524 20.0471ZM15.75 3V1.5C15.75 1.08582 15.4145 0.75 15 0.75C14.5854 0.75 14.25 1.08582 14.25 1.5V3C14.25 3.41418 14.5854 3.75 15 3.75C15.4145 3.75 15.75 3.41418 15.75 3ZM22.5 8.24963C22.5 7.83545 22.1645 7.49963 21.75 7.49963H20.25C19.8354 7.49963 19.5 7.83545 19.5 8.24963C19.5 8.66382 19.8354 8.99963 20.25 8.99963H21.75C22.1645 8.99963 22.5 8.66382 22.5 8.24963ZM18.5302 5.77991L20.0302 4.27991C20.3232 3.98694 20.3232 3.51233 20.0302 3.21936C19.7373 2.92639 19.2627 2.92639 18.9697 3.21936L17.4697 4.71936C17.1767 5.01233 17.1767 5.48694 17.4697 5.77991C17.6162 5.92639 17.8081 5.99963 18 5.99963C18.1919 5.99963 18.3837 5.92639 18.5302 5.77991Z" fill="#898B87"/>
</svg>
