<svg width="8" height="8" viewBox="0 0 8 8" fill="none" xmlns="http://www.w3.org/2000/svg">
<path d="M7.91172 2.41014L7.91047 2.39811C7.87001 2.00907 7.69699 1.64578 7.42043 1.36919C7.14387 1.09261 6.7806 0.919545 6.39156 0.879048C5.82141 0.819673 4.88188 0.789673 4 0.789673C3.11812 0.789673 2.17859 0.819673 1.60844 0.879048C1.2194 0.919545 0.856133 1.09261 0.579572 1.36919C0.303012 1.64578 0.129988 2.00907 0.0895313 2.39811L0.0882813 2.40998C0.0389063 2.88327 0 2.9592 0 3.95748C0 4.95576 0.0389063 5.1167 0.0882813 5.58998L0.0895313 5.60186C0.129938 5.9909 0.302948 6.3542 0.579522 6.63077C0.856096 6.90735 1.2194 7.08036 1.60844 7.12076C2.17859 7.18014 3.11812 7.21029 4 7.21029C4.88188 7.21029 5.82141 7.18029 6.39141 7.12076C6.78048 7.08039 7.14381 6.90739 7.42042 6.63082C7.69702 6.35424 7.87006 5.99092 7.91047 5.60186L7.91172 5.58983C7.96109 5.11655 8 4.95545 8 3.95748C8 2.95952 7.96109 2.88342 7.91172 2.41014ZM2.22 2.12389C2.39968 2.12374 2.57537 2.17688 2.72484 2.27659C2.87432 2.37631 2.99085 2.51812 3.05971 2.68408C3.12858 2.85004 3.14666 3.0327 3.11169 3.20895C3.07672 3.38519 2.99026 3.5471 2.86325 3.6742C2.73624 3.8013 2.57439 3.88787 2.39817 3.92296C2.22195 3.95805 2.03928 3.94009 1.87327 3.87134C1.70726 3.8026 1.56537 3.68616 1.46555 3.53675C1.36573 3.38735 1.31247 3.2117 1.3125 3.03202C1.3125 2.79127 1.40809 2.56038 1.57826 2.3901C1.74843 2.21981 1.97926 2.12406 2.22 2.12389ZM3.73563 5.2242V5.22811C3.72029 5.36192 3.66416 5.48777 3.57484 5.58858C3.48704 5.69123 3.36855 5.76294 3.23688 5.79311C3.04938 5.83545 2.58234 5.87717 2.29063 5.87529C1.99906 5.88248 1.42625 5.83717 1.23891 5.79264C1.10721 5.76253 0.988702 5.69081 0.900937 5.58811C0.811653 5.48734 0.755521 5.36155 0.740156 5.22779V5.22373C0.730445 5.12729 0.727469 5.03028 0.73125 4.93342C0.72746 4.8531 0.730439 4.77261 0.740156 4.6928V4.68889C0.7538 4.56152 0.810781 4.4427 0.901563 4.35233C0.992802 4.26103 1.11236 4.20346 1.24063 4.18905C1.42813 4.1692 2 4.1578 2.29047 4.1578C2.58094 4.1578 3.04734 4.16858 3.23516 4.18905C3.36345 4.20345 3.48303 4.26109 3.57422 4.35248C3.66454 4.44304 3.72107 4.56184 3.73438 4.68905V4.69295C3.74373 4.77271 3.74843 4.85295 3.74844 4.93326C3.74918 5.03041 3.7448 5.12752 3.73531 5.2242H3.73563ZM5.76562 4.94733H4.70203C4.65636 4.94733 4.61113 4.93833 4.56893 4.92085C4.52673 4.90337 4.48839 4.87775 4.45609 4.84545C4.42379 4.81316 4.39817 4.77481 4.38069 4.73262C4.36321 4.69042 4.35422 4.64519 4.35422 4.59951C4.35422 4.55384 4.36321 4.50861 4.38069 4.46641C4.39817 4.42421 4.42379 4.38587 4.45609 4.35357C4.48839 4.32128 4.52673 4.29566 4.56893 4.27818C4.61113 4.2607 4.65636 4.2517 4.70203 4.2517H5.76562C5.85787 4.2517 5.94634 4.28835 6.01157 4.35357C6.07679 4.4188 6.11344 4.50727 6.11344 4.59951C6.11344 4.69176 6.07679 4.78023 6.01157 4.84545C5.94634 4.91068 5.85787 4.94733 5.76562 4.94733ZM6.81812 3.74827H4.70203C4.61104 3.74634 4.52443 3.70884 4.46076 3.6438C4.39709 3.57877 4.36144 3.49138 4.36144 3.40037C4.36144 3.30936 4.39709 3.22198 4.46076 3.15694C4.52443 3.09191 4.61104 3.05441 4.70203 3.05248H6.81797C6.90896 3.05441 6.99557 3.09191 7.05924 3.15694C7.12291 3.22198 7.15856 3.30936 7.15856 3.40037C7.15856 3.49138 7.12291 3.57877 7.05924 3.6438C6.99557 3.70884 6.90896 3.74634 6.81797 3.74827H6.81812Z" fill="white"/>
</svg>
