<svg width="1170" height="200" viewBox="0 0 1170 200" fill="none" xmlns="http://www.w3.org/2000/svg">
<g opacity="0.9">
<rect x="0.00195312" width="1169.73" height="200" fill="#6D9E3F"/>
<g opacity="0.7">
<path opacity="0.3" d="M50.8151 46.3248C74.8336 46.1332 99.4121 45.9629 122.209 48.3647C176.744 54.1082 209.915 73.2297 265.435 77.9409C302.549 81.0911 344.145 77.1923 379.265 82.1306C408.627 86.26 430.069 95.7888 461.369 98.2614C513.125 102.348 544.593 83.7554 579.321 75.3298C595.901 71.3069 618.575 70.8421 638.74 72.5627C663.98 74.7161 687.83 79.2251 714.448 79.6011C749.96 80.1013 754.9 68.9797 782.772 65.0064C804.562 61.8987 830.227 63.8889 853.495 62.1648C892.961 59.2415 915.535 47.2188 944.157 39.2438C1011.03 20.6154 1112.19 32.4928 1154.92 54.0266C1169.72 61.4836 1168.99 65.503 1168.99 73.886C1168.99 90.1481 1168.99 106.41 1168.99 122.672L-5.16068e-05 126V46.7328C16.9271 46.598 33.8767 46.4631 50.8151 46.3248Z" fill="#006D33"/>
<path opacity="0.7" d="M288.73 134.397H18.4112C13.7145 134.397 4.69677 134.117 7.17043e-05 134.117V108.472C134.666 91.4358 282.835 95.3025 411.818 119.221C368.879 123.495 331.681 130.128 288.73 134.397Z" fill="#006D33"/>
<path d="M0.554823 200C-0.49597 197.466 0.268569 162.309 0.268569 159.293C0.268569 150.749 0.268569 144.717 0.268569 136.675C65.2076 134.425 129.681 127.501 193.79 122.99C258.818 118.411 316.014 109.481 381.827 108.003C444.742 106.587 511.904 120.796 574.034 123.227C622.735 125.132 668.406 115.692 715.316 111.397C764.88 106.86 795.264 106.159 845.15 109.244C887.557 111.866 948.647 123.654 992.017 122.995C1051.71 122.083 1109.74 107.841 1168.09 103C1170 118.501 1167.5 192.005 1169 199.505" fill="#006D33"/>
<path d="M814.017 167.679C743.105 143.761 654.998 131.65 583.107 125.544C407.893 110.659 226.809 114.361 47.2746 114.524C14.2922 114.553 -0.000216668 114 -0.000216668 114V166.985L814.017 167.679Z" fill="#006D33"/>
</g>
</g>
</svg>
