<svg width="18" height="24" viewBox="0 0 18 24" fill="none" xmlns="http://www.w3.org/2000/svg">
<path d="M8.96112 0.75293C7.97861 0.854552 7.22558 1.05289 6.67448 1.55859C6.14879 2.04099 5.87121 2.75646 5.71573 3.7522C5.75386 3.72654 5.79182 3.70107 5.83292 3.67896C6.04732 3.56373 6.30874 3.48149 6.62248 3.41016C7.24996 3.2675 8.08075 3.18311 8.99994 3.18311C9.91912 3.18311 10.7499 3.2675 11.3774 3.41016C11.6911 3.48149 11.9525 3.56373 12.167 3.67896C12.2081 3.70107 12.246 3.72654 12.2841 3.7522C12.1287 2.75646 11.8511 2.04099 11.3254 1.55859C10.7743 1.05289 10.0213 0.854552 9.03875 0.75293C9.02586 0.751385 9.0127 0.750276 8.99994 0.75C8.98717 0.750276 8.97401 0.751385 8.96112 0.75293ZM8.99994 3.93384C8.12682 3.93384 7.33508 4.01676 6.78801 4.14111C6.52848 4.20007 6.31983 4.27278 6.20206 4.33228C6.25266 4.35212 6.29633 4.36682 6.36759 4.38794C6.64176 4.46901 7.03876 4.54588 7.4362 4.60913C8.21465 4.733 8.96775 4.80246 8.99994 4.80542C9.03212 4.80246 9.78523 4.733 10.5637 4.60913C10.9611 4.54588 11.3581 4.46901 11.6323 4.38794C11.7035 4.36682 11.7472 4.35212 11.7978 4.33228C11.68 4.27278 11.4714 4.20007 11.2119 4.14111C10.6648 4.01676 9.87306 3.93384 8.99994 3.93384ZM5.57657 4.83545C4.9873 4.93475 4.56802 5.4963 4.56802 6.12891C4.568 6.82549 5.07141 7.45165 5.75602 7.45166C5.79357 7.45166 5.83035 7.44566 5.86734 7.44141C6.09461 8.0459 6.4943 8.56337 7.00187 8.94434L7.00261 9.59619L8.99994 11.1445L10.9973 9.59619L10.998 8.94434C11.5056 8.56336 11.9053 8.04589 12.1325 7.44141C12.1695 7.44566 12.2063 7.45165 12.2439 7.45165C12.9285 7.45164 13.4319 6.82548 13.4319 6.1289C13.4319 5.49629 13.0126 4.93474 12.4233 4.83544C12.3762 4.87518 12.3293 4.90838 12.2915 4.92993C12.1579 5.00584 11.9952 5.06295 11.8454 5.10717C11.5404 5.1973 11.0969 5.28517 10.6831 5.35107C9.85532 5.48274 9.0329 5.55615 9.0329 5.55615C9.02241 5.55615 9.01096 5.55608 8.99994 5.55615C8.98891 5.55608 8.97747 5.55615 8.96698 5.55615C8.96698 5.55615 8.14456 5.48274 7.31682 5.35107C6.90297 5.28517 6.45944 5.1973 6.15446 5.10718C6.00467 5.06296 5.84196 5.00584 5.70841 4.92993C5.67057 4.90839 5.62367 4.87519 5.57657 4.83545ZM6.33683 10.0276L5.57584 10.407L7.5468 11.9312L8.30779 11.5518L6.33683 10.0276ZM11.663 10.0276L9.69208 11.5518L10.4531 11.9312L12.424 10.407L11.663 10.0276ZM4.90933 10.8274C3.13059 11.5185 1.87561 13.2404 1.87561 15.2695V15.8796C2.05964 15.7977 2.26227 15.75 2.47694 15.75H4.23403L5.57071 13.8501C5.70805 13.6328 5.94719 13.5009 6.20426 13.5007H11.7956C12.0527 13.5009 12.2918 13.6328 12.4292 13.8501L13.7658 15.75H15.5229C15.7376 15.75 15.9402 15.7977 16.1243 15.8796V15.2695C16.1243 13.2404 14.8693 11.5186 13.0905 10.8274C12.3046 11.4388 11.5124 12.045 10.7358 12.6672C10.6215 12.7602 10.4633 12.7777 10.3315 12.7119L8.99994 12.0454L7.66838 12.7119C7.53657 12.7777 7.37836 12.7602 7.26408 12.6672C6.48751 12.045 5.69528 11.4388 4.90933 10.8274ZM4.60024 16.5H2.61976C2.21157 16.5 1.87561 16.8433 1.87561 17.25V20.0259C2.01352 20.0914 2.14419 20.1785 2.25721 20.2954C2.36167 20.2686 2.4693 20.25 2.58241 20.25C2.7833 20.25 2.9724 20.2943 3.14418 20.3782C3.31596 20.2943 3.50507 20.25 3.70595 20.25C3.90684 20.25 4.09521 20.2943 4.26699 20.3782C4.43877 20.2943 4.62788 20.25 4.82876 20.25C5.03017 20.25 5.2203 20.2946 5.39273 20.3789C5.56474 20.2947 5.75473 20.25 5.95597 20.25C6.6877 20.25 7.26775 20.8483 7.26775 21.5625V22.5C8.47252 22.5018 9.61651 22.487 10.7321 22.5V21.5625C10.7321 20.8483 11.3122 20.25 12.0439 20.25C12.2451 20.25 12.4351 20.2949 12.6071 20.3789C12.7796 20.2946 12.9697 20.25 13.1711 20.25C13.372 20.25 13.5611 20.2943 13.7329 20.3782C13.9047 20.2943 14.093 20.25 14.2939 20.25C14.4948 20.25 14.6839 20.2943 14.8557 20.3782C15.0275 20.2943 15.2166 20.25 15.4175 20.25C15.5306 20.25 15.6382 20.2686 15.7427 20.2954C15.8556 20.1785 15.9864 20.0913 16.1243 20.0259V17.25C16.1243 16.8433 15.7883 16.5 15.3801 16.5H13.3996L11.7956 14.2507C9.93196 14.2507 8.06791 14.2507 6.20426 14.2507L4.60024 16.5ZM7.87493 15H10.1249C10.6251 15 10.6251 15.75 10.1249 15.75H7.87493C7.37481 15.75 7.37481 15 7.87493 15ZM1.32629 20.6448C1.18251 20.6419 1.03766 20.6925 0.924924 20.8C0.699454 21.0152 0.690715 21.37 0.905881 21.5955L1.94227 22.6809C1.96792 22.7078 1.99583 22.7313 2.02503 22.752C2.0572 23.0325 2.29145 23.25 2.58094 23.25C2.89256 23.25 3.14345 22.9991 3.14345 22.6875C3.14345 22.9991 3.39434 23.25 3.70595 23.25C4.01758 23.25 4.26846 22.9991 4.26846 22.6875C4.26846 22.9991 4.51861 23.25 4.83023 23.25C5.14186 23.25 5.39273 22.9991 5.39273 22.6875C5.39273 22.9991 5.64361 23.25 5.95524 23.25C6.26685 23.25 6.51774 22.9991 6.51774 22.6875V21.5625C6.51774 21.2509 6.26685 21 5.95524 21C5.64361 21 5.39273 21.2509 5.39273 21.5625C5.39273 21.2509 5.14186 21 4.83023 21C4.51861 21 4.26846 21.2509 4.26846 21.5625C4.26846 21.2509 4.01758 21 3.70595 21C3.39434 21 3.14345 21.2509 3.14345 21.5625C3.14345 21.2509 2.89256 21 2.58094 21C2.38994 21 2.22254 21.0948 2.12098 21.2395L1.72034 20.8191C1.61276 20.7064 1.47008 20.6482 1.32629 20.6448ZM16.2795 20.8191L15.8789 21.2395C15.7773 21.0948 15.6099 21 15.4189 21C15.1073 21 14.8564 21.2509 14.8564 21.5625C14.8564 21.2509 14.6056 21 14.2939 21C13.9823 21 13.7322 21.2509 13.7322 21.5625C13.7322 21.2509 13.4813 21 13.1696 21C12.858 21 12.6071 21.2509 12.6071 21.5625C12.6071 21.2509 12.3563 21 12.0446 21C11.733 21 11.4821 21.2509 11.4821 21.5625V22.6875C11.4821 22.9991 11.733 23.25 12.0446 23.25C12.3563 23.25 12.6071 22.9991 12.6071 22.6875C12.6071 22.9991 12.858 23.25 13.1696 23.25C13.4813 23.25 13.7322 22.9991 13.7322 22.6875C13.7322 22.9991 13.9823 23.25 14.2939 23.25C14.6056 23.25 14.8564 22.9991 14.8564 22.6875C14.8564 22.9991 15.1073 23.25 15.4189 23.25C15.7084 23.25 15.9426 23.0325 15.9748 22.752C16.004 22.7313 16.032 22.7078 16.0576 22.6809L17.094 21.5955C17.3091 21.37 17.3004 21.0152 17.075 20.8C16.9623 20.6925 16.8174 20.6414 16.6736 20.6448C16.5298 20.6476 16.3871 20.7063 16.2795 20.8191Z" fill="white"/>
</svg>
