<svg width="24" height="24" viewBox="0 0 24 24" fill="none" xmlns="http://www.w3.org/2000/svg">
<g clip-path="url(#clip0_2385_2930)">
<path d="M9.83242 4.37705L9.56163 5.95636C9.51639 6.22017 9.62481 6.48675 9.84133 6.64406C9.96382 6.73303 10.1089 6.77831 10.2547 6.77831C10.3666 6.77831 10.479 6.75164 10.5818 6.6975L12 5.95191L13.4184 6.69759C13.5212 6.75164 13.6336 6.77836 13.7456 6.77836H13.7475C14.1354 6.77784 14.4497 6.46322 14.4497 6.07523C14.4497 6.02128 14.4436 5.96864 14.432 5.91811L14.1676 4.377L15.315 3.25861C15.5067 3.07181 15.5756 2.79239 15.4929 2.53786C15.4102 2.28328 15.1902 2.09775 14.9253 2.05931L13.3398 1.82887L12.6305 0.391875C12.5121 0.151922 12.2676 0 11.9999 0C11.7323 0 11.4879 0.151969 11.3695 0.391969L10.6604 1.82883L9.07464 2.05927C8.80984 2.0977 8.58977 2.28323 8.50712 2.53781C8.42434 2.79234 8.49339 3.07177 8.68502 3.25856L9.83242 4.37705Z" fill="#898B87"/>
<path d="M22.6828 17.3435C21.7273 18.1449 20.4964 18.6282 19.1547 18.6282C18.7075 18.6282 18.2726 18.5742 17.8561 18.4729C18.1115 19.1542 18.2516 19.8915 18.2516 20.661V21.4141C18.2516 22.3999 17.8917 23.3028 17.2974 24H21.4141C22.8401 24 24.0001 22.84 24.0001 21.4141V20.661C24.0001 19.3786 23.4991 18.2111 22.6828 17.3435Z" fill="#898B87"/>
<path d="M11.9999 17.2218C14.2563 17.2218 16.092 15.3861 16.092 13.1297C16.092 10.8732 14.2563 9.03748 11.9999 9.03748C9.74348 9.03748 7.90771 10.8732 7.90771 13.1297C7.90771 15.3861 9.74353 17.2218 11.9999 17.2218Z" fill="#898B87"/>
<path d="M19.1549 17.2218C21.4114 17.2218 23.2471 15.3861 23.2471 13.1297C23.2471 10.8732 21.4114 9.03748 19.1549 9.03748C18.1519 9.03748 17.2321 9.40048 16.5195 10.0017C17.1364 10.8903 17.4986 11.9684 17.4986 13.1296C17.4986 14.2909 17.1364 15.369 16.5195 16.2576C17.2321 16.8589 18.1518 17.2218 19.1549 17.2218Z" fill="#898B87"/>
<path d="M4.84507 17.2219C5.8482 17.2219 6.76793 16.8589 7.48048 16.2577C6.86356 15.3691 6.50136 14.291 6.50136 13.1297C6.50136 11.9685 6.86356 10.8904 7.48048 10.0018C6.76798 9.4006 5.84825 9.0376 4.84507 9.0376C2.58865 9.0376 0.75293 10.8733 0.75293 13.1298C0.75293 15.3863 2.5887 17.2219 4.84507 17.2219Z" fill="#898B87"/>
<path d="M12.0001 18.6282C10.6584 18.6282 9.42757 18.1448 8.47207 17.3435C7.65579 18.2111 7.15479 19.3786 7.15479 20.661V21.4141C7.15479 22.84 8.31485 24 9.74069 24H14.2594C15.6854 24 16.8453 22.84 16.8453 21.4141V20.661C16.8453 19.3786 16.3443 18.2111 15.5281 17.3435C14.5726 18.1449 13.3418 18.6282 12.0001 18.6282Z" fill="#898B87"/>
<path d="M5.74842 20.661C5.74842 19.8915 5.88853 19.1542 6.14395 18.4729C5.72738 18.5741 5.29256 18.6282 4.84523 18.6282C3.50353 18.6282 2.27278 18.1448 1.31723 17.3435C0.501 18.2111 0 19.3785 0 20.661V21.4141C0 22.84 1.16002 24 2.58591 24H6.70275C6.10838 23.3028 5.74842 22.3999 5.74842 21.4141V20.661Z" fill="#898B87"/>
</g>
<defs>
<clipPath id="clip0_2385_2930">
<rect width="24" height="24" fill="white"/>
</clipPath>
</defs>
</svg>
