<svg width="8" height="8" viewBox="0 0 8 8" fill="none" xmlns="http://www.w3.org/2000/svg">
<g clip-path="url(#clip0_1070_19458)">
<path d="M3.27747 1.45902L3.18721 1.98545C3.17213 2.07339 3.20827 2.16225 3.28044 2.21469C3.32127 2.24434 3.36963 2.25944 3.41822 2.25944C3.45554 2.25944 3.49299 2.25055 3.52727 2.2325L4.00001 1.98397L4.4728 2.23253C4.50707 2.25055 4.54452 2.25945 4.58185 2.25945H4.58249C4.71179 2.25928 4.81657 2.15441 4.81657 2.02508C4.81657 2.00709 4.81452 1.98955 4.81068 1.9727L4.72254 1.459L5.10501 1.0862C5.16888 1.02394 5.19187 0.930797 5.16431 0.845953C5.13674 0.761094 5.06338 0.69925 4.9751 0.686437L4.4466 0.609625L4.21018 0.130625C4.17069 0.0506406 4.08921 0 3.99998 0C3.91077 0 3.82929 0.0506563 3.78983 0.130656L3.55347 0.609609L3.02488 0.686422C2.93661 0.699234 2.86326 0.761078 2.83571 0.845937C2.80811 0.930781 2.83113 1.02392 2.89501 1.08619L3.27747 1.45902Z" fill="white"/>
<path d="M7.5609 5.78125C7.24239 6.04838 6.83211 6.20947 6.38487 6.20947C6.23579 6.20947 6.09084 6.19147 5.95198 6.1577C6.03712 6.38481 6.08383 6.63058 6.08383 6.88708V7.13811C6.08383 7.46672 5.96386 7.76767 5.76575 8.00008H7.138C7.61331 8.00008 8 7.61341 8 7.13811V6.88708C8 6.45961 7.833 6.07045 7.5609 5.78125Z" fill="white"/>
<path d="M3.99994 5.74082C4.75207 5.74082 5.36397 5.12891 5.36397 4.37676C5.36397 3.6246 4.75207 3.0127 3.99994 3.0127C3.24779 3.0127 2.63586 3.6246 2.63586 4.37676C2.63586 5.12891 3.2478 5.74082 3.99994 5.74082Z" fill="white"/>
<path d="M6.38492 5.74082C7.13709 5.74082 7.749 5.12891 7.749 4.37676C7.749 3.6246 7.13709 3.0127 6.38492 3.0127C6.05058 3.0127 5.74399 3.1337 5.50647 3.3341C5.71209 3.63029 5.83283 3.98966 5.83283 4.37674C5.83283 4.76382 5.71209 5.1232 5.50647 5.4194C5.74399 5.61982 6.05056 5.74082 6.38492 5.74082Z" fill="white"/>
<path d="M1.61502 5.7408C1.9494 5.7408 2.25598 5.6198 2.49349 5.4194C2.28785 5.12321 2.16712 4.76384 2.16712 4.37674C2.16712 3.98966 2.28785 3.63029 2.49349 3.3341C2.25599 3.1337 1.94942 3.0127 1.61502 3.0127C0.862883 3.0127 0.250977 3.6246 0.250977 4.37676C0.250977 5.12891 0.862899 5.7408 1.61502 5.7408V5.7408Z" fill="white"/>
<path d="M4 6.20947C3.55276 6.20947 3.14248 6.04836 2.82398 5.78125C2.55189 6.07045 2.38489 6.45961 2.38489 6.88708V7.13811C2.38489 7.61341 2.77158 8.00008 3.24686 8.00008H4.75311C5.22842 8.00008 5.61508 7.61341 5.61508 7.13811V6.88708C5.61508 6.45961 5.44808 6.07044 5.17598 5.78125C4.85748 6.04838 4.44723 6.20947 4 6.20947V6.20947Z" fill="white"/>
<path d="M1.91614 6.88708C1.91614 6.63058 1.96284 6.38481 2.04798 6.1577C1.90912 6.19145 1.76419 6.20947 1.61508 6.20947C1.16784 6.20947 0.757594 6.04836 0.439078 5.78125C0.167 6.07044 0 6.45959 0 6.88708V7.13811C0 7.61341 0.386672 8.00008 0.861969 8.00008H2.23425C2.03613 7.76767 1.91614 7.46672 1.91614 7.13811V6.88708Z" fill="white"/>
</g>
<defs>
<clipPath id="clip0_1070_19458">
<rect width="8" height="8" fill="white"/>
</clipPath>
</defs>
</svg>
