<svg width="24" height="24" viewBox="0 0 24 24" fill="none" xmlns="http://www.w3.org/2000/svg">
<g clip-path="url(#clip0_2683_18866)">
<path d="M13.2858 13.2849C13.5225 13.2849 13.7144 13.093 13.7144 12.8563C13.7144 12.6196 13.5225 12.4277 13.2858 12.4277H10.7145C10.4778 12.4277 10.2859 12.6196 10.2859 12.8563C10.2859 13.093 10.4778 13.2849 10.7145 13.2849H13.2858Z" fill="#898B87"/>
<path d="M11.168 15.3056C11.4574 15.0604 11.8401 14.9547 12.2145 15.0169C12.8427 15.138 13.2938 15.6915 13.2859 16.3312V16.2854H16.7144C16.9511 16.2854 17.143 16.0935 17.143 15.8568V0.428563C17.143 0.191891 16.9511 0 16.7144 0H7.28599C7.04931 0 6.85742 0.191891 6.85742 0.428563V15.8568C6.85742 16.0935 7.04931 16.2854 7.28599 16.2854H10.7145C10.7141 15.9081 10.88 15.5496 11.168 15.3056ZM14.5716 7.28557H11.5716V6.42845H14.5716V7.28557ZM11.5716 5.14276V3.4285H12.4288V5.14276H11.5716ZM13.2859 5.14276V3.4285H14.143V5.14276H13.2859ZM15.0001 3.4285H15.8573V5.14276H15.0001V3.4285ZM11.1431 1.28569H14.5716V2.14282H11.1431V1.28569ZM9.42881 1.28569H10.2859V2.14282H9.42881V1.28569ZM10.7145 3.4285V5.14276H9.85737V3.4285H10.7145ZM9.42881 6.42845H10.7145V7.28557H9.42881V6.42845ZM9.42881 8.1427H14.5716V8.99983H9.42881V8.1427ZM13.7145 9.85695V10.7141H10.2859V9.85695H13.7145ZM9.00024 5.14276H8.14311V3.4285H9.00024V5.14276ZM9.42881 12.8569C9.42881 12.1469 10.0045 11.5712 10.7145 11.5712H13.2859C13.9959 11.5712 14.5716 12.1469 14.5716 12.8569C14.5716 13.5669 13.9959 14.1426 13.2859 14.1426H10.7145C10.0045 14.1426 9.42881 13.5669 9.42881 12.8569Z" fill="#898B87"/>
<path d="M17.2179 19.2926C17.0932 19.2704 16.9649 19.3045 16.8676 19.3861C16.7705 19.4675 16.7144 19.5878 16.7144 19.7146C16.7144 19.9513 16.5225 20.1432 16.2859 20.1432C16.0492 20.1432 15.8573 19.9513 15.8573 19.7146C15.8573 19.478 15.6654 19.2861 15.4287 19.2861C15.1921 19.2861 15.0002 19.478 15.0002 19.7146C15.0002 19.9513 14.8083 20.1432 14.5716 20.1432C14.3349 20.1432 14.1431 19.9513 14.1431 19.7146C14.1431 19.478 13.9512 19.2861 13.7145 19.2861C13.4778 19.2861 13.2859 19.478 13.2859 19.7146C13.2859 19.9513 13.094 20.1432 12.8574 20.1432C12.6207 20.1432 12.4288 19.9513 12.4288 19.7146V16.332C12.437 16.1118 12.2892 15.9164 12.0752 15.864C11.9504 15.8419 11.8222 15.876 11.7249 15.9576C11.6278 16.039 11.5717 16.1593 11.5717 16.2861V22.286C11.5717 22.4404 11.4886 22.583 11.354 22.6589C11.2197 22.7351 11.0548 22.7328 10.9223 22.6533L9.13568 21.5819C9.03984 21.5239 8.92077 21.5195 8.82075 21.5699L8.75253 21.6034C8.64978 21.6551 8.58177 21.757 8.57298 21.8717C8.56419 21.9866 8.61609 22.0975 8.70963 22.1642L11.281 24.0007H17.5716V19.7605C17.5797 19.5403 17.432 19.3449 17.2179 19.2926Z" fill="#898B87"/>
<path d="M0.429052 1.71484C0.192379 1.71484 0.000488281 1.90673 0.000488281 2.14341V14.1432C0.000488281 14.3799 0.192379 14.5718 0.429052 14.5718H5.14325V1.71484H0.429052ZM1.71474 2.57197H2.57187V3.4291H1.71474V2.57197ZM3.429 4.71479V6.00048H2.57187V4.71479H3.429ZM0.857616 4.71479H1.71474V6.00048H0.857616V4.71479ZM4.28613 11.5718H2.57187C2.3352 11.5718 2.14331 11.7637 2.14331 12.0004C2.14331 12.237 2.3352 12.4289 2.57187 12.4289H4.28613V13.2861H2.57187C1.86185 13.2861 1.28618 12.7104 1.28618 12.0004C1.28618 11.2904 1.86185 10.7147 2.57187 10.7147H4.28613V11.5718ZM4.28613 9.85755H3.429V9.00043H4.28613V9.85755ZM4.28613 8.1433H2.57187V7.28617H4.28613V8.1433ZM4.28613 3.4291H3.429V2.57197H4.28613V3.4291Z" fill="#898B87"/>
<path d="M23.5714 1.71484H18.8572V14.5718H23.5714C23.8081 14.5718 24 14.3799 24 14.1432V2.14341C24 1.90673 23.8081 1.71484 23.5714 1.71484ZM19.7143 2.57197H21.8571V3.4291H19.7143V2.57197ZM21.4286 4.71479V6.00048H20.5714V4.71479H21.4286ZM19.7143 7.28617H21V8.1433H19.7143V7.28617ZM19.7143 9.00043H20.5714V9.85755H19.7143V9.00043ZM21.4286 13.2861H19.7143V12.4289H21.4286C21.6652 12.4289 21.8571 12.237 21.8571 12.0004C21.8571 11.7637 21.6652 11.5718 21.4286 11.5718H19.7143V10.7147H21.4286C22.1386 10.7147 22.7143 11.2904 22.7143 12.0004C22.7143 12.7104 22.1386 13.2861 21.4286 13.2861ZM23.1428 6.00048H22.2857V4.71479H23.1428V6.00048Z" fill="#898B87"/>
</g>
<defs>
<clipPath id="clip0_2683_18866">
<rect width="24" height="24" fill="white"/>
</clipPath>
</defs>
</svg>
