<svg width="24" height="24" viewBox="0 0 24 24" fill="none" xmlns="http://www.w3.org/2000/svg">
<g clip-path="url(#clip0_2683_18853)">
<path d="M13.2861 13.2849C13.5228 13.2849 13.7146 13.093 13.7146 12.8563C13.7146 12.6196 13.5228 12.4277 13.2861 12.4277H10.7147C10.478 12.4277 10.2861 12.6196 10.2861 12.8563C10.2861 13.093 10.478 13.2849 10.7147 13.2849H13.2861Z" fill="#6D9E3F"/>
<path d="M11.168 15.3056C11.4574 15.0604 11.8401 14.9547 12.2145 15.0169C12.8427 15.138 13.2938 15.6915 13.2859 16.3312V16.2854H16.7144C16.9511 16.2854 17.143 16.0935 17.143 15.8568V0.428563C17.143 0.191891 16.9511 0 16.7144 0H7.28599C7.04931 0 6.85742 0.191891 6.85742 0.428563V15.8568C6.85742 16.0935 7.04931 16.2854 7.28599 16.2854H10.7145C10.7141 15.9081 10.88 15.5496 11.168 15.3056ZM14.5716 7.28557H11.5716V6.42845H14.5716V7.28557ZM11.5716 5.14276V3.4285H12.4288V5.14276H11.5716ZM13.2859 5.14276V3.4285H14.143V5.14276H13.2859ZM15.0001 3.4285H15.8573V5.14276H15.0001V3.4285ZM11.1431 1.28569H14.5716V2.14282H11.1431V1.28569ZM9.42881 1.28569H10.2859V2.14282H9.42881V1.28569ZM10.7145 3.4285V5.14276H9.85737V3.4285H10.7145ZM9.42881 6.42845H10.7145V7.28557H9.42881V6.42845ZM9.42881 8.1427H14.5716V8.99983H9.42881V8.1427ZM13.7145 9.85695V10.7141H10.2859V9.85695H13.7145ZM9.00024 5.14276H8.14311V3.4285H9.00024V5.14276ZM9.42881 12.8569C9.42881 12.1469 10.0045 11.5712 10.7145 11.5712H13.2859C13.9959 11.5712 14.5716 12.1469 14.5716 12.8569C14.5716 13.5669 13.9959 14.1426 13.2859 14.1426H10.7145C10.0045 14.1426 9.42881 13.5669 9.42881 12.8569Z" fill="#6D9E3F"/>
<path d="M17.2177 19.2926C17.093 19.2704 16.9647 19.3045 16.8674 19.3861C16.7703 19.4675 16.7142 19.5878 16.7142 19.7146C16.7142 19.9513 16.5223 20.1432 16.2856 20.1432C16.049 20.1432 15.8571 19.9513 15.8571 19.7146C15.8571 19.478 15.6652 19.2861 15.4285 19.2861C15.1918 19.2861 14.9999 19.478 14.9999 19.7146C14.9999 19.9513 14.808 20.1432 14.5714 20.1432C14.3347 20.1432 14.1428 19.9513 14.1428 19.7146C14.1428 19.478 13.9509 19.2861 13.7142 19.2861C13.4776 19.2861 13.2857 19.478 13.2857 19.7146C13.2857 19.9513 13.0938 20.1432 12.8571 20.1432C12.6204 20.1432 12.4286 19.9513 12.4286 19.7146V16.332C12.4367 16.1118 12.289 15.9164 12.0749 15.864C11.9502 15.8419 11.8219 15.876 11.7246 15.9576C11.6275 16.039 11.5714 16.1593 11.5714 16.2861V22.286C11.5714 22.4404 11.4884 22.583 11.3538 22.6589C11.2195 22.7351 11.0546 22.7328 10.9221 22.6533L9.13544 21.5819C9.0396 21.5239 8.92053 21.5195 8.8205 21.5699L8.75228 21.6034C8.64954 21.6551 8.58153 21.757 8.57274 21.8717C8.56395 21.9866 8.61585 22.0975 8.70939 22.1642L11.2808 24.0007H17.5713V19.7605C17.5795 19.5403 17.4317 19.3449 17.2177 19.2926Z" fill="#6D9E3F"/>
<path d="M0.429052 1.71484C0.192379 1.71484 0.000488281 1.90673 0.000488281 2.14341V14.1432C0.000488281 14.3799 0.192379 14.5718 0.429052 14.5718H5.14325V1.71484H0.429052ZM1.71474 2.57197H2.57187V3.4291H1.71474V2.57197ZM3.429 4.71479V6.00048H2.57187V4.71479H3.429ZM0.857616 4.71479H1.71474V6.00048H0.857616V4.71479ZM4.28613 11.5718H2.57187C2.3352 11.5718 2.14331 11.7637 2.14331 12.0004C2.14331 12.237 2.3352 12.4289 2.57187 12.4289H4.28613V13.2861H2.57187C1.86185 13.2861 1.28618 12.7104 1.28618 12.0004C1.28618 11.2904 1.86185 10.7147 2.57187 10.7147H4.28613V11.5718ZM4.28613 9.85755H3.429V9.00043H4.28613V9.85755ZM4.28613 8.1433H2.57187V7.28617H4.28613V8.1433ZM4.28613 3.4291H3.429V2.57197H4.28613V3.4291Z" fill="#6D9E3F"/>
<path d="M23.5716 1.71484H18.8574V14.5718H23.5716C23.8083 14.5718 24.0002 14.3799 24.0002 14.1432V2.14341C24.0002 1.90673 23.8083 1.71484 23.5716 1.71484ZM19.7146 2.57197H21.8574V3.4291H19.7146V2.57197ZM21.4288 4.71479V6.00048H20.5717V4.71479H21.4288ZM19.7146 7.28617H21.0003V8.1433H19.7146V7.28617ZM19.7146 9.00043H20.5717V9.85755H19.7146V9.00043ZM21.4288 13.2861H19.7146V12.4289H21.4288C21.6655 12.4289 21.8574 12.237 21.8574 12.0004C21.8574 11.7637 21.6655 11.5718 21.4288 11.5718H19.7146V10.7147H21.4288C22.1388 10.7147 22.7145 11.2904 22.7145 12.0004C22.7145 12.7104 22.1388 13.2861 21.4288 13.2861ZM23.1431 6.00048H22.2859V4.71479H23.1431V6.00048Z" fill="#6D9E3F"/>
</g>
<defs>
<clipPath id="clip0_2683_18853">
<rect width="24" height="24" fill="white"/>
</clipPath>
</defs>
</svg>
