<svg width="16" height="16" viewBox="0 0 16 16" fill="none" xmlns="http://www.w3.org/2000/svg">
<path d="M12.563 1.25928H3.43706C2.03262 1.25928 0.888916 2.40298 0.888916 3.81335V9.84004C0.888916 11.2445 2.03262 12.3882 3.43706 12.3882L5.44549 12.4096C5.57465 12.411 5.69383 12.4794 5.76023 12.5902L6.69039 14.1422C6.91558 14.5156 7.31261 14.7408 7.75112 14.7408C8.18963 14.7408 8.58076 14.5156 8.80595 14.1422L9.7815 12.5644C9.84921 12.4548 9.96879 12.3882 10.0975 12.3882H12.563C13.9703 12.3882 15.1112 11.2473 15.1112 9.84004V3.81335C15.1112 2.40298 13.9674 1.25928 12.563 1.25928ZM7.96242 3.56028C8.30955 3.56028 8.55501 3.84419 8.55501 4.15287C8.55501 4.4741 8.31343 4.73786 7.96532 4.73787C7.61193 4.73787 7.36983 4.46067 7.36983 4.15287C7.36983 3.84204 7.62645 3.56028 7.96242 3.56028ZM8.55617 9.50798C8.55617 9.83523 8.29112 10.1006 7.96358 10.1006C7.63603 10.1006 7.37098 9.83523 7.37098 9.50798V6.46776C7.37098 6.1405 7.63603 5.87516 7.96358 5.87516C8.29112 5.87516 8.55617 6.1405 8.55617 6.46776V9.50798Z" fill="#898B87"/>
</svg>
