<svg width="24" height="24" viewBox="0 0 24 24" fill="none" xmlns="http://www.w3.org/2000/svg">
<g clip-path="url(#clip0_3142_31152)">
<path d="M23.625 21.375H2.625V0.375C2.62501 0.325751 2.61532 0.276981 2.59648 0.231479C2.57764 0.185976 2.55002 0.144631 2.51519 0.109806C2.48037 0.0749819 2.43902 0.0473601 2.39352 0.0285191C2.34802 0.00967812 2.29925 -1.27971e-05 2.25 1.26828e-08H0.375C0.325751 -1.27971e-05 0.276981 0.00967812 0.231479 0.0285191C0.185976 0.0473601 0.144631 0.0749819 0.109806 0.109806C0.0749819 0.144631 0.0473601 0.185976 0.0285191 0.231479C0.00967812 0.276981 -1.27971e-05 0.325751 1.26828e-08 0.375V21.75C0.00065215 22.3465 0.237914 22.9185 0.65973 23.3403C1.08155 23.7621 1.65346 23.9993 2.25 24H23.625C23.6742 24 23.723 23.9903 23.7685 23.9715C23.814 23.9526 23.8554 23.925 23.8902 23.8902C23.925 23.8554 23.9526 23.814 23.9715 23.7685C23.9903 23.723 24 23.6742 24 23.625V21.75C24 21.7008 23.9903 21.652 23.9715 21.6065C23.9526 21.561 23.925 21.5196 23.8902 21.4848C23.8554 21.45 23.814 21.4224 23.7685 21.4035C23.723 21.3847 23.6742 21.375 23.625 21.375Z" fill="#898B87"/>
<path d="M7.5 16.5C7.4997 16.4006 7.4601 16.3054 7.38984 16.2352C7.31958 16.1649 7.22436 16.1253 7.125 16.125H4.875C4.77564 16.1253 4.68042 16.1649 4.61016 16.2352C4.5399 16.3054 4.5003 16.4006 4.5 16.5V20.625H7.5V16.5Z" fill="#898B87"/>
<path d="M9.75 12C9.65064 12.0003 9.55542 12.0399 9.48516 12.1102C9.4149 12.1804 9.3753 12.2756 9.375 12.375V20.625H12.375V12.375C12.3747 12.2756 12.3351 12.1804 12.2648 12.1102C12.1946 12.0399 12.0994 12.0003 12 12H9.75Z" fill="#898B87"/>
<path d="M14.625 13.875C14.5256 13.8753 14.4304 13.9149 14.3602 13.9852C14.2899 14.0554 14.2503 14.1506 14.25 14.25V20.625H17.25V14.25C17.2497 14.1506 17.2101 14.0554 17.1398 13.9852C17.0696 13.9149 16.9744 13.8753 16.875 13.875H14.625Z" fill="#898B87"/>
<path d="M19.125 10.875V20.625H22.125V10.875C22.1247 10.7756 22.0851 10.6804 22.0148 10.6102C21.9446 10.5399 21.8494 10.5003 21.75 10.5H19.5C19.4006 10.5003 19.3054 10.5399 19.2352 10.6102C19.1649 10.6804 19.1253 10.7756 19.125 10.875Z" fill="#898B87"/>
<path d="M5.99963 15C6.05548 15.0001 6.11064 14.9877 6.16108 14.9637C6.21152 14.9397 6.25595 14.9048 6.29114 14.8614L10.9266 9.15619L15.1348 12.663C15.2085 12.7243 15.3028 12.7551 15.3984 12.7491C15.4941 12.7431 15.5838 12.7008 15.6493 12.6308L20.25 7.70146V9C20.25 9.09946 20.2895 9.19484 20.3598 9.26517C20.4302 9.3355 20.5255 9.37501 20.625 9.37501C20.7245 9.37501 20.8198 9.3355 20.8902 9.26517C20.9605 9.19484 21 9.09946 21 9V6.75C20.9988 6.65092 20.9589 6.55625 20.8888 6.48619C20.8188 6.41612 20.7241 6.37622 20.625 6.375H18.375C18.2755 6.375 18.1802 6.41451 18.1098 6.48483C18.0395 6.55516 18 6.65054 18 6.75C18 6.84946 18.0395 6.94484 18.1098 7.01517C18.1802 7.08549 18.2755 7.125 18.375 7.125H19.762L15.3428 11.8599L11.1152 8.33698C11.0772 8.30494 11.0332 8.28089 10.9857 8.26627C10.9382 8.25164 10.8882 8.24674 10.8387 8.25185C10.7893 8.25665 10.7413 8.27121 10.6976 8.29469C10.6538 8.31817 10.6152 8.3501 10.5839 8.38863L5.70887 14.3886C5.66422 14.4436 5.63607 14.5102 5.62767 14.5805C5.61926 14.6508 5.63094 14.7221 5.66137 14.7861C5.69179 14.85 5.73971 14.9041 5.79957 14.9419C5.85943 14.9798 5.9288 14.9999 5.99963 15Z" fill="#898B87"/>
<path d="M10.875 7.5C11.6167 7.5 12.3417 7.28006 12.9584 6.86801C13.5751 6.45595 14.0557 5.87028 14.3395 5.18506C14.6234 4.49984 14.6976 3.74584 14.5529 3.01841C14.4082 2.29098 14.0511 1.6228 13.5266 1.09835C13.0022 0.573904 12.334 0.216751 11.6066 0.0720568C10.8792 -0.0726376 10.1252 0.00162481 9.43993 0.285453C8.75471 0.569282 8.16904 1.04993 7.75699 1.66661C7.34493 2.2833 7.125 3.00832 7.125 3.75C7.12614 4.74421 7.52159 5.69738 8.2246 6.40039C8.92762 7.10341 9.88078 7.49886 10.875 7.5ZM9.375 3.00037C9.375 2.51261 9.76089 2.01708 10.5 1.90206V1.875C10.5 1.77554 10.5395 1.68016 10.6098 1.60984C10.6802 1.53951 10.7755 1.5 10.875 1.5C10.9744 1.5 11.0698 1.53951 11.1402 1.60984C11.2105 1.68016 11.25 1.77554 11.25 1.875V1.89297C12.3197 2.01164 12.3724 2.73667 12.375 2.82678C12.3778 2.9262 12.3411 3.02268 12.2728 3.09502C12.2046 3.16736 12.1104 3.20964 12.011 3.21258L11.9996 3.21277C11.9021 3.21262 11.8085 3.17455 11.7386 3.10661C11.6687 3.03867 11.6279 2.9462 11.625 2.84875C11.6199 2.80577 11.537 2.69586 11.25 2.6478V3.40144C11.9886 3.51638 12.3747 4.01177 12.375 4.49963C12.375 4.98756 11.9891 5.48298 11.25 5.59795V5.625C11.25 5.72445 11.2105 5.81984 11.1402 5.89016C11.0698 5.96049 10.9744 6 10.875 6C10.7755 6 10.6802 5.96049 10.6098 5.89016C10.5395 5.81984 10.5 5.72445 10.5 5.625V5.60437C9.43615 5.47908 9.37767 4.76325 9.375 4.67321C9.37216 4.57379 9.40891 4.47732 9.47716 4.40498C9.54541 4.33264 9.63959 4.29035 9.73901 4.28741C9.83699 4.28749 9.9313 4.32476 10.0029 4.39168C10.0744 4.4586 10.118 4.55018 10.1246 4.64794C10.1313 4.69434 10.2204 4.80006 10.5 4.84897V4.09856C9.76135 3.98362 9.375 3.48823 9.375 3.00037Z" fill="#898B87"/>
<path d="M11.625 4.4991C11.625 4.365 11.4965 4.22916 11.25 4.16406V4.83363C11.4965 4.76861 11.625 4.6329 11.625 4.4991Z" fill="#898B87"/>
<path d="M10.5 2.66406C10.2534 2.72909 10.125 2.86486 10.125 2.99883C10.125 3.13279 10.2536 3.26867 10.5 3.33372V2.66406Z" fill="#898B87"/>
</g>
<defs>
<clipPath id="clip0_3142_31152">
<rect width="24" height="24" fill="white"/>
</clipPath>
</defs>
</svg>
