<svg width="24" height="24" viewBox="0 0 24 24" fill="none" xmlns="http://www.w3.org/2000/svg">
<path d="M9.54633 11.3079L17.6858 6.60864L13.8576 4.39844L5.71814 9.09771L9.54633 11.3079Z" fill="white"/>
<path d="M9.23438 11.8754L1.07812 7.17578V16.5758L9.23438 21.2754V11.8754Z" fill="white"/>
<path d="M17.3438 16.6875H16.4531V17.5781H17.3438V16.6875Z" fill="white"/>
<path d="M9.89062 11.8754V21.2754L14.3437 18.7004V11.9147C14.3419 11.5413 14.4885 11.1824 14.7513 10.9171C15.0141 10.6518 15.3715 10.5017 15.7449 10.4999H16.9125C16.979 10.2591 17.1221 10.0466 17.3201 9.89435C17.5182 9.74212 17.7604 9.65852 18.0102 9.65617H18V7.17578L9.89062 11.8754Z" fill="white"/>
<path d="M19.9143 10.3125H18.0075C17.7445 10.3125 17.5312 10.5257 17.5312 10.7888V10.8206C17.5312 11.0836 17.7445 11.2969 18.0075 11.2969H19.9143C20.1774 11.2969 20.3906 11.0836 20.3906 10.8206V10.7888C20.3906 10.5257 20.1774 10.3125 19.9143 10.3125Z" fill="white"/>
<path d="M13.2013 4.02038L9.54628 1.91016L1.40686 6.60947L5.06184 8.71969L13.2013 4.02038Z" fill="white"/>
<path d="M22.168 11.1562H20.9875C20.9172 11.3885 20.7734 11.5917 20.5778 11.7354C20.3823 11.879 20.1454 11.9554 19.9027 11.9531H18.0102C17.7675 11.9554 17.5306 11.879 17.3351 11.7354C17.1395 11.5917 16.9957 11.3885 16.9253 11.1562H15.7449C15.6462 11.1571 15.5486 11.1773 15.4577 11.2159C15.3668 11.2545 15.2844 11.3106 15.2152 11.381C15.146 11.4515 15.0914 11.5349 15.0545 11.6265C15.0175 11.7181 14.999 11.816 15 11.9148V21.3882C14.9995 21.4858 15.0184 21.5826 15.0557 21.6727C15.0931 21.7629 15.148 21.8447 15.2174 21.9134C15.2868 21.982 15.3692 22.0361 15.4598 22.0724C15.5504 22.1088 15.6473 22.1266 15.7449 22.125H22.168C22.2661 22.1268 22.3635 22.1091 22.4547 22.0729C22.5458 22.0368 22.6289 21.9828 22.699 21.9143C22.7692 21.8457 22.825 21.7639 22.8633 21.6736C22.9015 21.5833 22.9215 21.4863 22.9219 21.3882V11.9148C22.9219 11.7144 22.8426 11.5222 22.7013 11.3801C22.5601 11.238 22.3684 11.1575 22.168 11.1562ZM15.7969 13.3609C15.7966 13.3179 15.8048 13.2752 15.821 13.2353C15.8372 13.1954 15.8612 13.1592 15.8914 13.1285C15.9217 13.0979 15.9577 13.0736 15.9973 13.0569C16.037 13.0402 16.0796 13.0315 16.1226 13.0312H17.6684C17.7559 13.0315 17.8399 13.0662 17.902 13.1279C17.9641 13.1896 17.9993 13.2734 18 13.3609V13.5817C17.9996 13.6688 17.9646 13.7522 17.9028 13.8136C17.8409 13.875 17.7573 13.9093 17.6701 13.9091C17.6011 13.9114 17.5331 13.8909 17.4768 13.8509C17.4204 13.8109 17.3788 13.7535 17.3582 13.6875H16.4532V14.5781H16.4661C16.5531 14.5781 16.6366 14.6127 16.6981 14.6742C16.7597 14.7358 16.7942 14.8192 16.7942 14.9062C16.7942 14.9933 16.7597 15.0767 16.6981 15.1383C16.6366 15.1998 16.5531 15.2344 16.4661 15.2344H16.1226C16.0797 15.2344 16.0372 15.2259 15.9975 15.2094C15.9579 15.1929 15.9219 15.1687 15.8916 15.1382C15.8613 15.1078 15.8374 15.0716 15.8211 15.0319C15.8049 14.9921 15.7967 14.9496 15.7969 14.9066V13.3609ZM15.7969 16.3594C15.7969 16.2724 15.8315 16.1889 15.893 16.1274C15.9546 16.0658 16.038 16.0312 16.125 16.0312H17.6719C17.7589 16.0312 17.8424 16.0658 17.9039 16.1274C17.9655 16.1889 18 16.2724 18 16.3594V17.9062C18 17.9933 17.9655 18.0767 17.9039 18.1383C17.8424 18.1998 17.7589 18.2344 17.6719 18.2344H16.125C16.038 18.2344 15.9546 18.1998 15.893 18.1383C15.8315 18.0767 15.7969 17.9933 15.7969 17.9062V16.3594ZM16.4662 21.2344H16.1226C16.0803 21.2356 16.0381 21.2283 15.9986 21.213C15.9592 21.1976 15.9232 21.1745 15.8928 21.1449C15.8624 21.1154 15.8383 21.0801 15.8218 21.041C15.8053 21.002 15.7969 20.9601 15.7969 20.9177V19.372C15.7959 19.2839 15.8294 19.1989 15.8903 19.1352C15.9512 19.0715 16.0346 19.0342 16.1226 19.0312H17.6684C17.757 19.034 17.8412 19.071 17.9031 19.1346C17.9649 19.1982 17.9997 19.2833 18 19.372V19.6882C17.9982 19.7744 17.9626 19.8566 17.9009 19.9169C17.8391 19.9772 17.7562 20.011 17.6699 20.0109C17.5836 20.0108 17.5008 19.9769 17.4392 19.9164C17.3776 19.856 17.3422 19.7738 17.3405 19.6875H16.4532V20.5781H16.4662C16.5532 20.5781 16.6366 20.6127 16.6982 20.6742C16.7597 20.7358 16.7943 20.8192 16.7943 20.9062C16.7943 20.9933 16.7597 21.0767 16.6982 21.1383C16.6366 21.1998 16.5532 21.2344 16.4662 21.2344ZM18.8879 19.9566L17.6948 21.1497C17.6644 21.1801 17.6282 21.2043 17.5884 21.2208C17.5486 21.2373 17.5059 21.2458 17.4628 21.2458C17.4197 21.2458 17.377 21.2373 17.3372 21.2208C17.2974 21.2043 17.2612 21.1801 17.2308 21.1497L16.7063 20.6253C16.6758 20.5949 16.6516 20.5587 16.6352 20.5189C16.6187 20.4791 16.6102 20.4364 16.6102 20.3933C16.6102 20.3502 16.6187 20.3075 16.6352 20.2677C16.6516 20.2279 16.6758 20.1917 16.7063 20.1613C16.7368 20.1308 16.7729 20.1066 16.8127 20.0901C16.8526 20.0736 16.8952 20.0652 16.9383 20.0652C16.9814 20.0652 17.0241 20.0736 17.0639 20.0901C17.1037 20.1066 17.1399 20.1308 17.1704 20.1613L17.4627 20.4536L18.4236 19.4927C18.4851 19.4311 18.5686 19.3966 18.6556 19.3966C18.7427 19.3966 18.8261 19.4311 18.8877 19.4927C18.9492 19.5542 18.9838 19.6377 18.9838 19.7247C18.9838 19.8117 18.9492 19.8952 18.8877 19.9567L18.8879 19.9566ZM18.8879 13.8981L17.6948 15.0911C17.6644 15.1216 17.6282 15.1458 17.5884 15.1623C17.5486 15.1788 17.5059 15.1872 17.4628 15.1872C17.4197 15.1872 17.377 15.1788 17.3372 15.1623C17.2974 15.1458 17.2612 15.1216 17.2308 15.0911L16.7063 14.5668C16.6758 14.5363 16.6516 14.5001 16.6352 14.4603C16.6187 14.4205 16.6102 14.3778 16.6102 14.3348C16.6102 14.2917 16.6187 14.249 16.6352 14.2092C16.6516 14.1694 16.6758 14.1332 16.7063 14.1027C16.7368 14.0722 16.7729 14.0481 16.8127 14.0316C16.8526 14.0151 16.8952 14.0066 16.9383 14.0066C16.9814 14.0066 17.0241 14.0151 17.0639 14.0316C17.1037 14.0481 17.1399 14.0722 17.1704 14.1027L17.4627 14.3951L18.4236 13.4341C18.4851 13.3726 18.5686 13.338 18.6556 13.338C18.7427 13.338 18.8261 13.3726 18.8877 13.4341C18.9492 13.4957 18.9838 13.5791 18.9838 13.6662C18.9838 13.7532 18.9492 13.8367 18.8877 13.8982L18.8879 13.8981ZM21.7902 20.4844H19.7293C19.6423 20.4844 19.5588 20.4498 19.4973 20.3883C19.4358 20.3267 19.4012 20.2433 19.4012 20.1562C19.4012 20.0692 19.4358 19.9858 19.4973 19.9242C19.5588 19.8627 19.6423 19.8281 19.7293 19.8281H21.7902C21.8772 19.8281 21.9607 19.8627 22.0222 19.9242C22.0838 19.9858 22.1183 20.0692 22.1183 20.1562C22.1183 20.2433 22.0838 20.3267 22.0222 20.3883C21.9607 20.4498 21.8772 20.4844 21.7902 20.4844ZM21.7902 17.4844H19.7293C19.6423 17.4844 19.5588 17.4498 19.4973 17.3883C19.4358 17.3267 19.4012 17.2433 19.4012 17.1562C19.4012 17.0692 19.4358 16.9858 19.4973 16.9242C19.5588 16.8627 19.6423 16.8281 19.7293 16.8281H21.7902C21.8772 16.8281 21.9607 16.8627 22.0222 16.9242C22.0838 16.9858 22.1183 17.0692 22.1183 17.1562C22.1183 17.2433 22.0838 17.3267 22.0222 17.3883C21.9607 17.4498 21.8772 17.4844 21.7902 17.4844ZM21.7902 14.4844H19.7293C19.6423 14.4844 19.5588 14.4498 19.4973 14.3883C19.4358 14.3267 19.4012 14.2433 19.4012 14.1562C19.4012 14.0692 19.4358 13.9858 19.4973 13.9242C19.5588 13.8627 19.6423 13.8281 19.7293 13.8281H21.7902C21.8772 13.8281 21.9607 13.8627 22.0222 13.9242C22.0838 13.9858 22.1183 14.0692 22.1183 14.1562C22.1183 14.2433 22.0838 14.3267 22.0222 14.3883C21.9607 14.4498 21.8772 14.4844 21.7902 14.4844Z" fill="white"/>
</svg>
