<svg width="24" height="24" viewBox="0 0 24 24" fill="none" xmlns="http://www.w3.org/2000/svg">
<path d="M19.8 15.5195C18.6751 15.5195 17.76 16.4349 17.76 17.5595C17.76 18.6844 18.6751 19.5995 19.8 19.5995C20.9246 19.5995 21.84 18.6844 21.84 17.5595C21.84 16.4349 20.9246 15.5195 19.8 15.5195ZM19.8 18.1595C19.4691 18.1595 19.2 17.8905 19.2 17.5595C19.2 17.2286 19.4691 16.9595 19.8 16.9595C20.1309 16.9595 20.4 17.2286 20.4 17.5595C20.4 17.8905 20.1309 18.1595 19.8 18.1595Z" fill="#898B87"/>
<path d="M19.6046 7.03906H16.08C15.8148 7.03906 15.6 7.25412 15.6 7.51906V16.8791C15.6 17.144 15.8148 17.3591 16.08 17.3591H16.5891C16.8267 17.3591 17.0371 17.1879 17.0679 16.9523C17.2562 15.5089 18.4075 14.6137 19.8002 14.6137C21.1929 14.6137 22.3442 15.5089 22.5326 16.9523C22.5633 17.188 22.7736 17.3591 23.0114 17.3591H23.52C23.7849 17.3591 24 17.144 24 16.8791V12.1991C24 12.0863 23.9604 11.9773 23.8881 11.8911L19.9728 7.21114C19.8816 7.1022 19.7467 7.03906 19.6046 7.03906ZM16.56 10.8791V8.47906C16.56 8.21412 16.7748 7.99906 17.04 7.99906H19.1544C19.2967 7.99906 19.4318 8.06244 19.523 8.17185L21.5229 10.5718C21.7833 10.8846 21.5611 11.3591 21.1541 11.3591H17.04C16.7748 11.3591 16.56 11.1443 16.56 10.8791Z" fill="#898B87"/>
<path d="M0.48 17.3584H1.70906C1.94667 17.3584 2.15714 17.1873 2.18784 16.9516C2.37624 15.5083 3.52753 14.6131 4.92024 14.6131C6.31294 14.6131 7.46424 15.5083 7.65263 16.9516C7.68333 17.1873 7.89357 17.3584 8.13141 17.3584H14.16C14.425 17.3584 14.64 17.1434 14.64 16.8784V4.87844C14.64 4.6135 14.4249 4.39844 14.16 4.39844H0.48C0.214784 4.39844 0 4.6135 0 4.87844V16.8784C0 17.1434 0.214784 17.3584 0.48 17.3584Z" fill="#898B87"/>
<path d="M4.92 15.5195C3.79513 15.5195 2.88 16.4349 2.88 17.5595C2.88 18.6844 3.79513 19.5995 4.92 19.5995C6.04462 19.5995 6.96 18.6844 6.96 17.5595C6.96 16.4349 6.04462 15.5195 4.92 15.5195ZM4.92 18.1595C4.58906 18.1595 4.32 17.8905 4.32 17.5595C4.32 17.2286 4.58906 16.9595 4.92 16.9595C5.25094 16.9595 5.52 17.2286 5.52 17.5595C5.52 17.8905 5.25094 18.1595 4.92 18.1595Z" fill="#898B87"/>
</svg>
