<svg width="24" height="24" viewBox="0 0 24 24" fill="none" xmlns="http://www.w3.org/2000/svg">
<path d="M19.7998 15.5195C18.6749 15.5195 17.7598 16.4349 17.7598 17.5595C17.7598 18.6844 18.6749 19.5995 19.7998 19.5995C20.9244 19.5995 21.8398 18.6844 21.8398 17.5595C21.8398 16.4349 20.9244 15.5195 19.7998 15.5195ZM19.7998 18.1595C19.4688 18.1595 19.1998 17.8905 19.1998 17.5595C19.1998 17.2286 19.4688 16.9595 19.7998 16.9595C20.1307 16.9595 20.3998 17.2286 20.3998 17.5595C20.3998 17.8905 20.1307 18.1595 19.7998 18.1595Z" fill="white"/>
<path d="M19.6047 7.03906H16.0801C15.8149 7.03906 15.6001 7.25412 15.6001 7.51906V16.8791C15.6001 17.144 15.8149 17.3591 16.0801 17.3591H16.5892C16.8268 17.3591 17.0372 17.1879 17.0679 16.9523C17.2563 15.5089 18.4076 14.6137 19.8003 14.6137C21.193 14.6137 22.3443 15.5089 22.5327 16.9523C22.5634 17.188 22.7737 17.3591 23.0115 17.3591H23.5201C23.785 17.3591 24.0001 17.144 24.0001 16.8791V12.1991C24.0001 12.0863 23.9605 11.9773 23.8882 11.8911L19.9728 7.21114C19.8817 7.1022 19.7468 7.03906 19.6047 7.03906ZM16.5601 10.8791V8.47906C16.5601 8.21412 16.7749 7.99906 17.0401 7.99906H19.1545C19.2968 7.99906 19.4319 8.06244 19.5231 8.17185L21.523 10.5718C21.7834 10.8846 21.5612 11.3591 21.1542 11.3591H17.0401C16.7749 11.3591 16.5601 11.1443 16.5601 10.8791Z" fill="white"/>
<path d="M0.48 17.3584H1.70906C1.94667 17.3584 2.15714 17.1873 2.18784 16.9516C2.37624 15.5083 3.52753 14.6131 4.92024 14.6131C6.31294 14.6131 7.46424 15.5083 7.65263 16.9516C7.68333 17.1873 7.89357 17.3584 8.13141 17.3584H14.16C14.425 17.3584 14.64 17.1434 14.64 16.8784V4.87844C14.64 4.6135 14.4249 4.39844 14.16 4.39844H0.48C0.214784 4.39844 0 4.6135 0 4.87844V16.8784C0 17.1434 0.214784 17.3584 0.48 17.3584Z" fill="white"/>
<path d="M4.91988 15.5195C3.79502 15.5195 2.87988 16.4349 2.87988 17.5595C2.87988 18.6844 3.79502 19.5995 4.91988 19.5995C6.04451 19.5995 6.95988 18.6844 6.95988 17.5595C6.95988 16.4349 6.04451 15.5195 4.91988 15.5195ZM4.91988 18.1595C4.58894 18.1595 4.31988 17.8905 4.31988 17.5595C4.31988 17.2286 4.58894 16.9595 4.91988 16.9595C5.25082 16.9595 5.51988 17.2286 5.51988 17.5595C5.51988 17.8905 5.25082 18.1595 4.91988 18.1595Z" fill="white"/>
</svg>
