<svg width="16" height="16" viewBox="0 0 16 16" fill="none" xmlns="http://www.w3.org/2000/svg">
<path d="M15.1274 0.872594C14.5647 0.309906 13.8166 3.125e-05 13.0208 6.25e-05L2.97916 0C2.18337 3.125e-05 1.43525 0.309937 0.872563 0.872625C0.309875 1.43531 0 2.18344 6.25e-05 2.97916L0 13.0208C6.25e-05 14.6635 1.33653 16 2.97919 16H13.0208C14.6635 16 16 14.6635 16 13.0208V2.97925C16 2.18344 15.6901 1.43528 15.1274 0.872594ZM5.18325 5.63509L7.66847 3.14978C7.75638 3.06187 7.87562 3.01247 7.99991 3.01247C8.12425 3.01247 8.24344 3.06184 8.33134 3.14978L10.8166 5.63494C10.9997 5.81797 10.9997 6.11478 10.8166 6.29784C10.6335 6.48088 10.3368 6.48094 10.1537 6.29784L8.46859 4.61278L8.46866 9.61334C8.46866 9.87222 8.25881 10.0821 7.99991 10.0821C7.741 10.0821 7.53116 9.87222 7.53116 9.61334L7.53106 4.61297L5.84613 6.298C5.75459 6.38953 5.63462 6.43531 5.51469 6.43531C5.39469 6.43531 5.27475 6.38956 5.18322 6.298C5.00019 6.11497 5.00019 5.81819 5.18325 5.63509ZM12.5188 12.9875H3.48128C3.22244 12.9875 3.01253 12.7776 3.01253 12.5188C3.01253 12.2599 3.22244 12.05 3.48128 12.05H12.5188C12.7777 12.05 12.9876 12.2599 12.9876 12.5188C12.9875 12.7776 12.7777 12.9875 12.5188 12.9875Z" fill="#6D9E3F"/>
</svg>
