<svg width="24" height="24" viewBox="0 0 24 24" fill="none" xmlns="http://www.w3.org/2000/svg">
<path d="M21.0617 9.26262L12.4833 2.56365C12.1948 2.34532 11.8049 2.34532 11.5163 2.56365L2.9379 9.26262C2.75075 9.41079 2.6416 9.63693 2.6416 9.87868V21.0072C2.6416 21.3347 2.90672 21.5999 3.23425 21.5999H5.02795C5.35548 21.5999 5.6206 21.3347 5.6206 21.0072V13.3101C5.6206 12.8811 5.97154 12.5302 6.40045 12.5302H17.5992C18.0281 12.5302 18.379 12.8811 18.379 13.3101V21.0072C18.379 21.3347 18.6442 21.5999 18.9717 21.5999H20.7654C21.0929 21.5999 21.3581 21.3347 21.3581 21.0072V9.87868C21.3581 9.63693 21.2489 9.41079 21.0617 9.26262ZM11.9998 9.19241C11.142 9.19241 10.4401 8.49057 10.4401 7.6249C10.4401 6.76708 11.142 6.06519 11.9998 6.06519C12.8577 6.06519 13.5595 6.76708 13.5595 7.6249C13.5595 8.49057 12.8577 9.19241 11.9998 9.19241Z" fill="white"/>
<path d="M11.4592 19.6583V20.8203C11.4592 21.2492 11.1083 21.6002 10.6793 21.6002H8.25398C7.82507 21.6002 7.47412 21.2492 7.47412 20.8203V19.6583C7.47412 19.2294 7.82507 18.8784 8.25398 18.8784H10.6793C11.1083 18.8784 11.4592 19.2294 11.4592 19.6583Z" fill="white"/>
<path d="M16.6139 19.6583V20.8203C16.6139 21.2492 16.263 21.6002 15.8341 21.6002H13.4088C12.9798 21.6002 12.6289 21.2492 12.6289 20.8203V19.6583C12.6289 19.2294 12.9798 18.8784 13.4088 18.8784H15.8341C16.263 18.8784 16.6139 19.2294 16.6139 19.6583Z" fill="white"/>
<path d="M14.0368 15.7667V16.9287C14.0368 17.3576 13.6859 17.7086 13.2569 17.7086H10.8316C10.4027 17.7086 10.0518 17.3576 10.0518 16.9287V15.7667C10.0518 15.3378 10.4027 14.9868 10.8316 14.9868H13.2569C13.6859 14.9868 14.0368 15.3378 14.0368 15.7667Z" fill="white"/>
</svg>
