<svg width="24" height="24" viewBox="0 0 24 24" fill="none" xmlns="http://www.w3.org/2000/svg">
<path d="M21.0617 9.26274L12.4833 2.56378C12.1948 2.34544 11.8049 2.34544 11.5163 2.56378L2.9379 9.26274C2.75075 9.41091 2.6416 9.63705 2.6416 9.87881V21.0073C2.6416 21.3349 2.90672 21.6 3.23425 21.6H5.02795C5.35548 21.6 5.6206 21.3349 5.6206 21.0073V13.3102C5.6206 12.8812 5.97154 12.5303 6.40045 12.5303H17.5992C18.0281 12.5303 18.379 12.8812 18.379 13.3102V21.0073C18.379 21.3349 18.6442 21.6 18.9717 21.6H20.7654C21.0929 21.6 21.3581 21.3349 21.3581 21.0073V9.87881C21.3581 9.63705 21.2489 9.41091 21.0617 9.26274ZM11.9998 9.19253C11.142 9.19253 10.4401 8.49069 10.4401 7.62502C10.4401 6.7672 11.142 6.06531 11.9998 6.06531C12.8577 6.06531 13.5595 6.7672 13.5595 7.62502C13.5595 8.49069 12.8577 9.19253 11.9998 9.19253Z" fill="#898B87"/>
<path d="M11.4592 19.6582V20.8202C11.4592 21.2491 11.1083 21.6 10.6793 21.6H8.25398C7.82507 21.6 7.47412 21.2491 7.47412 20.8202V19.6582C7.47412 19.2292 7.82507 18.8783 8.25398 18.8783H10.6793C11.1083 18.8783 11.4592 19.2292 11.4592 19.6582Z" fill="#898B87"/>
<path d="M16.6139 19.6582V20.8202C16.6139 21.2491 16.263 21.6 15.8341 21.6H13.4088C12.9798 21.6 12.6289 21.2491 12.6289 20.8202V19.6582C12.6289 19.2292 12.9798 18.8783 13.4088 18.8783H15.8341C16.263 18.8783 16.6139 19.2292 16.6139 19.6582Z" fill="#898B87"/>
<path d="M14.0368 15.7667V16.9287C14.0368 17.3576 13.6859 17.7086 13.2569 17.7086H10.8316C10.4027 17.7086 10.0518 17.3576 10.0518 16.9287V15.7667C10.0518 15.3378 10.4027 14.9868 10.8316 14.9868H13.2569C13.6859 14.9868 14.0368 15.3378 14.0368 15.7667Z" fill="#898B87"/>
</svg>
