<svg width="27" height="28" viewBox="0 0 27 28" fill="none" xmlns="http://www.w3.org/2000/svg">
<path fill-rule="evenodd" clip-rule="evenodd" d="M7.18441 12.186C6.16951 12.186 5.9577 12.3949 5.9577 13.3953V15.2094C5.9577 16.21 6.16951 16.4188 7.18441 16.4188H9.6378V23.6751C9.6378 24.6756 9.84961 24.8844 10.8645 24.8844H13.3179C14.3328 24.8844 14.5446 24.6756 14.5446 23.6751V16.4188H17.2994C18.0691 16.4188 18.2675 16.2713 18.4789 15.5417L19.0047 13.7276C19.3668 12.4778 19.1437 12.186 17.8251 12.186H14.5446V9.16259C14.5446 8.49467 15.0938 7.95321 15.7713 7.95321H19.2627C20.2775 7.95321 20.4894 7.74439 20.4894 6.74384V4.32509C20.4894 3.32454 20.2775 3.11572 19.2627 3.11572H15.7713C12.3838 3.11572 9.6378 5.823 9.6378 9.16259V12.186H7.18441Z" stroke="white" stroke-width="1.19577" stroke-linejoin="round"/>
</svg>
