<svg width="26" height="26" viewBox="0 0 26 26" fill="none" xmlns="http://www.w3.org/2000/svg">
<path d="M3.21606 13.1092C3.21606 8.2348 3.21606 5.7976 4.66014 4.28332C6.10423 2.76904 8.42844 2.76904 13.0769 2.76904C17.7252 2.76904 20.0495 2.76904 21.4936 4.28332C22.9376 5.7976 22.9376 8.2348 22.9376 13.1092C22.9376 17.9835 22.9376 20.4207 21.4936 21.9351C20.0495 23.4493 17.7252 23.4493 13.0769 23.4493C8.42844 23.4493 6.10423 23.4493 4.66014 21.9351C3.21606 20.4207 3.21606 17.9835 3.21606 13.1092Z" stroke="white" stroke-width="1.19577" stroke-linejoin="round"/>
<path d="M17.67 13.1089C17.67 15.7457 15.613 17.8832 13.0754 17.8832C10.5379 17.8832 8.48077 15.7457 8.48077 13.1089C8.48077 10.472 10.5379 8.33447 13.0754 8.33447C15.613 8.33447 17.67 10.472 17.67 13.1089Z" stroke="white" stroke-width="1.19577"/>
<path d="M18.7018 7.27393H18.6917" stroke="white" stroke-width="1.59436" stroke-linecap="round" stroke-linejoin="round"/>
</svg>
