<svg width="1440" height="223" viewBox="0 0 1440 223" fill="none" xmlns="http://www.w3.org/2000/svg">
<g clip-path="url(#clip0_3921_2883)">
<rect width="1440" height="223" fill="#F0F5EC"/>
<g opacity="0.7">
<line opacity="0.1" x1="40.5" y1="-2.18557e-08" x2="40.5" y2="624" stroke="#006D33"/>
<line opacity="0.1" x1="80.5" y1="-2.18557e-08" x2="80.5" y2="624" stroke="#006D33"/>
<line opacity="0.1" x1="120.5" y1="-2.18557e-08" x2="120.5" y2="624" stroke="#006D33"/>
<line opacity="0.1" x1="160.5" y1="-2.18557e-08" x2="160.5" y2="624" stroke="#006D33"/>
<line opacity="0.1" x1="200.5" y1="-2.18557e-08" x2="200.5" y2="624" stroke="#006D33"/>
<line opacity="0.1" x1="240.5" y1="-2.18557e-08" x2="240.5" y2="624" stroke="#006D33"/>
<line opacity="0.1" x1="280.5" y1="-2.18557e-08" x2="280.5" y2="624" stroke="#006D33"/>
<line opacity="0.1" x1="320.5" y1="-2.18557e-08" x2="320.5" y2="624" stroke="#006D33"/>
<line opacity="0.1" x1="360.5" y1="-2.18557e-08" x2="360.5" y2="624" stroke="#006D33"/>
<line opacity="0.1" x1="400.5" y1="-2.18557e-08" x2="400.5" y2="624" stroke="#006D33"/>
<line opacity="0.1" x1="440.5" y1="-2.18557e-08" x2="440.5" y2="624" stroke="#006D33"/>
<line opacity="0.1" x1="480.5" y1="-2.18557e-08" x2="480.5" y2="624" stroke="#006D33"/>
<line opacity="0.1" x1="520.5" y1="-2.18557e-08" x2="520.5" y2="624" stroke="#006D33"/>
<line opacity="0.1" x1="560.5" y1="-2.18557e-08" x2="560.5" y2="624" stroke="#006D33"/>
<line opacity="0.1" x1="600.5" y1="-2.18557e-08" x2="600.5" y2="624" stroke="#006D33"/>
<line opacity="0.1" x1="640.5" y1="-2.18557e-08" x2="640.5" y2="624" stroke="#006D33"/>
<line opacity="0.1" x1="680.5" y1="-2.18557e-08" x2="680.5" y2="624" stroke="#006D33"/>
<line opacity="0.1" x1="720.5" y1="-2.18557e-08" x2="720.5" y2="624" stroke="#006D33"/>
<line opacity="0.1" x1="760.5" y1="-2.18557e-08" x2="760.5" y2="624" stroke="#006D33"/>
<line opacity="0.1" x1="800.5" y1="-2.18557e-08" x2="800.5" y2="624" stroke="#006D33"/>
<line opacity="0.1" x1="840.5" y1="-2.18557e-08" x2="840.5" y2="624" stroke="#006D33"/>
<line opacity="0.1" x1="880.5" y1="-2.18557e-08" x2="880.5" y2="624" stroke="#006D33"/>
<line opacity="0.1" x1="920.5" y1="-2.18557e-08" x2="920.5" y2="624" stroke="#006D33"/>
<line opacity="0.1" x1="960.5" y1="-2.18557e-08" x2="960.5" y2="624" stroke="#006D33"/>
<line opacity="0.1" x1="1000.5" y1="-2.18557e-08" x2="1000.5" y2="624" stroke="#006D33"/>
<line opacity="0.1" x1="1040.5" y1="-2.18557e-08" x2="1040.5" y2="624" stroke="#006D33"/>
<line opacity="0.1" x1="1080.5" y1="-2.18557e-08" x2="1080.5" y2="624" stroke="#006D33"/>
<line opacity="0.1" x1="1120.5" y1="-2.18557e-08" x2="1120.5" y2="624" stroke="#006D33"/>
<line opacity="0.1" x1="1160.5" y1="-2.18557e-08" x2="1160.5" y2="624" stroke="#006D33"/>
<line opacity="0.1" x1="1200.5" y1="-2.18557e-08" x2="1200.5" y2="624" stroke="#006D33"/>
<line opacity="0.1" x1="1240.5" y1="-2.18557e-08" x2="1240.5" y2="624" stroke="#006D33"/>
<line opacity="0.1" x1="1280.5" y1="-2.18557e-08" x2="1280.5" y2="624" stroke="#006D33"/>
<line opacity="0.1" x1="1320.5" y1="-2.18557e-08" x2="1320.5" y2="624" stroke="#006D33"/>
<line opacity="0.1" x1="1360.5" y1="-2.18557e-08" x2="1360.5" y2="624" stroke="#006D33"/>
<line opacity="0.1" x1="1400.5" y1="-2.18557e-08" x2="1400.5" y2="624" stroke="#006D33"/>
<line opacity="0.1" y1="42.5" x2="1440" y2="42.5" stroke="#006D33"/>
<line opacity="0.1" y1="82.5" x2="1440" y2="82.5" stroke="#006D33"/>
<line opacity="0.1" y1="122.5" x2="1440" y2="122.5" stroke="#006D33"/>
<line opacity="0.1" y1="162.5" x2="1440" y2="162.5" stroke="#006D33"/>
<line opacity="0.1" y1="202.5" x2="1440" y2="202.5" stroke="#006D33"/>
</g>
<g opacity="0.3">
<path d="M1500.9 209.061C1500.66 208.834 1498.53 210.27 1496.52 212.072C1495.87 212.663 1495.8 212.604 1494.75 211.083C1494 210.016 1493.65 208.882 1493.64 207.58C1493.61 206.524 1493.28 205.143 1492.91 204.461C1492.04 203.03 1492.54 203.07 1494.02 204.572C1495.23 205.797 1495.67 206.034 1495.8 205.521C1495.85 205.324 1495.37 204.741 1494.78 204.218C1493.77 203.378 1493.75 203.289 1494.54 203.487C1496.15 203.806 1495.63 203.006 1493.64 202.046C1490.54 200.601 1489.64 199.83 1489.87 198.923C1490.12 197.937 1490.63 198.066 1491.76 199.271C1492.63 200.2 1492.67 200.21 1492.56 199.47C1492.51 198.996 1492.71 198.671 1493.1 198.642C1494.5 198.447 1493.84 197.864 1492.08 197.674C1490.23 197.464 1490.24 197.424 1490.53 196.28C1490.96 194.584 1490.7 191.043 1490.09 189.631C1489.49 188.309 1486.82 185.168 1486.15 184.999C1485.36 184.8 1486.2 186.479 1487.51 187.812C1489.45 189.808 1489.92 191.979 1489.28 196.219C1488.96 198.191 1488.88 200.184 1489.06 200.648C1489.19 201.141 1490.08 202.454 1490.97 203.6C1492.24 205.259 1492.57 206.138 1492.64 207.706C1492.67 208.929 1493.1 210.252 1493.77 211.298C1496.3 215.159 1496.58 215.692 1496.82 216.59C1496.99 217.261 1496.85 217.814 1496.25 218.71C1495.65 219.607 1495.46 220.356 1495.43 221.816C1495.46 224.381 1494.66 225.898 1492.74 227.01C1486.64 230.512 1485.8 230.343 1480.27 224.475C1474.71 218.557 1473.58 216.514 1472.99 211.462C1472.75 209.223 1472.23 206.45 1471.84 205.306C1470.8 202.197 1470.58 200.214 1471.12 198.084C1471.46 196.704 1471.43 195.648 1470.93 194.138C1469.94 191.168 1469.88 189.895 1470.58 186.089C1471.24 182.608 1471.16 181.079 1470.11 178.049C1469.67 176.766 1469.73 175.691 1470.36 172.496L1471.1 168.532L1469.87 166.715C1468.79 165.145 1467.58 161.74 1467.79 160.872C1467.94 160.28 1471.23 163.955 1472.79 166.483C1475.14 170.254 1475.61 173.057 1474.72 178.49C1474.58 179.378 1475.63 178.383 1475.88 177.397C1476.23 175.977 1476.97 175.702 1477.23 176.857C1477.53 178.021 1476.96 180.309 1475.94 182.023C1474.62 184.251 1474.8 188.068 1476.09 185.959C1477.99 182.914 1478.45 182.777 1478.6 185.036C1478.75 186.792 1477.79 189.444 1476.28 191.789C1475.15 193.435 1474.41 195.89 1474.96 196.029C1475.16 196.078 1475.57 196.306 1475.89 196.513C1476.29 196.78 1476.57 196.515 1477.05 195.42C1478.37 192.355 1478.64 191.921 1478.94 192.247C1479.55 192.86 1478.33 196.202 1476.89 197.768C1473.6 201.304 1473.46 201.52 1473.79 202.063C1474.03 202.458 1474.48 202.153 1475.49 200.813C1476.28 199.838 1477.03 199.06 1477.18 199.1C1477.34 199.14 1476.93 200.293 1476.28 201.683C1475.62 203.151 1475.2 204.512 1475.31 204.917C1475.54 205.815 1475.88 205.312 1476.99 202.404C1478.51 198.342 1479.17 197.712 1479.41 200.119C1479.57 202.004 1478.91 204.478 1477.52 207.021C1476.2 209.416 1475.31 212.462 1475.91 212.611C1476.15 212.671 1476.48 212.001 1476.69 211.172C1476.91 210.305 1477.31 209.526 1477.54 209.458C1477.81 209.399 1477.91 209.675 1477.8 210.109C1477.69 210.543 1477.77 211.066 1478.01 211.293C1478.28 211.57 1478.5 210.998 1478.77 209.095C1479.44 204.736 1480 204.668 1480.82 208.812C1481.4 211.555 1481.43 213.113 1481.07 215.204C1480.78 216.723 1480.72 218.133 1480.92 218.35C1481.12 218.568 1481.47 217.483 1481.89 215.324C1482.43 212.484 1482.42 211.349 1481.79 207.965C1481.38 205.725 1481.06 203.801 1481.11 203.604C1481.15 203.446 1480.98 202.943 1480.75 202.509C1480.49 202.064 1480.29 200.841 1480.25 199.825C1480.2 198.513 1479.94 197.861 1479.44 197.653C1478.75 197.396 1478.74 197.1 1479.37 195.079C1480.52 191.51 1479.67 189.664 1477.9 191.861L1476.99 192.974L1477.65 191.673C1478.74 189.515 1479.62 185.334 1479.3 183.913C1478.91 182.265 1477.91 181.721 1477.27 182.775C1476.42 184.155 1476.47 183.119 1477.36 181.582C1477.97 180.478 1478.19 179.61 1478.14 178.298C1478.12 176.493 1477.21 174.253 1476.62 174.439C1476.43 174.518 1476.16 173.403 1476 172.022C1475.41 166.299 1472.52 162.685 1461.69 154.106C1460.07 152.821 1460.01 152.722 1461.04 152.852C1462.47 153.002 1467.3 156.097 1469.93 158.557C1471.09 159.644 1472.82 161.669 1473.73 163.071C1474.68 164.483 1475.49 165.481 1475.53 165.323C1475.77 164.337 1470.89 158.421 1467.59 155.792C1465.39 153.983 1466.51 154.222 1469.27 156.13C1476.87 161.301 1480.1 169.444 1480.78 185.079C1480.94 188.305 1481.4 192.024 1481.79 193.337C1482.33 195.024 1482.41 196.05 1482.09 196.849C1481.7 197.716 1481.78 198.407 1482.54 199.769C1483.21 201.112 1483.29 201.635 1482.85 201.9C1482.55 202.077 1482.2 202.619 1482.08 203.093C1481.82 204.158 1482.61 209.929 1483.26 211.518C1483.86 213.009 1484.18 215.939 1484.1 218.77C1483.99 221.216 1484.69 221.976 1484.9 219.6C1484.95 218.732 1485 217.696 1484.97 217.311C1484.99 216.897 1485.11 216.591 1485.23 216.621C1485.51 216.691 1488.59 220.858 1490.51 223.81C1491.46 225.223 1491.71 225.41 1491.74 224.789C1491.81 224.345 1491.02 222.933 1490.07 221.689C1487.74 218.549 1487.56 217.917 1489.29 218.729C1490.39 219.214 1490.69 219.204 1490.82 218.692C1490.91 218.337 1490.66 217.981 1490.3 217.892C1487.54 217.157 1484.42 212.605 1483.58 208.037C1482.59 202.758 1482.84 202.275 1485.35 204.37C1486.01 204.914 1486.72 205.26 1486.92 205.142C1487.32 204.906 1486.86 204.205 1484.49 201.222C1482.54 198.763 1482.04 196.208 1483.82 197.828C1484.92 198.816 1485.31 198.284 1484.37 197C1483.28 195.47 1482.6 193.456 1482.23 190.724C1481.84 187.902 1481.65 179.221 1481.95 179.044C1482.16 178.887 1482.52 179.982 1484.31 186.633C1485.48 190.867 1487.05 195.032 1487.41 194.786C1487.56 194.697 1487.27 193.829 1486.84 192.842C1486.37 191.845 1485.5 189.111 1484.9 186.782C1484.27 184.444 1483.66 182.322 1483.56 182.045C1482.86 180.486 1482.51 178.177 1482.88 177.517C1483.21 176.886 1483.13 176.699 1482.34 176.5C1481.5 176.292 1481.22 175.591 1480.3 171.506C1478.94 165.171 1476.14 160.363 1471.73 156.745C1468.14 153.751 1465.15 152.079 1461.86 151.255C1459 150.54 1457.68 150.755 1455.09 152.369C1453.14 153.599 1451.09 156.229 1446.95 162.821C1442.74 169.562 1441.52 172.4 1439.84 179.273C1438.2 186.155 1438.02 189.755 1439.1 194.511C1440 198.508 1439.88 200.155 1438.23 204.058C1436.17 209.076 1436.2 211.137 1438.49 214.307C1440.14 216.608 1442.59 218.102 1446.36 219.045C1448.86 219.67 1449.76 220.106 1452.3 222.082C1455.03 224.148 1455.4 224.327 1456.85 224.27C1458.13 224.213 1458.53 224.312 1458.92 224.914C1459.9 226.376 1462.58 228.136 1464.64 228.652C1465.95 228.979 1467.26 229.642 1468.09 230.354C1468.86 231.006 1469.84 231.629 1470.28 231.738C1471.47 232.036 1473.64 231.448 1474.35 230.62C1474.92 230.01 1475.26 230.01 1476.83 230.654C1479.09 231.555 1481.65 231.569 1483.53 230.655C1484.39 230.242 1485.44 230.086 1486.19 230.274C1487.54 230.612 1490.56 229.65 1493.38 227.968C1495.41 226.797 1496.27 225.043 1496.28 222.113C1496.31 220.486 1496.49 219.608 1497.03 218.78C1497.65 217.844 1497.68 217.391 1497.23 215.644C1496.96 214.529 1496.79 213.355 1496.87 213.039C1496.95 212.724 1497.93 211.838 1499.05 211.07C1501.25 209.525 1501.3 209.495 1500.9 209.061ZM1480.29 230.472C1477.22 230.418 1475.87 229.41 1473.19 225.134C1471.96 223.15 1470.14 220.848 1469.14 219.969C1465.22 216.599 1464.15 213.983 1464.66 208.746C1464.99 205.393 1464.51 202.423 1463.35 199.995C1462.26 197.794 1462 195.968 1462.34 193.414C1462.76 190.249 1462.52 188.848 1460.98 185.906C1460.17 184.405 1459.67 182.727 1459.65 181.632C1459.59 177.637 1459.29 175.802 1457.98 171.45C1457.18 168.943 1456.53 165.973 1456.48 164.829C1456.36 162.452 1456.79 160.213 1457.42 160.037C1457.93 159.87 1460.05 163.671 1460.46 165.408C1460.62 166.118 1460.75 167.953 1460.77 169.551C1460.82 171.741 1460.98 172.412 1461.54 172.551C1462.13 172.7 1462.37 172.424 1462.61 171.477C1462.94 170.304 1463 170.235 1463.35 171.035C1463.52 171.538 1463.61 172.692 1463.55 173.6C1463.15 177.9 1463.16 179.705 1463.64 179.656C1463.97 179.657 1464.27 178.977 1464.46 177.892C1464.8 175.673 1465.45 176.295 1465.12 178.603C1465.01 179.579 1465.22 181.227 1465.59 182.283C1466.06 183.615 1466.19 185.115 1465.94 187.275C1465.59 190.707 1466.28 191.467 1466.95 188.322L1467.35 186.37L1468.08 189.695C1468.73 192.793 1468.74 193.257 1467.93 196.491C1467.46 198.384 1467.19 199.952 1467.39 200.002C1467.71 200.081 1467.89 199.874 1468.85 198.061C1469.41 196.986 1469.45 196.996 1469.29 198.801C1469.21 199.827 1468.82 202.036 1468.41 203.692C1467.65 206.897 1467.62 208.021 1468.29 208.19C1468.53 208.25 1468.86 207.283 1469.12 205.38L1469.61 202.441L1470.15 203.626C1470.47 204.376 1470.54 205.442 1470.28 206.467C1470.06 207.374 1469.93 208.39 1469.96 208.775C1470.1 209.899 1470.85 209.753 1470.92 208.638C1470.94 208.056 1471.09 207.632 1471.28 207.682C1471.56 207.751 1471.67 208.491 1472.12 213.592C1472.43 217.064 1474.49 220.303 1479.08 224.68C1480.55 226.053 1481.88 227.476 1482.09 227.822C1482.3 228.167 1482.8 228.671 1483.25 228.908C1483.94 229.334 1483.92 229.413 1483.16 229.934C1482.7 230.239 1481.38 230.494 1480.29 230.472ZM1472.18 230.706L1470.51 231.127L1468.4 229.467C1467.1 228.429 1465.61 227.637 1464.46 227.35C1462.32 226.813 1460.18 225.104 1459.37 223.307C1459.07 222.646 1458.73 220.465 1458.63 218.512C1458.48 215.918 1458.15 214.368 1457.3 212.73C1455.4 209.028 1455.32 208.505 1456.11 206.188C1456.59 204.758 1457.29 203.675 1458.33 202.719L1459.85 201.341L1460.08 202.781C1460.22 203.571 1460.23 204.537 1460.13 204.932C1460.02 205.366 1460.14 205.731 1460.38 205.79C1461.06 205.959 1461.18 203.434 1460.64 200.701C1460.41 199.428 1459.24 196.201 1458.11 193.486C1454.94 186.113 1454.36 184.415 1453.22 179.186C1451.73 172.358 1451.75 169.556 1453.34 161.362C1454.71 154.035 1455.35 152.517 1456.84 152.598C1457.75 152.659 1457.58 154.543 1456.19 160.104C1455.14 164.284 1455.11 164.57 1455.8 167.55C1456.16 169.277 1456.92 171.981 1457.44 173.619C1457.99 175.268 1458.45 177.646 1458.47 178.908C1458.55 182.321 1459.04 184.541 1460.31 187.039C1461.34 189.013 1461.43 189.665 1461.17 193.205C1460.97 196.213 1461.1 197.545 1461.68 198.907C1463.59 203.241 1463.76 204.079 1463.54 207.462C1463.13 214.317 1463.85 216.508 1467.68 220.065C1470.14 222.358 1474.38 228.825 1474.02 229.742C1473.9 230.048 1473.03 230.5 1472.18 230.706ZM1469.03 188.256C1468.83 188.207 1468.58 187.683 1468.48 187.072C1468.34 186.45 1468 185.779 1467.72 185.581C1467.44 185.344 1467.24 184.959 1467.3 184.722C1467.37 184.446 1467.08 183.41 1466.63 182.334C1466.22 181.308 1465.88 179.462 1465.94 178.22C1466.05 175.566 1465.82 174.461 1465.15 174.293C1464.87 174.223 1464.47 173.118 1464.2 171.835C1463.85 170.069 1463.53 169.486 1462.87 169.406C1462.22 169.326 1461.97 168.803 1461.68 166.929C1461.49 165.666 1460.52 162.991 1459.51 160.977C1458.22 158.391 1457.79 157.068 1457.99 156.28C1458.29 155.225 1458.39 155.333 1460.08 158.354C1462.44 162.55 1463.55 165.008 1463.95 166.784C1464.16 167.633 1464.44 168.205 1464.59 168.117C1465.03 167.851 1462.83 162.186 1460.81 158.454C1459.43 155.887 1459.22 155.206 1459.82 155.355C1460.69 155.574 1462.82 157.826 1463.58 159.356C1463.9 159.939 1464.84 162.396 1465.74 164.844C1466.62 167.242 1467.62 169.631 1467.96 170.135C1468.39 170.786 1468.42 171.339 1468.03 172.206C1467.64 173.113 1467.67 173.665 1468.16 174.376C1468.53 174.929 1468.74 175.61 1468.67 175.886C1468.59 176.202 1468.87 177.781 1469.31 179.399C1469.85 181.254 1470.01 183.138 1469.85 184.647C1469.47 187.991 1469.38 188.346 1469.03 188.256ZM1456.57 223.529C1455.86 223.518 1454.61 222.786 1452.64 221.245C1450.18 219.288 1449.17 218.743 1445.74 217.633C1441.11 216.097 1439.38 214.782 1438.31 211.831C1437.63 210.153 1437.65 209.739 1438.49 207.057C1440.9 199.279 1440.98 198.46 1440.3 194.602C1439.16 188.406 1439.29 186.512 1441.18 178.979C1442.8 172.511 1442.95 172.087 1445.62 167.307C1447.14 164.587 1448.85 161.789 1449.4 161.129L1450.38 159.907L1449.79 161.228C1448.13 165.003 1446.94 168.434 1445.42 173.669C1444.5 176.834 1443.49 180.186 1443.14 181.064C1442.56 182.552 1442.59 182.601 1443.22 181.586C1443.62 181.015 1444.9 177.397 1446.07 173.582C1447.23 169.805 1448.65 165.635 1449.23 164.314C1450.52 161.535 1452.4 158.066 1452.74 157.859C1453.39 157.476 1450.38 167.996 1449.37 169.671C1448.78 170.656 1448.03 172.648 1447.68 174.067L1447.1 176.69L1448.23 173.536C1449.83 168.991 1450.55 168.459 1449.95 172.207C1449.71 173.864 1449.36 176.418 1449.24 177.937C1449.01 180.521 1448.91 180.747 1447.11 183.062C1445.98 184.54 1445.23 185.861 1445.26 186.413C1445.27 187.715 1445.67 187.647 1446.82 186.258C1448.33 184.416 1448.89 184.89 1447.98 187.177C1447.16 189.237 1447.17 190.411 1447.99 189.653C1448.55 189.082 1449.41 185.65 1449.36 184.171C1449.34 183.579 1449.08 183.095 1448.78 183.105C1448.41 183.094 1448.43 182.848 1448.82 182.276C1449.45 181.3 1449.76 180.038 1450.38 176.045C1450.75 173.579 1450.88 173.234 1451.04 174.112C1452.99 183.821 1454.16 187.72 1456.71 193.011C1458.41 196.495 1459.43 199.308 1459.28 199.939C1459.21 200.215 1458.42 201.151 1457.48 202.047C1454.35 205.12 1453.86 208.098 1455.87 212.037C1457.28 214.821 1457.6 216.242 1457.5 218.984C1457.45 220.187 1457.5 221.499 1457.62 221.864C1457.92 223.029 1457.63 223.502 1456.57 223.529ZM1469.39 170.324C1469.03 170.235 1468.23 168.399 1466.75 164.382C1465.96 162.299 1464.9 159.812 1464.38 158.844C1463.29 156.978 1463.52 156.742 1465.07 158.096C1465.66 158.62 1466.31 160.041 1466.72 161.778C1467.09 163.337 1467.99 165.617 1468.69 166.881C1469.75 168.865 1470.1 170.503 1469.39 170.324Z" fill="#006D33"/>
<path d="M1441.79 254.648C1441.5 253.771 1440.59 252.527 1439.79 251.86C1438.64 250.895 1438.07 249.819 1437.08 246.732C1434.72 239.49 1429.43 225.497 1426.87 219.9C1424.87 215.458 1419.84 205.809 1418.68 204.206C1418.03 203.28 1417.31 202.803 1416.04 202.485C1414.58 202.119 1414.13 202.219 1412.56 203.267C1409.22 205.523 1408.63 207.537 1405.08 229.612C1404.06 235.881 1402.61 244.203 1401.89 248.09C1399.01 263.3 1398.67 269.697 1400.56 272.037C1401.37 273.002 1401.57 273.052 1403.49 272.94C1404.64 272.889 1406.33 272.887 1407.24 272.945C1408.15 273.004 1410.29 272.692 1411.98 272.182C1413.69 271.722 1416.24 271.3 1417.67 271.278C1420.74 271.284 1422.67 270.664 1426.26 268.597C1427.73 267.738 1430.85 266.23 1433.16 265.24C1438.19 263.112 1439.3 262.413 1440.62 260.668C1442.03 258.733 1442.46 256.51 1441.79 254.648ZM1439.91 259.941C1438.69 261.457 1435.97 263.105 1432.59 264.334C1431.09 264.934 1428.28 266.223 1426.38 267.272C1421.9 269.709 1420.19 270.299 1417.45 270.162C1416.24 270.114 1414.05 270.456 1412.55 270.886C1409.97 271.636 1406 272.169 1405.76 271.811C1405.7 271.711 1405.96 271.143 1406.35 270.605C1407.41 269.049 1407.28 267.405 1405.85 265.394C1405.17 264.418 1404.73 263.631 1404.89 263.671C1406.63 264.107 1412.43 263.821 1415.75 263.169C1421.47 262.016 1424.58 260.677 1432.04 256.104C1435.57 253.938 1438.69 252.22 1438.97 252.289C1439.28 252.369 1439.96 253.215 1440.56 254.171C1441.73 256.202 1441.54 257.976 1439.91 259.941ZM1430.66 255.548C1423.38 259.912 1417.44 262.281 1412.92 262.675C1409.49 262.958 1409.41 262.938 1409.21 261.364C1409 259.531 1408.15 259.064 1406.61 259.992C1405.13 260.851 1405.05 262.017 1406.4 262.354C1407.15 262.542 1407.17 262.632 1406.61 262.832C1406.25 262.952 1405.52 262.983 1405.05 262.864C1404.3 262.675 1404.25 262.367 1404.71 259.516C1405.02 257.772 1405.96 251.653 1406.8 245.932C1411.12 216.761 1412.12 211.08 1413.56 207.839C1414.7 205.327 1416.02 203.751 1416.85 203.959C1417.48 204.118 1421.71 211.616 1424.58 217.8C1429.03 227.43 1437.66 249.8 1437.36 250.996C1437.28 251.315 1434.24 253.352 1430.66 255.548ZM1407.27 261.725C1406.4 261.507 1406.41 260.959 1407.32 260.509C1407.8 260.29 1408.07 260.399 1408.3 260.797C1408.75 261.544 1408.26 261.973 1407.27 261.725ZM1404.42 271.095C1402.7 272.233 1401.1 271.408 1400.59 269.077C1400.07 266.786 1400.88 259.531 1402.83 249.385C1403.58 245.378 1404.6 239.448 1405.08 236.179C1406.87 224.339 1407.95 218.339 1409.42 212.269C1411.03 205.68 1411.8 204.135 1413.82 203.624C1415.21 203.294 1415.25 203.473 1414.14 204.68C1413.23 205.638 1412.85 206.814 1411.21 213.562C1409.38 221.028 1408.29 227.406 1406.36 242.007C1405.88 245.744 1404.93 252.072 1404.3 256.109C1403.19 262.906 1403.17 263.494 1403.86 264.26C1404.25 264.698 1405.03 265.783 1405.57 266.68C1406.38 267.984 1406.47 268.472 1406 269.33C1405.69 269.888 1404.98 270.686 1404.42 271.095Z" fill="#006D33"/>
<path d="M1420.71 214.788C1420.02 213.602 1418.96 213.463 1417.76 214.344C1416.87 215.009 1416.74 215.23 1416.96 216.004C1417.1 216.504 1417.53 217.203 1417.94 217.558C1418.52 218.085 1418.84 218.037 1419.78 217.469C1421.12 216.624 1421.38 215.886 1420.71 214.788ZM1419.35 216.898C1418.64 217.312 1418.49 217.316 1418.6 216.879C1418.76 216.243 1419.66 215.498 1420.13 215.614C1420.63 215.739 1420.29 216.33 1419.35 216.898ZM1417.98 215.414C1417.91 215.228 1418.28 214.982 1418.8 214.859C1419.7 214.578 1419.7 214.578 1418.95 215.151C1418.5 215.46 1418.09 215.569 1417.98 215.414Z" fill="#006D33"/>
<path d="M1417.69 221.475C1417.41 220.88 1415.39 220.616 1414.81 221.036C1414.39 221.415 1414.31 221.756 1414.48 222.644C1414.72 224.153 1415.09 224.368 1416.42 223.692C1417.49 223.155 1418.07 222.132 1417.69 221.475ZM1415.46 222.89C1415.1 222.477 1415.3 221.399 1415.7 221.501C1415.84 221.535 1416.1 221.801 1416.27 222.125C1416.61 222.774 1415.95 223.413 1415.46 222.89Z" fill="#006D33"/>
<path d="M1462.12 106.298C1459 101.892 1456.68 94.3105 1456.24 87.1173C1456.11 85.1429 1456.35 79.6367 1456.69 74.8746C1457.72 61.6798 1457.27 55.8756 1454.83 51.1319C1454.18 49.8716 1452.9 48.2041 1451.97 47.3802C1451.03 46.5959 1450.3 45.782 1450.34 45.6232C1450.4 45.3852 1452.26 42.1815 1453.83 39.6227C1454.07 39.1763 1453.76 38.7198 1452.48 37.9353C1450.05 36.3566 1449.67 36.5151 1448.85 39.6399C1447.63 44.1436 1447.4 44.4212 1444.73 44.4298C1439.75 44.447 1434.6 46.9941 1430.61 51.4765C1428.15 54.1936 1425.02 58.5971 1425.23 58.9444C1425.56 59.4903 1426.34 58.7565 1428.34 55.9696C1432.54 50.148 1436.59 46.9455 1441.03 45.9061C1443.06 45.4012 1443.97 45.4612 1446.63 46.1273C1450.41 47.0321 1452.04 48.283 1453.75 51.5778C1456.2 56.2818 1456.57 61.2228 1455.62 74.2688C1454.51 89.5074 1455.59 96.9887 1460.16 104.839C1461.14 106.516 1461.69 107.836 1461.37 107.756C1458.37 106.961 1452.77 102.861 1450.43 99.7044C1447.44 95.6649 1442.81 83.6279 1441.24 75.7694L1440.23 70.6693L1441.84 68.6264C1444.31 65.4925 1447.2 59.8488 1448.04 56.5157C1449.03 52.5476 1448.41 52.3489 1447.14 56.2473C1443.57 67.1192 1434.93 76.3415 1423.38 81.6732C1416.76 84.6958 1407.33 86.1294 1403.26 84.6887L1402.06 84.2615L1404.41 83.4591C1409.06 81.9237 1414.46 77.71 1417.77 73.0983C1419.24 71.0652 1419.27 70.9461 1418.46 71.164C1418.1 71.2431 1416.45 72.9388 1414.76 74.8329C1410.78 79.4046 1405.9 82.3983 1401.44 83.0111C1397.68 83.5449 1398.95 85.2123 1403.73 85.9887C1405.31 86.2574 1408.1 86.4076 1409.99 86.2896C1414.28 86.014 1414.32 86.024 1412.99 87.1245C1410.83 88.9886 1408.55 90.0192 1405.44 90.6327C1403.66 90.989 1402.08 91.4346 1401.91 91.6032C1401.4 92.1089 1403.23 93.2409 1406.11 94.2147C1408.99 95.1885 1413.23 95.409 1416.15 94.7061C1418.12 94.2705 1418.74 94.638 1418.33 95.9672C1418.19 96.3541 1417.77 97.852 1417.41 99.2804C1417.1 100.719 1416.58 102.782 1416.29 103.933C1416 105.084 1415.92 106.582 1416.08 107.296C1416.24 108.011 1416.18 108.923 1415.94 109.37C1415.71 109.776 1415.72 110.917 1415.95 111.86C1416.18 112.803 1416.38 114.37 1416.39 115.343C1416.41 116.444 1416.78 117.506 1417.3 118.101C1417.76 118.637 1418.57 119.769 1419.08 120.612C1419.58 121.456 1420.29 122.349 1420.66 122.567C1421.56 123.173 1423.41 122.708 1424.39 121.647C1424.87 121.091 1425.94 120.517 1426.82 120.358C1428.51 120.022 1429.98 118.534 1430.44 116.709C1430.62 115.995 1431.09 115.608 1431.99 115.41C1433.55 115.044 1435.42 112.644 1435.47 110.928C1435.47 110.084 1435.76 109.608 1436.5 109.162C1437.65 108.478 1438.53 105.959 1438.13 104.51C1437.99 103.885 1438.16 103.547 1438.89 103.181C1439.77 102.685 1439.88 102.755 1441.27 104.789C1442.94 107.231 1446.32 110.06 1449.62 111.897C1452.63 113.536 1453.37 113.258 1452.15 110.887C1450.83 108.406 1449.46 100.894 1450.47 101.738C1454.36 104.945 1456.18 106.246 1459 107.626C1463.96 110.089 1464.61 109.832 1462.12 106.298ZM1450.75 111.422C1450.04 111.243 1445.57 108.016 1444.36 106.785C1443.67 106.15 1442.62 104.79 1442.02 103.837C1440.99 102.19 1440.93 101.922 1441.55 100.474C1442.01 99.323 1442.08 98.5393 1441.79 97.666C1441.51 96.9218 1441.54 96.4654 1441.83 96.3267C1442.1 96.2673 1442.41 96.8528 1442.59 97.6565C1442.87 99.0754 1443.08 98.2421 1442.83 96.7042C1442.77 96.2676 1442.89 95.9601 1443.13 96.0198C1443.33 96.0695 1443.64 97.161 1443.83 98.431C1444.03 99.6614 1444.44 101.239 1444.74 101.904C1445.39 103.333 1445.38 103.204 1444.5 98.8084C1443.74 95.2463 1443.72 94.4823 1444.4 94.6513C1444.64 94.711 1444.75 94.9491 1444.68 95.2269C1444.52 95.8618 1445.88 102.063 1446.31 102.679C1446.54 102.947 1446.3 101.369 1445.88 99.1961C1444.96 94.9592 1445.17 93.0742 1446.16 96.3984C1446.79 98.4127 1448.43 101.985 1448.58 101.559C1448.61 101.44 1448.16 100.189 1447.58 98.8199C1446.99 97.4505 1446.56 96.1208 1446.62 95.8827C1446.8 95.1685 1449.28 100.259 1449.14 100.984C1448.85 102.174 1449.69 107.066 1450.5 109.04C1451.31 111.055 1451.39 111.581 1450.75 111.422ZM1441.75 95.2948C1439.84 96.3356 1439.83 96.3753 1440.38 97.2288C1441.64 99.1046 1440.91 100.821 1438.17 102.327C1436.56 103.189 1436.55 103.229 1436.98 104.559C1437.5 106.375 1437.19 107.267 1435.76 108.09C1434.68 108.705 1434.53 108.963 1434.28 110.967C1433.99 113.129 1433.94 113.159 1431.94 114.259C1430.53 115.003 1429.69 115.806 1429.31 116.679C1428.54 118.553 1427.8 119.168 1426.37 119.316C1425.63 119.385 1424.47 119.98 1423.7 120.714C1422.03 122.32 1421.1 122.131 1420.04 119.968C1419.56 119.045 1418.88 118.201 1418.56 118.122C1417.77 117.923 1417.18 115.71 1417.52 114.361C1417.65 113.845 1417.52 112.843 1417.22 112.178C1416.93 111.513 1416.83 110.392 1417.03 109.559C1417.22 108.805 1417.26 107.465 1417.09 106.622C1416.85 105.421 1416.94 104.896 1417.5 103.983C1418.1 103.12 1418.21 102.515 1418.02 101.245C1417.79 99.7965 1417.86 99.5188 1418.84 98.1204C1419.64 96.9699 1419.88 96.3549 1419.71 95.6802C1419.39 94.42 1419.78 93.0412 1420.75 92.1884C1421.45 91.6034 1421.58 91.2166 1421.52 89.8077C1421.48 88.6171 1421.64 87.8136 1422.16 87.0599C1422.52 86.4747 1422.75 85.7307 1422.66 85.4132C1422.56 85.1353 1422.83 84.4013 1423.23 83.7864C1423.89 82.8541 1424.69 82.3386 1428.92 80.1085C1429.75 79.6823 1430.09 79.6825 1430.67 80.2086C1431.49 80.9631 1431.61 80.8243 1431.22 79.5442C1430.98 78.8099 1431.09 78.5421 1431.99 77.9671C1432.56 77.5606 1434.34 76.1527 1435.91 74.7745C1437.51 73.4459 1438.98 72.2958 1439.17 72.2165C1439.35 72.1769 1439.82 73.8538 1440.18 75.9276C1440.54 78.041 1441.47 81.5636 1442.26 83.826C1444.2 89.3731 1444.48 90.792 1444.06 92.6272C1443.73 93.9366 1443.38 94.3531 1441.75 95.2948ZM1450.66 43.5102C1450.13 44.6409 1449.44 45.5236 1449.21 45.4242C1447.61 44.8976 1447.61 44.8976 1448.34 43.6875C1448.72 43.023 1449.28 41.4359 1449.59 40.2058C1450.2 37.7853 1450.39 37.6664 1451.83 38.8279C1452.61 39.4434 1452.67 39.7113 1452.22 40.485C1451.92 41.0007 1451.24 42.3894 1450.66 43.5102ZM1419.34 92.0885C1417.99 93.6058 1416.38 94.1307 1413.04 94.1786C1410.45 94.207 1404.33 92.8843 1404.47 92.3288C1404.51 92.1701 1405.44 91.8134 1406.55 91.5858C1409.13 91.0514 1412.41 89.2573 1414.82 87.0362C1416.62 85.4199 1420.1 83.8443 1419.87 84.7569C1419.72 85.3521 1417.15 87.7021 1415.13 89.0107C1414.16 89.6948 1413.5 90.2897 1413.7 90.3394C1414.38 90.5084 1417.17 88.4661 1419.19 86.2745L1421.21 84.1226L1421.18 85.4223C1421.13 86.1267 1420.95 87.0096 1420.74 87.3369C1420.52 87.7039 1420.34 88.5868 1420.38 89.2714C1420.41 89.9957 1420.47 90.6009 1420.45 90.6802C1420.48 90.7299 1419.95 91.3546 1419.34 92.0885Z" fill="#006D33"/>
<path d="M1441.92 89.7994C1441.22 89.6238 1440.36 89.1509 1440.04 88.7403C1439.24 87.6909 1438.71 88.1119 1439.47 89.1849C1440.12 90.121 1442.26 90.8776 1442.89 90.4093C1443.11 90.2453 1442.71 89.9969 1441.92 89.7994Z" fill="#006D33"/>
<path d="M1438.91 93.5321C1437.15 92.6262 1436.55 92.622 1437.57 93.5185C1437.87 93.7973 1438.67 94.1135 1439.38 94.2325C1440.57 94.4436 1440.53 94.4054 1438.91 93.5321Z" fill="#006D33"/>
<path d="M1436.32 96.6412C1434.97 95.3709 1434.21 95.4672 1434.69 96.8795C1434.85 97.3503 1435.53 97.738 1436.26 97.7769L1437.57 97.8897L1436.32 96.6412Z" fill="#006D33"/>
<path d="M1434.99 100.595C1434.7 100.442 1434.27 100.334 1433.99 100.326C1433.76 100.349 1433.17 100.101 1432.75 99.7882C1432.08 99.3138 1431.99 99.2921 1431.93 99.5626C1431.82 100.007 1433.21 100.685 1434.43 100.785C1435.11 100.832 1435.26 100.768 1434.99 100.595Z" fill="#006D33"/>
<path d="M1438.51 80.4668C1437.4 80.911 1436.27 80.7039 1435.83 79.9479C1435.39 79.1919 1434.87 79.6325 1435.26 80.4513C1435.83 81.6973 1438.97 81.8742 1439.27 80.6584C1439.39 80.1935 1439.32 80.1761 1438.51 80.4668Z" fill="#006D33"/>
<path d="M1432.06 104.607C1431.27 104.41 1430.66 104.626 1430.52 105.182C1430.36 105.807 1430.75 106.125 1431.53 106.172C1433.21 106.299 1433.67 105.012 1432.06 104.607Z" fill="#006D33"/>
<path d="M1428.7 110.732C1427.82 110.512 1427.3 110.556 1427.4 110.842C1427.45 111.118 1427.97 111.421 1428.49 111.552C1429.01 111.682 1429.61 111.658 1429.79 111.442C1430.02 111.236 1429.58 110.952 1428.7 110.732Z" fill="#006D33"/>
<path d="M1435.74 85.6359C1434.78 85.8677 1434.05 85.6841 1433.04 84.9597C1431.93 84.1569 1431.72 85.3117 1432.85 86.2229C1433.89 87.1147 1435.5 87.0965 1436.07 86.1371C1436.39 85.6423 1436.3 85.5146 1435.74 85.6359Z" fill="#006D33"/>
<path d="M1433.07 90.6005C1432.4 90.5952 1431.52 90.267 1431.17 89.8539C1430.35 88.9473 1429.66 89.5303 1430.22 90.6415C1430.75 91.5299 1433.56 91.9657 1434 91.2122C1434.2 90.7748 1433.95 90.6043 1433.07 90.6005Z" fill="#006D33"/>
<path d="M1430.42 94.9699C1429.9 95.1588 1429.11 95.1629 1428.69 94.937C1427.89 94.4955 1427.44 95.226 1428.23 95.7429C1429.01 96.2598 1431.1 95.9016 1431.26 95.2605C1431.39 94.7326 1431.31 94.7121 1430.42 94.9699Z" fill="#006D33"/>
<path d="M1425.56 115.172C1425.01 115.034 1424.55 115.136 1424.5 115.341C1424.43 115.587 1424.67 115.819 1425.03 115.911C1425.4 116.003 1425.9 115.954 1426.1 115.742C1426.29 115.572 1426.06 115.298 1425.56 115.172Z" fill="#006D33"/>
<path d="M1428.21 99.2878C1427.46 99.1007 1426.81 99.1558 1426.76 99.3607C1426.7 99.6065 1427.14 99.8921 1427.74 100.042C1428.37 100.201 1429.01 100.187 1429.19 99.969C1429.4 99.7606 1428.99 99.4844 1428.21 99.2878Z" fill="#006D33"/>
<path d="M1426.74 104.146C1425.95 103.949 1425.46 104.001 1425.55 104.284C1425.6 104.558 1426.16 104.871 1426.79 105.03C1427.39 105.18 1427.92 105.138 1427.98 104.892C1428.03 104.687 1427.49 104.333 1426.74 104.146Z" fill="#006D33"/>
<path d="M1424.93 107.388C1424.17 106.972 1423.45 106.736 1423.28 106.862C1422.68 107.272 1423.37 107.782 1424.83 107.979L1426.29 108.176L1424.93 107.388Z" fill="#006D33"/>
<path d="M1423.15 111.97C1421.89 111.728 1421.41 112.262 1421.96 113.201C1422.32 113.873 1424.08 113.513 1424.27 112.759C1424.35 112.417 1423.87 112.077 1423.15 111.97Z" fill="#006D33"/>
<path d="M1428.37 82.4313C1427.27 81.1855 1426.34 81.439 1426.93 82.766C1427.14 83.2344 1427.75 83.596 1428.29 83.5927C1429.21 83.6133 1429.24 83.4827 1428.37 82.4313Z" fill="#006D33"/>
<path d="M1426.25 84.5592C1425.86 84.3398 1425.33 83.9636 1425.11 83.7859C1424.44 83.2913 1424.34 84.0405 1424.91 84.9568C1425.2 85.3574 1425.7 85.6848 1426.06 85.6534C1426.97 85.5556 1427.05 85.0852 1426.25 84.5592Z" fill="#006D33"/>
<path d="M1424.85 88.5211C1423.85 87.3062 1423 87.5748 1423.91 88.8145C1424.5 89.5888 1425.58 90.1483 1425.68 89.7402C1425.7 89.6496 1425.31 89.1183 1424.85 88.5211Z" fill="#006D33"/>
<path d="M1423.84 93.3443C1423.74 93.086 1423.32 92.8392 1422.86 92.7245C1422.32 92.5906 1422.18 92.694 1422.39 93.1226C1422.56 93.4441 1423.02 93.7004 1423.39 93.6984C1423.74 93.7405 1423.95 93.5586 1423.84 93.3443Z" fill="#006D33"/>
<path d="M1422.11 99.6964C1421.58 99.3575 1421.02 99.165 1420.85 99.2782C1420.24 99.6444 1420.81 100.201 1421.96 100.282L1423.03 100.341L1422.11 99.6964Z" fill="#006D33"/>
<path d="M1421.86 96.2853C1420.99 95.589 1420.73 95.5776 1420.6 96.0779C1420.52 96.4282 1420.75 96.9645 1421.15 97.2253C1422.93 98.4676 1423.5 97.6531 1421.86 96.2853Z" fill="#006D33"/>
<path d="M1420.75 104.648C1420.45 104.573 1419.87 104.323 1419.45 104.111C1419.02 103.899 1418.65 103.877 1418.6 104.075C1418.46 104.636 1419.9 105.277 1420.66 105.011C1421.13 104.848 1421.15 104.749 1420.75 104.648Z" fill="#006D33"/>
<path d="M1419.02 108.31C1418.27 108.123 1417.58 108.167 1417.53 108.372C1417.47 108.618 1417.91 108.902 1418.44 109.036C1419.03 109.183 1419.72 109.18 1419.94 108.975C1420.21 108.782 1419.77 108.498 1419.02 108.31Z" fill="#006D33"/>
<path d="M1419.05 86.744C1417.2 88.9743 1414.69 90.5598 1411.86 91.2829C1411.06 91.4748 1410.35 91.8185 1410.29 92.0637C1410.14 92.6765 1413.57 91.5804 1415.57 90.3466C1417.77 89.0294 1420.42 86.3931 1420.69 85.3308C1420.79 84.9222 1420.05 85.5618 1419.05 86.744Z" fill="#006D33"/>
<path d="M1444.18 142.2C1443.51 141.281 1443.27 141.18 1442.13 141.568C1440.27 142.168 1441.33 145.124 1443.25 144.656C1444.37 144.343 1444.85 143.157 1444.18 142.2ZM1442.62 143.747C1442.33 143.673 1442.06 143.29 1442.06 142.934C1442.1 142.232 1443.06 142.195 1443.52 142.865C1443.85 143.343 1443.3 143.917 1442.62 143.747Z" fill="#006D33"/>
<path d="M1430.52 195.843C1429.48 193.531 1426.59 193.932 1425.94 196.507C1425.43 198.551 1427.86 200.166 1429.77 199.033C1431 198.297 1431.2 197.341 1430.52 195.843ZM1429.41 198.341C1428.4 199.135 1426.81 198.213 1426.83 196.85C1426.8 195.353 1427.97 194.721 1429.03 195.67C1430.36 196.809 1430.44 197.472 1429.41 198.341Z" fill="#006D33"/>
<path d="M1438.04 159.686C1437.29 158.53 1436.23 158.882 1435.84 160.454C1435.58 161.488 1435.66 161.991 1436.13 162.197C1436.94 162.621 1438.06 162.021 1438.3 161.069C1438.4 160.656 1438.27 160.052 1438.04 159.686ZM1436.67 161.454C1436.39 161.471 1436.28 161.093 1436.4 160.637C1436.61 159.769 1437.09 159.625 1437.45 160.285C1437.7 160.743 1437.25 161.38 1436.67 161.454Z" fill="#006D33"/>
<path d="M1430.1 165.435C1430.87 160.145 1429.47 154.856 1426.42 151.54C1425.59 150.62 1423.07 148.44 1420.82 146.705C1418.31 144.821 1415.52 142.196 1413.75 140.079C1409.99 135.666 1408.48 134.408 1405.95 133.776C1402.83 132.993 1401.34 133.666 1399.49 136.635C1395.81 142.661 1391.93 151.485 1390.5 157.195C1388.91 163.575 1389.48 167.905 1392.61 173.459C1397.33 181.838 1404.85 187.194 1411.25 186.789C1413.07 186.659 1414.34 186.182 1417.1 184.529C1421.81 181.73 1424.75 179.329 1426.19 177.137C1427.69 174.916 1429.52 169.306 1430.1 165.435ZM1425.38 176.305C1421.42 182.596 1415.23 184.353 1408.46 181.109C1405.04 179.458 1402.6 177.298 1400.97 174.422C1397.91 168.968 1397.35 163.554 1398.8 152.156C1399.16 149.319 1399.67 144.925 1399.92 142.393C1400.6 135.408 1402 133.748 1406.17 134.959C1408.03 135.51 1409.02 136.342 1413.59 141.547C1415.15 143.318 1418.27 146.151 1420.56 147.896C1426.03 152.11 1427.72 154.207 1428.59 157.858C1428.96 159.456 1429.23 161.951 1429.19 163.449C1429.12 167.155 1427.3 173.229 1425.38 176.305ZM1413.08 185.447C1410.32 186.095 1405.76 185.079 1402.97 183.293C1400.56 181.685 1397.78 179.189 1397.91 178.677C1397.96 178.48 1397.48 177.985 1396.86 177.578C1396.24 177.171 1395.89 176.706 1396.11 176.51C1396.28 176.343 1396.01 175.859 1395.43 175.462C1394.67 174.936 1394.59 174.749 1395.1 174.584C1395.56 174.448 1395.38 174.151 1394.41 173.408C1393.69 172.892 1393.13 172.249 1393.19 172.012C1393.26 171.697 1393.49 171.797 1394.03 172.223C1394.4 172.609 1394.85 172.848 1394.96 172.75C1395.1 172.701 1394.43 171.988 1393.51 171.215C1391.9 169.848 1390.99 168.03 1392.46 169.111C1394.2 170.341 1394.49 170.204 1393.04 168.838C1392.14 168.025 1391.29 166.977 1391.16 166.483C1390.91 165.457 1391.3 165.429 1392.22 166.498C1392.59 166.884 1393.31 167.439 1393.83 167.737C1394.35 168.035 1393.9 167.462 1392.81 166.52C1391.08 164.955 1390.24 163.532 1390.88 163.19C1390.99 163.092 1391.93 163.747 1392.96 164.589C1393.93 165.461 1394.95 166.136 1395.16 166.146C1395.38 166.118 1394.47 165.177 1393.09 164.038C1391.32 162.63 1390.63 161.789 1390.76 161.277C1390.93 160.608 1391.08 160.687 1392.7 162.055C1393.64 162.877 1394.65 163.591 1394.89 163.651C1395.18 163.722 1394.36 162.89 1393.13 161.869C1391.52 160.463 1390.9 159.681 1390.98 159.031C1391.1 157.888 1391.42 157.968 1392.76 159.266C1393.91 160.434 1395.04 161.217 1395.09 160.981C1395.12 160.863 1394.33 160.12 1393.39 159.298C1391.67 157.822 1391.05 156.705 1391.75 156.294C1391.95 156.177 1392.67 156.564 1393.4 157.208C1395.26 158.804 1395.22 158.794 1395.28 158.557C1395.31 158.439 1394.7 157.786 1393.93 157.132C1392.56 155.953 1392 154.807 1392.61 154.415C1392.76 154.327 1393.41 154.784 1394.05 155.447C1395.89 157.288 1396.1 156.964 1394.31 155.093C1393.44 154.163 1392.8 153.125 1392.87 152.849C1393.03 152.219 1394.1 152.362 1394.31 153.043C1394.38 153.27 1394.81 153.794 1395.23 154.151C1395.65 154.508 1395.44 153.994 1394.74 153.025C1393.49 151.245 1393.68 150.123 1394.96 151.488C1395.37 151.885 1395.78 152.113 1395.93 152.025C1396.07 151.976 1395.69 151.462 1395.1 150.937C1394.01 149.996 1393.81 148.398 1394.86 149.162C1396.45 150.312 1396.73 150.383 1396.08 149.552C1395.73 149.087 1395.32 148.691 1395.12 148.641C1394.96 148.6 1394.87 148.285 1394.94 147.97C1395.07 147.458 1395.24 147.458 1395.8 147.973C1396.18 148.32 1396.53 148.45 1396.58 148.253C1396.64 148.017 1396.34 147.69 1395.92 147.461C1395.39 147.203 1395.3 146.887 1395.58 146.454C1395.84 146.101 1396.24 146.034 1396.56 146.281C1396.99 146.599 1397.03 146.441 1396.59 145.661C1396.08 144.781 1396.27 144.535 1397.16 144.924C1397.35 145.013 1397.37 144.767 1397.16 144.382C1396.79 143.66 1397.73 141.092 1398.42 140.888C1398.97 140.733 1398.8 144.29 1397.91 150.595C1395.81 166.139 1397.13 173.085 1403.39 179.046C1406.29 181.78 1411.05 183.851 1414.91 183.937C1416.26 183.983 1416.29 184.032 1415.62 184.492C1415.24 184.816 1414.07 185.235 1413.08 185.447Z" fill="#006D33"/>
<path d="M1422.92 162.343C1422.98 158.435 1420.99 154.606 1417.63 152.035C1415.55 150.463 1408.72 147.151 1408.16 147.473C1407.54 147.825 1406.26 152.774 1405.92 156.232C1404.99 164.517 1407.4 169.842 1412.66 171.159C1417.71 172.424 1422.82 168.011 1422.92 162.343ZM1420.36 166.972C1418.28 170.501 1413.74 171.429 1410.47 169.009C1406.95 166.357 1406.02 161.106 1407.67 153.127L1408.72 148.205L1409.63 148.642C1410.14 148.895 1411.75 149.678 1413.23 150.429C1417.94 152.705 1420.36 155.335 1421.34 159.164C1422.09 162.136 1421.82 164.47 1420.36 166.972Z" fill="#006D33"/>
<path d="M1418.37 164.938C1417.98 164.64 1417.55 164.483 1417.4 164.596C1417.29 164.719 1417.49 165.017 1417.88 165.315C1418.28 165.612 1418.71 165.769 1418.85 165.656C1418.96 165.534 1418.76 165.236 1418.37 164.938Z" fill="#006D33"/>
<path d="M1417.58 165.735C1416.64 165.228 1415.76 164.905 1415.59 164.965C1415.15 165.093 1417.61 166.422 1418.51 166.51C1418.91 166.542 1418.48 166.198 1417.58 165.735Z" fill="#006D33"/>
<path d="M1415.89 166.209C1414.83 165.701 1413.88 165.32 1413.73 165.345C1413.59 165.37 1414.35 165.784 1415.41 166.292C1416.48 166.78 1417.47 167.172 1417.61 167.166C1417.71 167.13 1416.95 166.698 1415.89 166.209Z" fill="#006D33"/>
<path d="M1416.1 167.237C1415.58 166.971 1414.45 166.037 1413.51 165.119C1412.4 164.057 1412.05 163.83 1412.43 164.44C1413.25 165.669 1415.84 167.787 1416.47 167.741C1416.76 167.745 1416.61 167.535 1416.1 167.237Z" fill="#006D33"/>
<path d="M1414.71 167.393C1414.13 166.915 1413.21 165.91 1412.7 165.154C1412.19 164.398 1411.63 163.816 1411.49 163.928C1411.35 164.004 1411.54 164.495 1411.92 164.996C1412.98 166.369 1415.28 168.533 1415.55 168.38C1415.69 168.303 1415.33 167.88 1414.71 167.393Z" fill="#006D33"/>
<path d="M1411.13 165.968C1410.02 164.577 1409.39 163.925 1409.69 164.537C1410.44 166.043 1412.61 168.727 1412.9 168.592C1413 168.496 1412.22 167.31 1411.13 165.968Z" fill="#006D33"/>
<path d="M1410.97 166.709C1410.28 165.879 1409.6 165.168 1409.47 165.137C1409.05 165.031 1410.67 167.368 1411.45 167.991C1412.46 168.822 1412.26 168.348 1410.97 166.709Z" fill="#006D33"/>
<path d="M1408.74 179.217C1407.93 178.833 1406.58 177.949 1405.81 177.213C1405 176.495 1404.24 175.94 1404.09 175.994C1403.98 176.058 1404.55 176.684 1405.4 177.413C1406.96 178.742 1409.53 180.173 1410.02 180.023C1410.17 179.97 1409.59 179.611 1408.74 179.217Z" fill="#006D33"/>
<path d="M1401.66 170.172C1401.17 169.672 1400.46 165.843 1400.52 164.012C1400.57 162.726 1400.52 162.587 1400.28 163.366C1399.9 164.698 1400.41 168.851 1401.15 170.295C1401.48 170.922 1401.76 171.203 1401.87 170.937C1401.93 170.7 1401.84 170.343 1401.66 170.172Z" fill="#006D33"/>
<path d="M1403.98 142.677C1404.07 141.032 1404.29 139.461 1404.49 139.204C1404.69 138.947 1404.62 138.667 1404.36 138.603C1404.11 138.539 1403.77 138.981 1403.6 139.642C1403.28 141.14 1403.01 146.56 1403.27 146.976C1403.57 147.402 1403.75 146.307 1403.98 142.677Z" fill="#006D33"/>
<path d="M1402.08 151.056C1402.22 149.794 1402.29 147.179 1402.23 145.282C1402.18 143.346 1402.47 140.576 1402.79 139.11C1403.17 137.616 1403.28 136.472 1403.04 136.537C1402.22 136.752 1401.7 140.258 1401.64 145.846C1401.64 148.897 1401.36 152.338 1401.07 153.479C1400.71 154.934 1400.73 155.399 1401.13 155.04C1401.76 154.487 1401.82 154.251 1402.08 151.056Z" fill="#006D33"/>
<path d="M1439.85 118.095C1439.26 117.369 1438.58 117.82 1438.38 119.059C1438.25 119.825 1438.39 120.125 1438.92 120.258C1439.82 120.484 1440.48 118.919 1439.85 118.095ZM1439.13 119.646C1438.77 119.555 1438.64 118.99 1438.91 118.615C1439.19 118.24 1439.6 118.742 1439.45 119.327C1439.4 119.535 1439.25 119.674 1439.13 119.646Z" fill="#006D33"/>
<path d="M1428.4 137.301C1428.29 136.508 1426.59 136.204 1426.16 136.86C1425.6 137.688 1426.06 138.809 1427.07 139.064C1427.94 139.282 1428.53 138.463 1428.4 137.301ZM1426.79 138.026C1426.44 137.415 1426.93 137.013 1427.38 137.529C1427.57 137.697 1427.57 138.019 1427.4 138.219C1427.2 138.41 1426.98 138.355 1426.79 138.026Z" fill="#006D33"/>
<path d="M1403.77 203.129C1403.27 202.492 1402.12 202.58 1401.66 203.32C1400.97 204.447 1402.27 205.695 1403.4 205.02C1404.04 204.634 1404.23 203.757 1403.77 203.129ZM1402.88 204.48C1402.25 204.665 1401.82 203.771 1402.39 203.434C1402.87 203.144 1403.48 203.571 1403.36 204.054C1403.32 204.215 1403.11 204.4 1402.88 204.48Z" fill="#006D33"/>
<path d="M1444.11 21.42C1444 20.8549 1443.45 20.376 1442.79 20.2095C1440.6 19.6609 1438.91 22.9073 1440.49 24.5743C1441.39 25.4832 1442.74 25.2345 1443.55 23.9712C1444.33 22.6981 1444.36 22.56 1444.11 21.42ZM1441.98 23.9212C1441.44 23.784 1441.42 23.6822 1441.93 23.4677C1442.26 23.3061 1442.51 22.9771 1442.42 22.6617C1442.38 22.3562 1442.5 22.0438 1442.78 21.9184C1443.06 21.7931 1443.11 22.2465 1442.95 22.8909C1442.74 23.7195 1442.45 24.0387 1441.98 23.9212Z" fill="#006D33"/>
<path d="M1442.48 6.7367C1442.29 6.37602 1441.71 6.00704 1441.16 5.86785C1438.53 5.20903 1437.16 9.08743 1439.5 10.6149C1441.03 11.5816 1443.38 8.48858 1442.48 6.7367ZM1441.04 9.3394C1440.13 9.96578 1439.89 9.68031 1440.26 8.3377C1440.47 7.67103 1440.73 7.10741 1440.88 7.14453C1441.17 7.21876 1441.76 8.35233 1441.67 8.69031C1441.64 8.81705 1441.37 9.10862 1441.04 9.3394Z" fill="#006D33"/>
<path d="M1393.94 198.581C1394.39 193.814 1393.66 188.794 1392.33 187.336C1390.13 184.908 1381.26 188.359 1377.38 193.143C1375.63 195.333 1375.53 195.559 1374.95 199.042C1374.43 202.122 1374.42 202.956 1375.05 204.739C1377 210.315 1380.52 214.741 1384.2 216.205C1386.29 217.063 1387.31 216.649 1389.18 214.282C1390.26 212.926 1390.66 211.817 1392.14 206.264C1393.07 202.702 1393.89 199.278 1393.94 198.581ZM1391.76 203.165C1391.09 202.706 1390.79 201.255 1391.38 201.195C1391.72 201.155 1391.8 200.841 1391.57 199.949C1391.38 199.067 1391.42 198.743 1391.87 198.605C1392.27 198.457 1392.31 198.3 1391.95 197.918C1391.69 197.644 1391.68 197.183 1391.89 196.859C1392.08 196.575 1392.14 196.172 1391.95 195.957C1391.79 195.791 1391.74 195.32 1391.9 194.986C1392.08 194.613 1392.03 193.976 1391.82 193.505C1391.22 192.271 1392.02 192.22 1392.74 193.445C1393.2 194.268 1393.2 194.601 1392.82 194.631C1392.39 194.691 1392.37 194.936 1392.77 195.661C1393.13 196.376 1393.1 196.661 1392.76 196.701C1392.38 196.731 1392.34 197.055 1392.59 197.868C1392.89 198.652 1392.86 198.936 1392.51 198.849C1392.12 198.752 1392.09 198.869 1392.36 199.438C1392.55 199.82 1392.52 200.438 1392.3 200.84C1392.12 201.213 1392.01 201.812 1392.14 202.135C1392.41 203.037 1392.26 203.459 1391.76 203.165ZM1391.23 204.785C1390.98 204.432 1390.81 203.972 1390.86 203.775C1390.92 203.54 1391.18 203.647 1391.42 204C1391.67 204.352 1391.84 204.813 1391.79 205.009C1391.73 205.245 1391.47 205.137 1391.23 204.785ZM1390.93 206.796C1390.66 206.728 1390.6 206.963 1390.73 207.581C1390.89 208.287 1390.85 208.443 1390.38 208.327C1389.95 208.22 1389.91 207.749 1390.23 206.621C1390.55 205.325 1390.72 205.158 1391.06 205.619C1391.54 206.324 1391.47 206.932 1390.93 206.796ZM1389.52 209.947C1388.96 209.556 1389.04 208.408 1389.58 208.544C1390.09 208.671 1390.33 209.19 1390.18 209.779C1390.1 210.093 1389.84 210.152 1389.52 209.947ZM1388.92 211.507C1388.76 211.341 1388.66 210.9 1388.74 210.586C1388.82 210.272 1389.05 210.163 1389.22 210.33C1389.42 210.506 1389.48 210.937 1389.4 211.251C1389.32 211.565 1389.13 211.683 1388.92 211.507ZM1387.33 213.737C1387.13 213.394 1387.22 213.207 1387.52 213.158C1387.81 213.147 1388.01 212.696 1388.01 212.196C1388 211.401 1388.09 211.381 1388.49 211.94C1388.89 212.459 1388.86 212.743 1388.28 213.431C1387.8 214.02 1387.53 214.119 1387.33 213.737ZM1392.6 192.2C1392.06 192.063 1391.2 190.221 1391.55 189.976C1391.73 189.897 1392.15 190.21 1392.48 190.709C1393.11 191.659 1393.15 192.336 1392.6 192.2ZM1386.83 214.944C1386.63 214.895 1386.49 214.65 1386.54 214.415C1386.59 214.219 1386.81 214.189 1386.97 214.355C1387.18 214.531 1387.28 214.766 1387.25 214.884C1387.23 214.963 1387.06 215.002 1386.83 214.944ZM1388.87 204.486C1388.58 204.29 1388.09 204.291 1387.78 204.547C1386.92 205.166 1387.12 206.676 1388.09 206.919C1388.79 207.094 1388.83 207.271 1388.14 208.851C1387.1 211.383 1385.13 214.604 1384.65 214.566C1384.01 214.489 1383.19 209.822 1383.4 207.664C1383.57 206.163 1383.75 205.79 1384.05 206.074C1384.53 206.613 1385.75 206.041 1385.98 205.139C1386.19 204.275 1385.22 203.532 1384.42 203.916C1383.53 204.359 1384.05 200.484 1385.38 196.48C1386.72 192.437 1387.14 191.75 1388.23 191.855C1388.96 191.913 1389.13 191.706 1389.41 190.274C1389.61 189.322 1389.91 188.606 1390.1 188.655C1390.45 188.742 1391.04 193.144 1390.82 194.047C1390.71 194.479 1390.47 194.46 1389.9 194.068C1388.6 193.159 1387.22 193.564 1386.88 194.938C1386.72 195.566 1386.78 196.164 1387.01 196.222C1387.24 196.28 1387.24 196.614 1386.98 197.007C1386.47 197.88 1387.02 198.517 1388.76 198.955C1389.97 199.256 1390.12 199.462 1390.06 200.531C1390.05 201.237 1389.87 202.444 1389.69 203.317C1389.45 204.465 1389.25 204.75 1388.87 204.486ZM1391.52 188.759C1390.96 188.368 1390.94 187.613 1391.49 187.749C1391.91 187.856 1392.23 188.395 1392.13 188.788C1392.09 188.984 1391.8 188.955 1391.52 188.759ZM1389.68 197.433C1389.67 197.138 1389.38 196.815 1389.07 196.738C1388.76 196.66 1388.57 196.444 1388.63 196.209C1388.67 196.013 1388.45 195.748 1388.14 195.671C1387.83 195.593 1387.63 195.25 1387.71 194.936C1387.9 194.151 1389.21 194.521 1389.79 195.5C1390.06 195.902 1390.17 196.637 1390.01 197.099C1389.9 197.569 1389.74 197.697 1389.68 197.433ZM1388.25 191.11C1388.06 191.061 1388.05 190.767 1388.24 190.482C1388.48 190.207 1388.7 189.972 1388.78 189.991C1388.86 190.01 1388.86 190.305 1388.79 190.619C1388.71 190.933 1388.48 191.168 1388.25 191.11ZM1384.71 205.239C1384.52 205.191 1384.34 205.064 1384.36 204.985C1384.39 204.867 1384.64 204.72 1384.86 204.651C1385.12 204.591 1385.26 204.709 1385.21 204.905C1385.15 205.14 1384.95 205.298 1384.71 205.239ZM1385.69 192.93C1385.03 194.392 1384.2 197.228 1383.46 200.839C1382.3 206.303 1382.25 207 1382.58 213.256C1382.64 214.021 1382.6 214.011 1382.13 213.394C1381.85 213.032 1381.64 212.562 1381.68 212.405C1381.82 211.855 1381.28 208.885 1381.05 208.993C1380.94 209.091 1380.95 209.886 1381.05 210.788C1381.21 211.66 1381.2 212.494 1381.06 212.582C1380.68 212.779 1380.66 212.691 1380.12 210.554C1379.71 208.908 1379.59 209.045 1379.84 211.026C1380 212.359 1378.67 210.067 1378.45 208.635C1378.35 207.733 1378.16 207.479 1377.85 207.734C1377.58 208 1377.39 207.618 1377.2 206.569C1377.08 205.706 1376.82 204.932 1376.59 204.873C1376.39 204.825 1376.01 204.061 1375.74 203.159C1375.26 201.748 1375.33 201.139 1376.24 198.196C1377.36 194.516 1378.16 193.298 1381.16 191.046C1382.9 189.728 1388.09 187.315 1388.78 187.49C1388.94 187.529 1388.59 188.275 1387.93 189.11C1387.29 189.994 1386.29 191.702 1385.69 192.93Z" fill="#006D33"/>
<path d="M1385.77 207.968C1384.84 207.735 1384.2 208.812 1384.67 209.847C1385.11 210.873 1385.85 210.554 1386.2 209.175C1386.38 208.442 1386.28 208.097 1385.77 207.968Z" fill="#006D33"/>
<path d="M1387.03 200.013C1386.33 198.944 1385.21 199.2 1384.88 200.543C1384.5 202.054 1385.28 203.142 1386.35 202.564C1387.29 202.041 1387.63 200.875 1387.03 200.013ZM1385.66 201.453C1385.47 201.406 1385.35 201.064 1385.44 200.728C1385.52 200.393 1385.78 200.146 1385.98 200.194C1386.2 200.251 1386.28 200.583 1386.2 200.919C1386.11 201.255 1385.89 201.511 1385.66 201.453Z" fill="#006D33"/>
<path d="M1432.35 41.3534C1432.3 41.2017 1431.88 40.9921 1431.44 40.8806C1430.41 40.6227 1429.55 41.6928 1429.71 43.0535C1429.85 44.0268 1430.8 44.5065 1431.55 43.9664C1432.02 43.6321 1432.6 41.7966 1432.35 41.3534ZM1431.25 43.2665C1430.86 43.1689 1430.76 42.7605 1431.05 42.312C1431.44 41.6813 1431.83 41.9166 1431.64 42.6684C1431.55 43.028 1431.36 43.2944 1431.25 43.2665Z" fill="#006D33"/>
<path d="M1433.91 25.7073C1432.51 23.7422 1429.89 24.2124 1429.31 26.5454C1429.08 27.4645 1429.2 28.0215 1429.77 28.576C1430.85 29.6746 1431.7 29.811 1432.97 29.1154C1434.34 28.3699 1434.76 26.8956 1433.91 25.7073ZM1432.02 28.5031C1431.31 28.5495 1431.34 26.4915 1432.08 26.339C1432.51 26.2201 1432.71 26.459 1432.74 27.0306C1432.84 28.0678 1432.64 28.5067 1432.02 28.5031Z" fill="#006D33"/>
<path d="M1419.47 79.4044C1418.31 80.1297 1416.39 81.1535 1415.18 81.744C1413.05 82.7559 1413.05 82.7559 1414.87 82.1145C1417.3 81.2594 1421.39 79.0326 1421.53 78.4973C1421.57 78.3061 1420.67 78.6891 1419.47 79.4044Z" fill="#006D33"/>
<path d="M1424.98 60.4937C1424.28 59.6734 1423.59 59.8234 1423.33 60.8623C1423.18 61.4683 1423.33 62.1508 1423.6 62.3572C1423.94 62.5789 1424.19 62.5968 1424.26 62.3371C1424.31 62.1207 1424.55 61.6751 1424.81 61.418C1425.08 61.1176 1425.12 60.7128 1424.98 60.4937Z" fill="#006D33"/>
<path d="M1422.58 63.7393C1421.92 64.1258 1421.03 65.1635 1420.61 66.0149L1419.9 67.5999L1421.21 66.7198C1421.91 66.2385 1422.54 65.5906 1422.62 65.2589C1422.7 64.9272 1423.03 64.2531 1423.29 63.816C1423.78 63.1313 1423.73 63.119 1422.58 63.7393Z" fill="#006D33"/>
<path d="M1416.07 79.7963C1414.77 80.3282 1413.43 81.0434 1413.04 81.3751C1412.65 81.7067 1413.36 81.5321 1414.71 81.0121C1416 80.4802 1417.35 79.765 1417.74 79.4333C1418.13 79.1016 1417.37 79.2644 1416.07 79.7963Z" fill="#006D33"/>
<path d="M1431.43 15.8099C1430.56 15.0936 1429.61 15.3995 1429.23 16.4781C1428.76 17.7603 1429.38 18.9086 1430.47 18.7747C1431.4 18.6478 1432.15 16.3968 1431.43 15.8099Z" fill="#006D33"/>
<path d="M1415.43 77.895C1415.23 78.0763 1414.82 78.6682 1414.52 79.2844C1414.12 80.0515 1414.08 80.2146 1414.32 80.0454C1414.52 79.8642 1414.93 79.2722 1415.24 78.6561C1415.63 77.889 1415.67 77.7259 1415.43 77.895Z" fill="#006D33"/>
<path d="M1412.31 83.1173C1412.2 83.0897 1411.7 83.1973 1411.25 83.3733C1410.43 83.6027 1410.48 83.6438 1411.45 83.5103C1412.42 83.3769 1412.75 83.2278 1412.31 83.1173Z" fill="#006D33"/>
<path d="M1422.75 33.8214C1422.62 33.3558 1422.05 32.7307 1421.49 32.397C1419.93 31.5249 1418.27 32.3631 1417.82 34.1791C1417.59 35.0871 1417.65 35.4883 1418.01 35.3374C1418.32 35.2223 1418.35 35.2772 1418.1 35.6024C1416.82 37.0182 1419.96 38.8174 1421.53 37.5684C1422.49 36.7956 1423.02 35.1443 1422.75 33.8214ZM1420.99 36.4704C1420.13 37.1714 1419.09 37.1513 1419.26 36.4703C1419.32 36.2433 1419.67 35.8009 1420.01 35.5496C1420.4 35.3079 1420.69 34.8011 1420.65 34.4548C1420.66 33.7812 1420.78 33.7643 1421.55 34.3915C1422.22 34.9447 1422.05 35.6257 1420.99 36.4704ZM1419.61 35.0629C1419.42 35.0154 1419.28 34.7863 1419.35 34.5139C1419.4 34.2869 1419.65 34.1074 1419.84 34.1549C1420.07 34.2119 1420.16 34.4769 1420.1 34.7039C1420.04 34.9763 1419.84 35.1199 1419.61 35.0629Z" fill="#006D33"/>
<path d="M1375.06 224.041C1374.12 222.707 1372 223.157 1371.87 224.771C1371.76 225.921 1372.85 226.86 1373.97 226.59C1375 226.299 1375.63 224.851 1375.06 224.041ZM1373.43 225.828C1372.65 225.83 1372.52 224.542 1373.25 224.176C1373.72 223.94 1373.92 224.031 1374.12 224.512C1374.43 225.294 1374.17 225.778 1373.43 225.828Z" fill="#006D33"/>
<path d="M1412.41 68.6231C1412.09 68.0221 1410.58 67.884 1410.21 68.3922C1409.45 69.5216 1410.67 71.1454 1411.79 70.4665C1412.35 70.1271 1412.73 69.1018 1412.41 68.6231ZM1411.06 69.6032C1410.76 69.5285 1410.54 69.3128 1410.59 69.0871C1410.64 68.899 1410.95 68.7762 1411.24 68.8509C1411.54 68.9255 1411.76 69.1789 1411.71 69.3669C1411.65 69.5926 1411.35 69.6778 1411.06 69.6032Z" fill="#006D33"/>
<path d="M1427.74 6.91012C1427.6 6.32546 1427.05 5.52223 1426.52 5.11697C1425.76 4.49557 1425.4 4.44404 1424.35 4.65057C1422.94 4.96279 1422.39 5.49106 1422.01 7.00196C1421.6 8.62341 1422.37 9.87371 1424.06 10.296C1426.41 10.8852 1428.31 9.12837 1427.74 6.91012ZM1425.74 9.22952C1424.9 9.76275 1423.43 9.63033 1423.59 9.00386C1423.64 8.81961 1423.95 8.58372 1424.3 8.51487C1425.24 8.24203 1426 6.86619 1425.26 6.6796C1424.9 6.59122 1424.67 6.37508 1424.72 6.15397C1424.83 5.71176 1424.91 5.7314 1426.05 6.48785C1427.13 7.18782 1427.02 8.45301 1425.74 9.22952ZM1423.33 7.52992C1423.06 7.30395 1422.84 7.01411 1422.88 6.82985C1422.92 6.68245 1423.21 6.67748 1423.5 6.8666C1423.78 7.09256 1424 7.38241 1423.95 7.56667C1423.91 7.71407 1423.62 7.71903 1423.33 7.52992Z" fill="#006D33"/>
<path d="M1399.57 119.469C1399.3 117.703 1397.24 117.268 1396.03 118.746C1395.48 119.457 1395.4 119.8 1395.72 120.651C1396.22 121.989 1398.12 122.585 1399.02 121.677C1399.71 120.919 1399.76 120.691 1399.57 119.469ZM1397.24 121.11C1396.18 121.007 1395.95 119.899 1396.76 119.009C1397.27 118.489 1397.51 118.51 1398.06 119.01C1398.98 119.808 1398.41 121.243 1397.24 121.11Z" fill="#006D33"/>
<path d="M1381.36 177.222C1380.9 176.027 1379.82 175.716 1378.6 176.449C1376.81 177.521 1377.18 179.694 1379.22 180.203C1381.06 180.665 1382.14 179.217 1381.36 177.222ZM1379.44 179.46C1378.46 179.215 1378.05 177.672 1378.83 177.108C1379.67 176.478 1380.72 177.541 1380.43 178.708C1380.26 179.385 1380.01 179.601 1379.44 179.46Z" fill="#006D33"/>
<path d="M1420.21 19.5559C1419.98 17.249 1416.53 16.719 1415.01 18.7335C1413.36 20.9534 1414.67 24.2996 1417.13 24.1005C1419.32 23.9318 1420.46 22.2532 1420.21 19.5559ZM1418.09 22.6174C1417.33 23.1442 1415.61 22.7616 1415.76 22.1307C1415.82 21.9054 1416.08 21.7298 1416.31 21.7895C1416.87 21.9287 1418.15 21.0508 1418.3 20.4199C1418.47 19.7439 1417.79 19.6199 1417.37 20.2813C1417.18 20.5218 1417.04 20.5821 1417.11 20.3117C1417.16 20.0864 1417.41 19.6205 1417.69 19.3097C1418.15 18.8486 1418.31 18.8883 1418.71 19.4683C1419.28 20.3782 1418.96 22.0204 1418.09 22.6174Z" fill="#006D33"/>
<path d="M1411.13 54.9539C1410.7 54.8482 1410 55.0599 1409.6 55.4629L1408.84 56.1233L1410.15 55.6766C1410.86 55.4286 1411.56 55.2169 1411.66 55.204C1411.77 55.1546 1411.55 55.0595 1411.13 54.9539Z" fill="#006D33"/>
</g>
</g>
<defs>
<clipPath id="clip0_3921_2883">
<rect width="1440" height="223" fill="white"/>
</clipPath>
</defs>
</svg>
