<svg width="38" height="40" viewBox="0 0 38 40" fill="none" xmlns="http://www.w3.org/2000/svg">
<path d="M9.21606 19.1092C9.21606 14.2348 9.21606 11.7976 10.6601 10.2833C12.1042 8.76904 14.4284 8.76904 19.0769 8.76904C23.7252 8.76904 26.0495 8.76904 27.4936 10.2833C28.9376 11.7976 28.9376 14.2348 28.9376 19.1092C28.9376 23.9835 28.9376 26.4207 27.4936 27.9351C26.0495 29.4493 23.7252 29.4493 19.0769 29.4493C14.4284 29.4493 12.1042 29.4493 10.6601 27.9351C9.21606 26.4207 9.21606 23.9835 9.21606 19.1092Z" stroke="#006D33" stroke-width="1.19577" stroke-linejoin="round"/>
<path d="M23.6714 19.1093C23.6714 21.7462 21.6144 23.8837 19.0768 23.8837C16.5393 23.8837 14.4822 21.7462 14.4822 19.1093C14.4822 16.4725 16.5393 14.335 19.0768 14.335C21.6144 14.335 23.6714 16.4725 23.6714 19.1093Z" stroke="#006D33" stroke-width="1.19577"/>
<path d="M24.7012 13.2737H24.6912" stroke="#006D33" stroke-width="1.59436" stroke-linecap="round" stroke-linejoin="round"/>
</svg>
