<svg width="16" height="16" viewBox="0 0 16 16" fill="none" xmlns="http://www.w3.org/2000/svg">
<path d="M13.9375 10.5C14.1125 10.5 14.25 10.6375 14.25 10.8125V11.4375C14.25 12.475 13.4125 13.3125 12.375 13.3125C12.375 12.2813 11.5312 11.4375 10.5 11.4375C9.46875 11.4375 8.625 12.2813 8.625 13.3125H7.375C7.375 12.2813 6.53125 11.4375 5.5 11.4375C4.46875 11.4375 3.625 12.2813 3.625 13.3125C2.5875 13.3125 1.75 12.475 1.75 11.4375V10.1875C1.75 9.84375 2.03125 9.5625 2.375 9.5625H8.3125C9.175 9.5625 9.875 8.8625 9.875 8V4.5625C9.875 4.21875 10.1562 3.9375 10.5 3.9375H11.025C11.475 3.9375 11.8875 4.18125 12.1125 4.56875L12.5125 5.26875C12.5687 5.36875 12.4937 5.5 12.375 5.5C11.5125 5.5 10.8125 6.2 10.8125 7.0625V8.9375C10.8125 9.8 11.5125 10.5 12.375 10.5H13.9375Z" fill="#6D9E3F"/>
<path d="M5.5 14.5625C6.19036 14.5625 6.75 14.0029 6.75 13.3125C6.75 12.6221 6.19036 12.0625 5.5 12.0625C4.80964 12.0625 4.25 12.6221 4.25 13.3125C4.25 14.0029 4.80964 14.5625 5.5 14.5625Z" fill="#6D9E3F"/>
<path d="M10.5 14.5625C11.1904 14.5625 11.75 14.0029 11.75 13.3125C11.75 12.6221 11.1904 12.0625 10.5 12.0625C9.80964 12.0625 9.25 12.6221 9.25 13.3125C9.25 14.0029 9.80964 14.5625 10.5 14.5625Z" fill="#6D9E3F"/>
<path d="M14.25 8.64375V9.5625H12.375C12.0312 9.5625 11.75 9.28125 11.75 8.9375V7.0625C11.75 6.71875 12.0312 6.4375 12.375 6.4375H13.1813L14.0875 8.025C14.1937 8.2125 14.25 8.425 14.25 8.64375Z" fill="#6D9E3F"/>
<path d="M8.675 2.0625H4.05625C2.9375 2.0625 2 2.8625 1.79375 3.925H4.525C4.7625 3.925 4.95 4.11875 4.95 4.35625C4.95 4.59375 4.7625 4.78125 4.525 4.78125H1.75V5.64375H3.375C3.6125 5.64375 3.80625 5.8375 3.80625 6.075C3.80625 6.3125 3.6125 6.5 3.375 6.5H1.75V7.3625H2.23125C2.46875 7.3625 2.6625 7.55625 2.6625 7.79375C2.6625 8.03125 2.46875 8.21875 2.23125 8.21875H1.75V8.3625C1.75 8.70625 2.03125 8.9875 2.375 8.9875H8.09375C8.73125 8.9875 9.25 8.46875 9.25 7.83125V2.6375C9.25 2.31875 8.99375 2.0625 8.675 2.0625Z" fill="#6D9E3F"/>
<path d="M1.79375 3.92499H1.7H1.0875C0.85 3.92499 0.65625 4.11874 0.65625 4.35624C0.65625 4.59374 0.85 4.78124 1.0875 4.78124H1.65625H1.75V4.36874C1.75 4.21874 1.76875 4.06874 1.79375 3.92499Z" fill="#6D9E3F"/>
<path d="M1.65625 5.64374H1.0875C0.85 5.64374 0.65625 5.83749 0.65625 6.07499C0.65625 6.31249 0.85 6.49999 1.0875 6.49999H1.65625H1.75V5.64374H1.65625Z" fill="#6D9E3F"/>
<path d="M1.65625 7.36249H1.0875C0.85 7.36249 0.65625 7.55624 0.65625 7.79374C0.65625 8.03124 0.85 8.21874 1.0875 8.21874H1.65625H1.75V7.36249H1.65625Z" fill="#6D9E3F"/>
</svg>
