<svg width="38" height="38" viewBox="0 0 38 38" fill="none" xmlns="http://www.w3.org/2000/svg">
<path d="M14.1365 17V24" stroke="#006D33" stroke-width="1.2" stroke-linecap="round" stroke-linejoin="round"/>
<path d="M18.1365 20V24M18.1365 20C18.1365 18.3431 19.4796 17 21.1365 17C22.7934 17 24.1365 18.3431 24.1365 20V24M18.1365 20V17" stroke="#006D33" stroke-width="1.2" stroke-linecap="round" stroke-linejoin="round"/>
<path d="M14.1445 14H14.1355" stroke="#006D33" stroke-width="1.2" stroke-linecap="round" stroke-linejoin="round"/>
<path d="M9.63647 19C9.63647 14.5217 9.63647 12.2825 11.0277 10.8912C12.419 9.5 14.6581 9.5 19.1365 9.5C23.6148 9.5 25.854 9.5 27.2453 10.8912C28.6365 12.2825 28.6365 14.5217 28.6365 19C28.6365 23.4783 28.6365 25.7175 27.2453 27.1088C25.854 28.5 23.6148 28.5 19.1365 28.5C14.6581 28.5 12.419 28.5 11.0277 27.1088C9.63647 25.7175 9.63647 23.4783 9.63647 19Z" stroke="#006D33" stroke-width="1.2" stroke-linejoin="round"/>
</svg>
