<svg width="16" height="16" viewBox="0 0 16 16" fill="none" xmlns="http://www.w3.org/2000/svg">
<path d="M11.5008 4.0063L7.96953 2.1063C7.59453 1.9063 7.15078 1.9063 6.77578 2.1063L3.25078 4.0063C2.99453 4.15005 2.83203 4.42505 2.83203 4.72505C2.83203 5.0313 2.98828 5.3063 3.25078 5.4438L6.78203 7.3438C6.96953 7.4438 7.17578 7.4938 7.37578 7.4938C7.57578 7.4938 7.78828 7.4438 7.96953 7.3438L11.5008 5.4438C11.757 5.3063 11.9195 5.0313 11.9195 4.72505C11.9195 4.42505 11.757 4.15005 11.5008 4.0063Z" fill="#6D9E3F"/>
<path d="M6.2 8.00625L2.91875 6.36875C2.6625 6.2375 2.375 6.25625 2.13125 6.4C1.89375 6.55 1.75 6.80625 1.75 7.0875V10.1875C1.75 10.725 2.05 11.2062 2.53125 11.45L5.8125 13.0875C5.925 13.1437 6.05 13.175 6.175 13.175C6.31875 13.175 6.46875 13.1312 6.6 13.0562C6.8375 12.9062 6.98125 12.65 6.98125 12.3687V9.26875C6.975 8.73124 6.675 8.25 6.2 8.00625Z" fill="#6D9E3F"/>
<path d="M12.9984 7.0875V8.625C12.6984 8.5375 12.3797 8.5 12.0609 8.5C11.2109 8.5 10.3797 8.79375 9.72344 9.31875C8.82344 10.025 8.31094 11.0937 8.31094 12.25C8.31094 12.5562 8.34844 12.8625 8.42969 13.1562C8.33594 13.1437 8.24219 13.1062 8.15469 13.05C7.91719 12.9062 7.77344 12.65 7.77344 12.3687V9.26875C7.77344 8.73124 8.07344 8.25 8.54844 8.00625L11.8297 6.36875C12.0859 6.2375 12.3734 6.25625 12.6172 6.4C12.8547 6.55 12.9984 6.80625 12.9984 7.0875Z" fill="#6D9E3F"/>
<path d="M14.2375 10.4813C13.725 9.85001 12.9437 9.45001 12.0625 9.45001C11.4 9.45001 10.7875 9.68126 10.3062 10.0688C9.65625 10.5813 9.25 11.375 9.25 12.2625C9.25 12.7875 9.4 13.2875 9.65625 13.7125C9.825 13.9938 10.0375 14.2375 10.2875 14.4375H10.2938C10.775 14.8375 11.3937 15.075 12.0625 15.075C12.775 15.075 13.4187 14.8125 13.9125 14.375C14.1312 14.1875 14.3188 13.9625 14.4688 13.7125C14.725 13.2875 14.875 12.7875 14.875 12.2625C14.875 11.5875 14.6375 10.9625 14.2375 10.4813ZM13.475 11.9125L11.975 13.3C11.8875 13.3813 11.7688 13.425 11.6563 13.425C11.5375 13.425 11.4187 13.3813 11.325 13.2875L10.6312 12.5938C10.45 12.4125 10.45 12.1125 10.6312 11.9313C10.8125 11.75 11.1125 11.75 11.2938 11.9313L11.6688 12.3063L12.8375 11.225C13.025 11.05 13.325 11.0625 13.5 11.25C13.6812 11.4438 13.6688 11.7375 13.475 11.9125Z" fill="#6D9E3F"/>
</svg>
