<svg width="26" height="28" viewBox="0 0 26 28" fill="none" xmlns="http://www.w3.org/2000/svg">
<path d="M12.8554 23.2517C14.7339 23.2517 16.5352 23.0571 18.2045 22.7003C20.2897 22.2546 21.3324 22.0317 22.2838 20.7489C23.2352 19.4662 23.2352 17.9938 23.2352 15.0487V12.9513C23.2352 10.0062 23.2352 8.53373 22.2838 7.25101C21.3324 5.9683 20.2897 5.74544 18.2045 5.29971C16.5352 4.94287 14.7339 4.74829 12.8554 4.74829C10.977 4.74829 9.17568 4.94287 7.50627 5.29971C5.42107 5.74544 4.37848 5.9683 3.42706 7.25101C2.47565 8.53373 2.47565 10.0062 2.47565 12.9513V15.0487C2.47565 17.9938 2.47565 19.4662 3.42706 20.7489C4.37848 22.0317 5.42107 22.2546 7.50627 22.7003C9.17568 23.0571 10.977 23.2517 12.8554 23.2517Z" stroke="white" stroke-width="1.19577"/>
<path d="M17.0718 14.3455C16.9139 15.0138 16.0735 15.4938 14.3928 16.4538C12.5647 17.4979 11.6507 18.02 10.9104 17.8189C10.6597 17.7507 10.4287 17.6309 10.2348 17.4684C9.66223 16.9886 9.66223 15.9925 9.66223 14.0004C9.66223 12.0082 9.66223 11.0121 10.2348 10.5323C10.4287 10.3698 10.6597 10.25 10.9104 10.1819C11.6507 9.98078 12.5647 10.5028 14.3928 11.5469C16.0735 12.5069 16.9139 12.9869 17.0718 13.6552C17.1256 13.8827 17.1256 14.1181 17.0718 14.3455Z" stroke="white" stroke-width="1.19577" stroke-linejoin="round"/>
</svg>
