<svg width="20" height="20" viewBox="0 0 20 20" fill="none" xmlns="http://www.w3.org/2000/svg">
<path d="M18.3083 15.2751C18.3083 15.5751 18.2417 15.8834 18.1 16.1834C17.9583 16.4834 17.775 16.7667 17.5333 17.0334C17.125 17.4834 16.675 17.8084 16.1667 18.0167C15.6667 18.2251 15.125 18.3334 14.5417 18.3334C13.6917 18.3334 12.7833 18.1334 11.825 17.7251C10.8667 17.3167 9.90834 16.7667 8.95834 16.0751C8.00001 15.3751 7.09167 14.6001 6.22501 13.7417C5.36667 12.8751 4.59167 11.9667 3.90001 11.0167C3.21667 10.0667 2.66667 9.11675 2.26667 8.17508C1.86667 7.22508 1.66667 6.31675 1.66667 5.45008C1.66667 4.88341 1.76667 4.34175 1.96667 3.84175C2.16667 3.33341 2.48334 2.86675 2.92501 2.45008C3.45834 1.92508 4.04167 1.66675 4.65834 1.66675C4.89167 1.66675 5.12501 1.71675 5.33334 1.81675C5.55001 1.91675 5.74167 2.06675 5.89167 2.28341L7.82501 5.00841C7.97501 5.21675 8.08334 5.40841 8.15834 5.59175C8.23334 5.76675 8.27501 5.94175 8.27501 6.10008C8.27501 6.30008 8.21667 6.50008 8.10001 6.69175C7.99167 6.88341 7.83334 7.08341 7.63334 7.28341L7.00001 7.94175C6.90834 8.03341 6.86667 8.14175 6.86667 8.27508C6.86667 8.34175 6.87501 8.40008 6.89167 8.46675C6.91667 8.53341 6.94167 8.58341 6.95834 8.63341C7.10834 8.90841 7.36667 9.26675 7.73334 9.70008C8.10834 10.1334 8.50834 10.5751 8.94167 11.0167C9.39167 11.4584 9.82501 11.8667 10.2667 12.2417C10.7 12.6084 11.0583 12.8584 11.3417 13.0084C11.3833 13.0251 11.4333 13.0501 11.4917 13.0751C11.5583 13.1001 11.625 13.1084 11.7 13.1084C11.8417 13.1084 11.95 13.0584 12.0417 12.9667L12.675 12.3417C12.8833 12.1334 13.0833 11.9751 13.275 11.8751C13.4667 11.7584 13.6583 11.7001 13.8667 11.7001C14.025 11.7001 14.1917 11.7334 14.375 11.8084C14.5583 11.8834 14.75 11.9917 14.9583 12.1334L17.7167 14.0917C17.9333 14.2417 18.0833 14.4167 18.175 14.6251C18.2583 14.8334 18.3083 15.0417 18.3083 15.2751Z" stroke="white" stroke-width="1.25" stroke-miterlimit="10"/>
</svg>
