<svg width="16" height="16" viewBox="0 0 16 16" fill="none" xmlns="http://www.w3.org/2000/svg">
<path d="M8.4245 13.2857C8.59621 13.3256 8.61194 13.5505 8.4447 13.6063L7.4572 13.9313C4.97595 14.7313 3.6697 14.0625 2.86345 11.5813L2.06345 9.11251C1.26345 6.63126 1.92595 5.31876 4.4072 4.51876L4.73469 4.4103C4.98648 4.32692 5.23152 4.57946 5.16003 4.83488C5.12459 4.96149 5.0905 5.09361 5.0572 5.23126L4.4447 7.85001C3.7572 10.7938 4.76345 12.4188 7.7072 13.1188L8.4245 13.2857Z" fill="#6D9E3F"/>
<path d="M11.2314 2.81876L10.1876 2.57501C8.10011 2.08126 6.85636 2.4875 6.12511 4.00001C5.93761 4.38125 5.78761 4.84376 5.66261 5.37501L5.05011 7.99376C4.43761 10.6063 5.24386 11.8938 7.85011 12.5125L8.90011 12.7625C9.26261 12.85 9.60011 12.9063 9.91261 12.9313C11.8626 13.1188 12.9001 12.2063 13.4251 9.95001L14.0376 7.3375C14.6501 4.725 13.8501 3.43126 11.2314 2.81876ZM10.0564 9.14376C10.0001 9.35626 9.81261 9.49376 9.60011 9.49376C9.56261 9.49376 9.52511 9.48751 9.48136 9.48126L7.66261 9.01876C7.41261 8.95626 7.26261 8.70001 7.32511 8.45001C7.38761 8.20001 7.64386 8.05001 7.89386 8.11251L9.71261 8.57501C9.96886 8.63751 10.1189 8.89376 10.0564 9.14376ZM11.8876 7.03125C11.8314 7.24375 11.6439 7.38126 11.4314 7.38126C11.3939 7.38126 11.3564 7.375 11.3126 7.36875L8.28136 6.60001C8.03136 6.53751 7.88136 6.28126 7.94386 6.03126C8.00636 5.78126 8.26261 5.63125 8.51261 5.69376L11.5439 6.4625C11.8001 6.51875 11.9501 6.775 11.8876 7.03125Z" fill="#6D9E3F"/>
</svg>
