<svg width="40" height="39" viewBox="0 0 40 39" fill="none" xmlns="http://www.w3.org/2000/svg">
<rect width="40" height="38.125" rx="5" fill="#F0F5EC"/>
<path d="M18.125 12.8125C16.4875 12.8125 15.1562 14.1438 15.1562 15.7812C15.1562 17.3875 16.4125 18.6875 18.05 18.7437C18.1 18.7375 18.15 18.7375 18.1875 18.7437C18.2 18.7437 18.2062 18.7437 18.2187 18.7437C18.225 18.7437 18.225 18.7437 18.2313 18.7437C19.8313 18.6875 21.0875 17.3875 21.0938 15.7812C21.0938 14.1438 19.7625 12.8125 18.125 12.8125Z" fill="#6D9E3F"/>
<path d="M21.3016 20.4062C19.5578 19.2437 16.7141 19.2437 14.9578 20.4062C14.1641 20.9375 13.7266 21.6562 13.7266 22.425C13.7266 23.1937 14.1641 23.9062 14.9516 24.4312C15.8266 25.0187 16.9766 25.3125 18.1266 25.3125C19.2766 25.3125 20.4266 25.0187 21.3016 24.4312C22.0891 23.9 22.5266 23.1875 22.5266 22.4125C22.5203 21.6437 22.0891 20.9312 21.3016 20.4062Z" fill="#6D9E3F"/>
<path d="M24.9953 16.15C25.0953 17.3625 24.2328 18.425 23.0391 18.5688C23.0328 18.5688 23.0328 18.5688 23.0266 18.5688H23.0078C22.9703 18.5688 22.9328 18.5688 22.9016 18.5813C22.2953 18.6125 21.7391 18.4188 21.3203 18.0625C21.9641 17.4875 22.3328 16.625 22.2578 15.6875C22.2141 15.1813 22.0391 14.7188 21.7766 14.325C22.0141 14.2063 22.2891 14.1313 22.5703 14.1063C23.7953 14 24.8891 14.9125 24.9953 16.15Z" fill="#6D9E3F"/>
<path d="M26.2461 21.9313C26.1961 22.5375 25.8086 23.0625 25.1586 23.4188C24.5336 23.7625 23.7461 23.925 22.9648 23.9063C23.4148 23.5 23.6773 22.9938 23.7273 22.4563C23.7898 21.6813 23.4211 20.9375 22.6836 20.3438C22.2648 20.0125 21.7773 19.75 21.2461 19.5563C22.6273 19.1563 24.3648 19.425 25.4336 20.2875C26.0086 20.75 26.3023 21.3313 26.2461 21.9313Z" fill="#6D9E3F"/>
</svg>
