<svg width="16" height="16" viewBox="0 0 16 16" fill="none" xmlns="http://www.w3.org/2000/svg">
<path d="M9.87658 15.1562C9.70783 15.1562 9.55158 15.0625 9.47033 14.9188C9.38908 14.775 9.38908 14.5938 9.47658 14.45L10.1328 13.3563C10.2641 13.1313 10.5516 13.0625 10.7766 13.1938C11.0016 13.325 11.0703 13.6125 10.9391 13.8375L10.7703 14.1188C12.4953 13.7125 13.7891 12.1625 13.7891 10.3125C13.7891 10.0563 14.0016 9.84375 14.2578 9.84375C14.5141 9.84375 14.7266 10.0563 14.7266 10.3125C14.7203 12.9812 12.5453 15.1562 9.87658 15.1562Z" fill="#6D9E3F"/>
<path d="M1.75 7.03125C1.49375 7.03125 1.28125 6.81875 1.28125 6.5625C1.28125 3.89375 3.45625 1.71875 6.125 1.71875C6.29375 1.71875 6.45 1.8125 6.53125 1.95625C6.6125 2.1 6.6125 2.28125 6.525 2.425L5.86875 3.525C5.7375 3.74375 5.45 3.81875 5.225 3.68125C5.00625 3.55 4.93125 3.2625 5.06875 3.0375L5.2375 2.75625C3.50625 3.1625 2.21875 4.7125 2.21875 6.5625C2.21875 6.81875 2.00625 7.03125 1.75 7.03125Z" fill="#6D9E3F"/>
<path d="M7.17031 9.59375L5.20781 8.5375C5.00156 8.425 4.75156 8.425 4.54531 8.5375L2.58281 9.59375C2.43906 9.66875 2.35156 9.825 2.35156 9.99375C2.35156 10.1625 2.43906 10.3188 2.58281 10.3938L4.54531 11.45C4.65156 11.5063 4.76406 11.5313 4.87656 11.5313C4.98906 11.5313 5.10156 11.5063 5.20781 11.45L7.17031 10.3938C7.31406 10.3188 7.40156 10.1625 7.40156 9.99375C7.40156 9.825 7.30781 9.675 7.17031 9.59375Z" fill="#6D9E3F"/>
<path d="M4.21875 11.8188L2.39375 10.9063C2.25625 10.8375 2.09375 10.8438 1.95625 10.925C1.83125 11.0063 1.75 11.15 1.75 11.3063V13.0313C1.75 13.3313 1.9125 13.6 2.18125 13.7313L4.00625 14.6438C4.06875 14.6688 4.1375 14.6875 4.20625 14.6875C4.2875 14.6875 4.36875 14.6625 4.44375 14.6188C4.575 14.5375 4.65625 14.3938 4.65625 14.2375V12.5125C4.65625 12.2188 4.4875 11.95 4.21875 11.8188Z" fill="#6D9E3F"/>
<path d="M7.7875 10.925C7.65625 10.8438 7.49375 10.8375 7.35 10.9063L5.525 11.8188C5.25625 11.95 5.09375 12.2188 5.09375 12.5188V14.2438C5.09375 14.4 5.175 14.5438 5.30625 14.625C5.38125 14.6625 5.4625 14.6875 5.54375 14.6875C5.6125 14.6875 5.68125 14.6688 5.74375 14.6375L7.56875 13.725C7.8375 13.5938 8 13.325 8 13.025V11.3C8 11.15 7.91875 11.0063 7.7875 10.925Z" fill="#6D9E3F"/>
<path d="M13.4203 3.33124L11.4578 2.27499C11.2516 2.16249 11.0016 2.16249 10.7953 2.27499L8.83281 3.33124C8.68906 3.40624 8.60156 3.56249 8.60156 3.73124C8.60156 3.89999 8.68906 4.05624 8.83281 4.13124L10.7953 5.18749C10.9016 5.24374 11.0141 5.26874 11.1266 5.26874C11.2391 5.26874 11.3516 5.24374 11.4578 5.18749L13.4203 4.13124C13.5641 4.05624 13.6516 3.89999 13.6516 3.73124C13.6516 3.55624 13.5578 3.40624 13.4203 3.33124Z" fill="#6D9E3F"/>
<path d="M10.4687 5.54998L8.64375 4.63748C8.50625 4.56873 8.34375 4.57498 8.20625 4.65623C8.08125 4.73748 8 4.88123 8 5.03748V6.76248C8 7.06248 8.1625 7.33123 8.43125 7.46248L10.2562 8.37498C10.3187 8.40623 10.3875 8.42498 10.4563 8.42498C10.5375 8.42498 10.6187 8.39998 10.6937 8.35623C10.825 8.27498 10.9062 8.13123 10.9062 7.97498V6.24998C10.9062 5.94998 10.7375 5.68123 10.4687 5.54998Z" fill="#6D9E3F"/>
<path d="M14.0375 4.65623C13.9062 4.57498 13.7437 4.56873 13.6 4.63748L11.775 5.54998C11.5063 5.68123 11.3438 5.94998 11.3438 6.24998V7.97498C11.3438 8.13123 11.425 8.27498 11.5563 8.35623C11.6313 8.39998 11.7125 8.42498 11.7937 8.42498C11.8625 8.42498 11.9312 8.40623 11.9937 8.37498L13.8187 7.46248C14.0875 7.32498 14.25 7.05623 14.25 6.76248V5.03748C14.25 4.88123 14.1687 4.73748 14.0375 4.65623Z" fill="#6D9E3F"/>
</svg>
