<svg width="430" height="350" viewBox="0 0 430 350" fill="none" xmlns="http://www.w3.org/2000/svg">
<g clip-path="url(#clip0_3921_9003)">
<rect width="430" height="350" fill="#F0F5EC"/>
<g opacity="0.7">
<line opacity="0.1" x1="40.5" y1="-2.18557e-08" x2="40.5" y2="816" stroke="#006D33"/>
<line opacity="0.1" x1="80.5" y1="-2.18557e-08" x2="80.5" y2="816" stroke="#006D33"/>
<line opacity="0.1" x1="120.5" y1="-2.18557e-08" x2="120.5" y2="816" stroke="#006D33"/>
<line opacity="0.1" x1="160.5" y1="-2.18557e-08" x2="160.5" y2="816" stroke="#006D33"/>
<line opacity="0.1" x1="200.5" y1="-2.18557e-08" x2="200.5" y2="816" stroke="#006D33"/>
<line opacity="0.1" x1="240.5" y1="-2.18557e-08" x2="240.5" y2="816" stroke="#006D33"/>
<line opacity="0.1" x1="280.5" y1="-2.18557e-08" x2="280.5" y2="816" stroke="#006D33"/>
<line opacity="0.1" x1="320.5" y1="-2.18557e-08" x2="320.5" y2="816" stroke="#006D33"/>
<line opacity="0.1" x1="360.5" y1="-2.18557e-08" x2="360.5" y2="816" stroke="#006D33"/>
<line opacity="0.1" x1="400.5" y1="-2.18557e-08" x2="400.5" y2="816" stroke="#006D33"/>
<line opacity="0.1" y1="42.5" x2="1440" y2="42.5" stroke="#006D33"/>
<line opacity="0.1" y1="82.5" x2="1440" y2="82.5" stroke="#006D33"/>
<line opacity="0.1" y1="122.5" x2="1440" y2="122.5" stroke="#006D33"/>
<line opacity="0.1" y1="162.5" x2="1440" y2="162.5" stroke="#006D33"/>
<line opacity="0.1" y1="202.5" x2="1440" y2="202.5" stroke="#006D33"/>
<line opacity="0.1" y1="242.5" x2="1440" y2="242.5" stroke="#006D33"/>
<line opacity="0.1" y1="282.5" x2="1440" y2="282.5" stroke="#006D33"/>
<line opacity="0.1" y1="322.5" x2="1440" y2="322.5" stroke="#006D33"/>
</g>
<g opacity="0.3">
<path d="M458.842 223.977C458.515 223.768 457.831 223.469 457.276 223.33C456.126 223.043 452.086 219.993 452.216 219.473C452.256 219.314 452.633 219.153 453.07 219.093C453.536 219.082 454.192 218.652 454.57 218.152C456.897 215.252 455.671 208.873 451.608 202.378C443.631 189.638 433.899 186.267 425.76 193.359C423.922 194.98 422.866 197.009 423.988 196.737C424.256 196.677 424.425 196.507 424.425 196.337C424.396 196.118 424.584 196.037 424.822 196.097C425.02 196.147 425.14 196.007 425.081 195.737C425.012 195.508 425.122 195.068 425.341 194.868C425.609 194.638 425.616 195.956 425.433 197.864C425.039 201.459 425.087 201.938 425.862 201.708C426.189 201.577 426.289 201.178 426.221 200.439C426.046 198.951 426.966 195.275 427.872 194.015C429.593 191.516 433.741 190.262 437.389 191.175C441.939 192.357 447.146 196.973 450.783 203.149C453.916 208.476 455.136 212.858 454.326 216.095C454.076 217.094 453.629 217.534 452.358 218.065C451.077 218.636 450.61 219.156 450.002 220.575C448.487 224.272 446.421 225.284 442.496 224.301C438.015 223.179 433.471 219.281 430.635 214.113C429.875 212.776 428.994 211.579 428.598 211.48C427.646 211.241 431.629 217.886 434.054 220.489C435.152 221.656 436.894 223.111 437.905 223.619C440.798 225.192 440.629 225.532 437.337 224.708C435.672 224.291 434.205 223.754 434.146 223.485C434.077 223.255 433.057 222.787 431.867 222.489C429.766 221.963 428.756 221.116 430.194 221.094C430.621 221.073 430.244 220.894 429.382 220.636C427.33 220.079 425.012 218.735 425.142 218.215C425.202 217.976 425.539 217.975 425.906 218.194C427.015 218.812 431.158 220.273 430.98 219.974C430.891 219.825 429.345 219.098 427.581 218.401C424.44 217.148 422.756 215.962 422.966 215.123C423.026 214.883 423.274 214.903 423.512 215.132C423.71 215.351 423.829 215.381 423.72 215.142C423.602 214.942 423.136 214.444 422.721 214.085C422.305 213.726 421.82 212.968 421.713 212.389C421.595 211.85 421.259 211.001 421.013 210.472C420.756 209.983 420.707 209.504 420.955 209.524C421.183 209.454 421.234 209.084 420.987 208.555C420.73 207.896 420.483 207.707 420.086 207.947C419.688 208.188 419.707 208.956 420.03 210.694C421.276 217.163 425.462 221.48 433.301 224.504C437.533 226.116 441.103 226.5 445.171 225.735C448.256 225.191 449.756 224.25 450.166 222.612C450.246 222.292 450.396 222.032 450.435 222.042C450.515 222.062 451.841 223.329 453.316 224.844C454.998 226.539 456.374 227.606 456.88 227.605C458.358 227.593 459.911 224.755 458.842 223.977ZM456.607 225.668C456.219 226.038 455.981 225.979 455.328 225.39C453.991 224.164 451.647 221.411 451.845 221.291C451.945 221.231 452.906 221.769 453.906 222.487C454.946 223.214 456.124 223.891 456.561 224.001C457.393 224.209 457.432 224.898 456.607 225.668Z" fill="#006D33"/>
<path d="M465.783 156.648C465.497 155.771 464.588 154.527 463.787 153.86C462.64 152.895 462.067 151.819 461.073 148.732C458.719 141.49 453.426 127.497 450.871 121.9C448.868 117.458 443.834 107.809 442.678 106.206C442.026 105.28 441.304 104.803 440.037 104.485C438.571 104.119 438.125 104.219 436.558 105.267C433.216 107.523 432.627 109.537 429.079 131.612C428.056 137.881 426.604 146.203 425.884 150.09C423.002 165.3 422.663 171.697 424.56 174.037C425.371 175.002 425.569 175.052 427.491 174.94C428.64 174.889 430.324 174.887 431.235 174.945C432.146 175.004 434.287 174.692 435.972 174.182C437.686 173.722 440.233 173.3 441.67 173.278C444.74 173.284 446.663 172.664 450.253 170.597C451.731 169.738 454.844 168.23 457.154 167.24C462.191 165.112 463.292 164.413 464.612 162.668C466.023 160.733 466.453 158.51 465.783 156.648ZM463.91 161.941C462.689 163.457 459.962 165.105 456.581 166.334C455.085 166.934 452.279 168.223 450.375 169.272C445.892 171.709 444.188 172.299 441.444 172.162C440.235 172.114 438.045 172.456 436.549 172.886C433.962 173.636 429.998 174.169 429.751 173.811C429.692 173.711 429.961 173.143 430.348 172.605C431.411 171.049 431.275 169.405 429.843 167.394C429.161 166.418 428.727 165.631 428.885 165.671C430.628 166.107 436.424 165.821 439.743 165.169C445.461 164.016 448.574 162.677 456.032 158.104C459.563 155.938 462.687 154.22 462.964 154.289C463.281 154.369 463.953 155.215 464.555 156.171C465.73 158.202 465.539 159.976 463.91 161.941ZM454.657 157.548C447.377 161.912 441.439 164.281 436.921 164.675C433.483 164.958 433.404 164.938 433.209 163.364C432.994 161.531 432.143 161.064 430.606 161.992C429.128 162.851 429.047 164.017 430.393 164.354C431.146 164.542 431.166 164.632 430.61 164.832C430.244 164.952 429.521 164.983 429.045 164.864C428.293 164.675 428.244 164.367 428.705 161.516C429.015 159.772 429.958 153.653 430.801 147.932C435.116 118.761 436.117 113.08 437.56 109.839C438.694 107.327 440.015 105.751 440.846 105.959C441.48 106.118 445.706 113.616 448.577 119.8C453.026 129.43 461.651 151.8 461.352 152.996C461.272 153.315 458.237 155.352 454.657 157.548ZM431.266 163.725C430.395 163.507 430.406 162.959 431.318 162.509C431.794 162.29 432.061 162.399 432.298 162.797C432.743 163.544 432.257 163.973 431.266 163.725ZM428.415 173.095C426.7 174.233 425.096 173.408 424.586 171.077C424.065 168.786 424.871 161.531 426.822 151.385C427.573 147.378 428.594 141.448 429.076 138.179C430.862 126.339 431.943 120.339 433.421 114.269C435.028 107.68 435.794 106.135 437.816 105.624C439.203 105.294 439.242 105.473 438.141 106.68C437.227 107.638 436.849 108.814 435.201 115.562C433.374 123.028 432.283 129.406 430.353 144.007C429.88 147.744 428.927 154.072 428.295 158.109C427.183 164.906 427.162 165.494 427.854 166.26C428.249 166.698 429.03 167.783 429.563 168.68C430.373 169.984 430.461 170.472 429.994 171.33C429.686 171.888 428.981 172.686 428.415 173.095Z" fill="#006D33"/>
<path d="M486.123 8.29825C483.007 3.89157 480.684 -3.68953 480.249 -10.8827C480.11 -12.8571 480.349 -18.3633 480.697 -23.1254C481.722 -36.3202 481.276 -42.1244 478.834 -46.8681C478.179 -48.1284 476.909 -49.7959 475.976 -50.6198C475.033 -51.4041 474.308 -52.218 474.348 -52.3768C474.407 -52.6148 476.264 -55.8185 477.833 -58.3773C478.072 -58.8237 477.764 -59.2802 476.483 -60.0647C474.051 -61.6434 473.674 -61.4849 472.849 -58.3601C471.638 -53.8564 471.399 -53.5788 468.738 -53.5702C463.754 -53.553 458.601 -51.0059 454.61 -46.5235C452.157 -43.8064 449.029 -39.4029 449.237 -39.0556C449.565 -38.5097 450.339 -39.2435 452.345 -42.0304C456.546 -47.852 460.597 -51.0545 465.035 -52.0939C467.06 -52.5988 467.974 -52.5388 470.634 -51.8727C474.417 -50.9679 476.045 -49.717 477.752 -46.4222C480.204 -41.7182 480.57 -36.7772 479.625 -23.7312C478.511 -8.49259 479.592 -1.01135 484.168 6.8388C485.14 8.51601 485.696 9.83584 485.378 9.7563C482.37 8.96103 476.771 4.86061 474.439 1.70441C471.441 -2.33512 466.816 -14.3721 465.239 -22.2306L464.237 -27.3307L465.846 -29.3736C468.318 -32.5075 471.208 -38.1512 472.043 -41.4843C473.036 -45.4524 472.411 -45.6511 471.139 -41.7527C467.573 -30.8808 458.934 -21.6585 447.387 -16.3268C440.765 -13.3042 431.333 -11.8706 427.262 -13.3113L426.061 -13.7385L428.414 -14.5409C433.061 -16.0763 438.462 -20.29 441.769 -24.9017C443.249 -26.9348 443.279 -27.0539 442.464 -26.836C442.107 -26.7569 440.459 -25.0612 438.761 -23.1671C434.789 -18.5954 429.904 -15.6017 425.446 -14.9889C421.683 -14.4551 422.953 -12.7877 427.739 -12.0113C429.317 -11.7426 432.107 -11.5924 433.993 -11.7104C438.282 -11.986 438.322 -11.976 436.992 -10.8755C434.837 -9.01139 432.553 -7.98076 429.446 -7.36726C427.668 -7.01102 426.08 -6.56538 425.911 -6.39681C425.405 -5.89109 427.231 -4.7591 430.11 -3.78531C432.989 -2.81152 437.239 -2.59105 440.158 -3.29394C442.123 -3.72945 442.749 -3.36204 442.332 -2.0328C442.193 -1.64594 441.775 -0.148035 441.418 1.28045C441.1 2.71888 440.583 4.78224 440.295 5.93297C440.007 7.08369 439.927 8.58176 440.086 9.29619C440.245 10.0106 440.185 10.9233 439.947 11.3697C439.718 11.7763 439.728 12.9173 439.956 13.8599C440.185 14.8026 440.383 16.3702 440.393 17.3425C440.412 18.4438 440.78 19.5056 441.306 20.1011C441.762 20.6371 442.576 21.7686 443.082 22.6122C443.589 23.4557 444.293 24.349 444.661 24.5675C445.564 25.1731 447.411 24.7078 448.394 23.6467C448.87 23.0914 449.943 22.5165 450.826 22.3582C452.514 22.0218 453.984 20.5344 454.441 18.7091C454.62 17.9948 455.096 17.6081 455.99 17.4102C457.559 17.0439 459.425 14.6439 459.475 12.9276C459.475 12.0842 459.763 11.6082 460.508 11.1621C461.65 10.4781 462.534 7.95857 462.137 6.50985C461.998 5.88474 462.167 5.54749 462.892 5.18078C463.775 4.68518 463.885 4.75469 465.274 6.78928C466.942 9.23079 470.327 12.0601 473.623 13.8973C476.631 15.5359 477.376 15.2585 476.155 12.8866C474.835 10.4056 473.466 2.89447 474.478 3.7383C478.36 6.94491 480.186 8.24556 483.006 9.62609C487.959 12.0892 488.615 11.8315 486.123 8.29825ZM474.755 13.4217C474.04 13.2427 469.573 10.0159 468.362 8.78507C467.677 8.14975 466.625 6.78998 466.019 5.83722C464.997 4.18975 464.937 3.92185 465.553 2.47365C466.01 1.32301 466.079 0.539265 465.792 -0.333959C465.514 -1.0782 465.544 -1.53457 465.832 -1.67332C466.1 -1.7327 466.417 -1.14718 466.596 -0.343462C466.874 1.07543 467.082 0.242148 466.834 -1.29579C466.775 -1.73235 466.894 -2.03986 467.132 -1.9802C467.331 -1.93049 467.648 -0.838981 467.837 0.431046C468.035 1.66139 468.442 3.23909 468.74 3.90398C469.395 5.33299 469.385 5.204 468.502 0.808403C467.748 -2.75374 467.728 -3.5177 468.403 -3.34868C468.642 -3.28903 468.751 -3.05086 468.681 -2.7731C468.522 -2.13822 469.881 4.06331 470.318 4.67866C470.546 4.94666 470.308 3.36904 469.882 1.19605C468.959 -3.04083 469.178 -4.92577 470.16 -1.60162C470.795 0.412743 472.433 3.98527 472.582 3.55873C472.612 3.4397 472.165 2.18937 471.58 0.819927C470.994 -0.54952 470.567 -1.8792 470.627 -2.11728C470.806 -2.83152 473.287 2.25941 473.148 2.98359C472.85 4.174 473.693 9.06564 474.507 11.0404C475.311 13.0549 475.39 13.5807 474.755 13.4217ZM465.752 -2.70518C463.846 -1.66443 463.836 -1.62475 464.382 -0.771231C465.643 1.10455 464.918 2.82056 462.177 4.32718C460.569 5.1895 460.559 5.22918 460.985 6.55886C461.501 8.37473 461.193 9.26748 459.764 10.0902C458.681 10.7048 458.532 10.9626 458.284 12.9666C457.996 15.1293 457.946 15.1591 455.94 16.2593C454.53 17.0026 453.696 17.8058 453.309 18.6787C452.544 20.5534 451.8 21.1682 450.37 21.3163C449.635 21.3853 448.474 21.98 447.699 22.7138C446.031 24.3202 445.108 24.1312 444.046 21.9678C443.559 21.0448 442.884 20.2012 442.567 20.1216C441.772 19.9228 441.187 17.71 441.525 16.3609C441.654 15.8451 441.525 14.8429 441.227 14.1781C440.929 13.5132 440.83 12.392 441.039 11.5587C441.228 10.8048 441.268 9.46546 441.099 8.62206C440.851 7.42145 440.94 6.89566 441.506 5.9832C442.102 5.12035 442.211 4.51521 442.023 3.24519C441.795 1.79655 441.864 1.51879 442.848 0.120399C443.642 -1.03006 443.88 -1.64506 443.712 -2.3198C443.394 -3.57997 443.782 -4.95883 444.755 -5.81156C445.45 -6.39656 445.589 -6.78341 445.519 -8.19228C445.48 -9.38286 445.639 -10.1864 446.165 -10.9401C446.523 -11.5253 446.751 -12.2693 446.662 -12.5868C446.563 -12.8647 446.831 -13.5987 447.238 -14.2136C447.893 -15.1459 448.698 -15.6614 452.927 -17.8915C453.751 -18.3177 454.089 -18.3175 454.675 -17.7914C455.499 -17.0369 455.618 -17.1757 455.221 -18.4558C454.983 -19.1901 455.092 -19.4579 455.996 -20.0329C456.561 -20.4394 458.349 -21.8473 459.918 -23.2255C461.516 -24.5541 462.986 -25.7042 463.174 -25.7835C463.353 -25.8231 463.82 -24.1462 464.187 -22.0724C464.544 -19.959 465.476 -16.4364 466.26 -14.174C468.205 -8.62693 468.483 -7.20803 468.066 -5.37281C467.738 -4.06336 467.381 -3.64685 465.752 -2.70518ZM474.666 -54.4898C474.129 -53.3591 473.444 -52.4764 473.216 -52.5758C471.618 -53.1024 471.618 -53.1024 472.343 -54.3125C472.72 -54.977 473.286 -56.5641 473.594 -57.7942C474.2 -60.2147 474.399 -60.3336 475.838 -59.1721C476.612 -58.5566 476.672 -58.2887 476.225 -57.515C475.927 -56.9993 475.242 -55.6106 474.666 -54.4898ZM443.345 -5.91151C441.994 -4.39425 440.386 -3.86926 437.04 -3.82139C434.459 -3.79297 428.333 -5.1157 428.472 -5.67122C428.512 -5.82994 429.445 -6.18662 430.557 -6.41423C433.139 -6.94864 436.415 -8.74269 438.828 -10.9638C440.626 -12.5801 444.101 -14.1557 443.872 -13.2431C443.723 -12.6479 441.151 -10.2979 439.136 -8.98931C438.163 -8.30524 437.507 -7.71031 437.706 -7.6606C438.381 -7.49158 441.171 -9.53392 443.197 -11.7255L445.213 -13.8774L445.183 -12.5777C445.133 -11.8733 444.954 -10.9904 444.745 -10.6631C444.527 -10.2961 444.348 -9.41321 444.388 -8.72862C444.417 -8.00435 444.477 -7.39912 444.457 -7.31976C444.487 -7.27013 443.951 -6.64537 443.345 -5.91151Z" fill="#006D33"/>
<path d="M427.987 216.565C427.325 216.241 426.737 216.042 426.6 216.165C426.476 216.239 426.868 216.653 427.53 216.976C428.147 217.341 428.734 217.541 428.871 217.417C428.995 217.343 428.604 216.93 427.987 216.565Z" fill="#006D33"/>
<path d="M428.041 208.631C427.864 208.468 427.622 208.566 427.538 208.902C427.454 209.237 427.622 209.438 427.854 209.377C428.128 209.327 428.339 209.181 428.358 209.107C428.376 209.032 428.259 208.805 428.041 208.631Z" fill="#006D33"/>
<path d="M426.981 205.159C426.598 204.635 426.477 204.604 426.057 204.999C425.473 205.532 425.797 206.291 426.705 206.519C427.432 206.7 427.548 205.98 426.981 205.159Z" fill="#006D33"/>
<path d="M424.359 211.154C423.921 211.045 423.512 211.056 423.486 211.162C423.459 211.268 423.788 211.577 424.172 211.899C424.569 212.168 424.978 212.157 425.045 211.891C425.125 211.572 424.796 211.264 424.359 211.154Z" fill="#006D33"/>
<path d="M423.86 212.533C422.687 211.408 422.563 211.376 422.383 212.094C422.236 212.681 424.181 214.07 424.586 213.686C424.701 213.576 424.384 213.081 423.86 212.533Z" fill="#006D33"/>
<path d="M424.315 207.114C424.257 206.89 423.827 206.625 423.419 206.575C422.736 206.404 422.724 206.454 423.403 207.096C424.142 207.806 424.598 207.815 424.315 207.114Z" fill="#006D33"/>
<path d="M423.644 202.609C423.556 202.391 423.142 202.141 422.739 202.04C422.145 201.94 422.122 202.032 422.702 202.568C423.427 203.287 424.089 203.306 423.644 202.609Z" fill="#006D33"/>
<path d="M422.088 207.271C421.724 206.966 421.263 206.851 421.087 206.967C420.924 207.033 421.137 207.354 421.502 207.66C421.866 207.965 422.327 208.08 422.503 207.964C422.666 207.898 422.453 207.577 422.088 207.271Z" fill="#006D33"/>
<path d="M422.176 203.675C421.442 203.302 420.141 203.627 419.982 204.265C419.911 204.546 420.052 204.852 420.257 204.903C420.503 204.965 420.705 204.853 420.756 204.649C420.808 204.445 421.111 204.277 421.41 204.297C421.805 204.288 421.818 204.237 421.408 204.134C421.127 204.037 420.989 203.894 421.191 203.781C421.346 203.685 421.728 203.726 422.03 203.91C422.338 204.069 422.625 204.141 422.644 204.064C422.664 203.987 422.443 203.824 422.176 203.675Z" fill="#006D33"/>
<path d="M426.118 183.899C425.344 183.254 423.888 183.379 423.34 184.107C422.912 184.677 423.462 186.546 424.113 186.709C424.342 186.767 424.885 186.714 425.35 186.642C426.432 186.386 426.931 184.554 426.118 183.899ZM424.977 186.022C424.237 186.213 423.675 184.718 424.315 184.276C424.607 184.085 425.055 184.084 425.334 184.267C425.932 184.643 425.716 185.831 424.977 186.022Z" fill="#006D33"/>
<path d="M421.681 199.237C421.514 199.036 421.284 199.085 421.221 199.334C421.146 199.634 421.289 199.935 421.494 199.986C421.739 200.048 421.928 199.989 421.953 199.889C421.991 199.739 421.89 199.449 421.681 199.237Z" fill="#006D33"/>
<path d="M454.106 67.4347C454.876 62.1451 453.474 56.8556 450.428 53.54C449.594 52.6196 447.072 50.4399 444.823 48.7049C442.313 46.8209 439.52 44.1964 437.75 42.0792C433.998 37.6663 432.482 36.4078 429.956 35.7755C426.83 34.9928 425.341 35.6663 423.49 38.6348C419.809 44.6606 415.939 53.4849 414.509 59.1954C412.912 65.5755 413.489 69.9052 416.614 75.4586C421.331 83.8382 428.851 89.1944 435.256 88.7892C437.078 88.6593 438.348 88.182 441.104 86.5285C445.809 83.7304 448.753 81.3286 450.196 79.137C451.69 76.916 453.52 71.3058 454.106 67.4347ZM449.382 78.3054C445.422 84.5961 439.232 86.3526 432.461 83.1091C429.041 81.4577 426.6 79.298 424.977 76.4224C421.913 70.9678 421.351 65.554 422.799 54.1561C423.168 51.319 423.672 46.9251 423.923 44.3931C424.607 37.4076 426.002 35.7481 430.171 36.9593C432.036 37.5097 433.02 38.3421 437.595 43.5472C439.154 45.3185 442.278 48.1514 444.567 49.8964C450.03 54.1099 451.72 56.2071 452.595 59.858C452.962 61.4564 453.231 63.9514 453.197 65.4495C453.121 69.1553 451.303 75.2288 449.382 78.3054ZM437.083 87.447C434.323 88.0951 429.764 87.0792 426.973 85.2926C424.565 83.685 421.782 81.1887 421.91 80.6768C421.959 80.4798 421.487 79.9849 420.865 79.578C420.242 79.1711 419.89 78.7063 420.11 78.5101C420.279 78.3433 420.017 77.8591 419.435 77.4623C418.672 76.9365 418.591 76.7488 419.101 76.5835C419.561 76.4476 419.38 76.1511 418.416 75.4075C417.693 74.8917 417.13 74.2485 417.189 74.0122C417.268 73.6972 417.498 73.7968 418.031 74.223C418.403 74.6091 418.854 74.8476 418.964 74.7496C419.104 74.7009 418.43 73.9882 417.516 73.2153C415.899 71.8479 414.991 70.0302 416.467 71.1111C418.204 72.3411 418.493 72.2044 417.047 70.8377C416.142 70.0254 415.297 68.9769 415.165 68.4834C414.911 67.4572 415.301 67.4294 416.227 68.498C416.599 68.8841 417.311 69.4392 417.833 69.7373C418.355 70.0353 417.902 69.4616 416.817 68.5204C415.079 66.9552 414.243 65.5321 414.882 65.19C414.992 65.0919 415.936 65.7467 416.96 66.5891C417.935 67.4608 418.958 68.1356 419.169 68.1464C419.389 68.1178 418.474 67.1774 417.098 66.0377C415.321 64.6301 414.637 63.7892 414.765 63.2773C414.932 62.6078 415.083 62.6873 416.7 64.0547C417.644 64.877 418.658 65.5912 418.899 65.6515C419.179 65.7217 418.365 64.8901 417.13 63.8694C415.523 62.4625 414.909 61.6811 414.986 61.0309C415.102 59.888 415.423 59.9683 416.759 61.2655C417.915 62.4338 419.04 63.2175 419.099 62.9812C419.128 62.863 418.334 62.1202 417.39 61.2979C415.673 59.8216 415.058 58.705 415.757 58.2942C415.957 58.1768 416.669 58.5644 417.402 59.2083C419.26 60.8035 419.22 60.7935 419.28 60.5572C419.309 60.4391 418.706 59.7858 417.933 59.1318C416.566 57.9528 416.001 56.8069 416.611 56.4153C416.76 56.3273 417.413 56.7836 418.056 57.4469C419.895 59.2884 420.104 58.9641 418.315 57.0932C417.441 56.1627 416.806 55.1249 416.875 54.8493C417.033 54.2191 418.104 54.3619 418.317 55.043C418.388 55.27 418.811 55.7943 419.233 56.151C419.654 56.5077 419.442 55.9942 418.748 55.0252C417.489 53.2453 417.685 52.1225 418.962 53.4885C419.374 53.8846 419.785 54.1131 419.935 54.0251C420.075 53.9764 419.693 53.4622 419.1 52.9371C418.015 51.9959 417.819 50.3982 418.863 51.1618C420.449 52.3123 420.73 52.3825 420.086 51.5517C419.734 51.0869 419.322 50.6907 419.121 50.6406C418.961 50.6004 418.87 50.2846 418.948 49.9695C419.077 49.4576 419.247 49.4583 419.799 49.9733C420.181 50.32 420.532 50.4497 420.581 50.2528C420.641 50.0165 420.339 49.6899 419.928 49.4614C419.396 49.2027 419.305 48.8869 419.583 48.4544C419.842 48.1007 420.243 48.0335 420.564 48.2814C420.996 48.5987 421.035 48.4412 420.591 47.6605C420.088 46.781 420.277 46.5354 421.159 46.9238C421.35 47.0134 421.369 46.767 421.167 46.3817C420.794 45.6605 421.735 43.0921 422.425 42.8882C422.975 42.7329 422.809 46.2904 421.912 52.5948C419.809 68.1394 421.138 75.0845 427.398 81.0462C430.291 83.7796 435.055 85.851 438.91 85.9372C440.261 85.9826 440.292 86.032 439.623 86.4923C439.243 86.8159 438.074 87.2345 437.083 87.447Z" fill="#006D33"/>
<path d="M446.927 64.3433C446.981 60.4353 444.991 56.6058 441.629 54.0353C439.558 52.4626 432.729 49.1505 432.164 49.4729C431.548 49.8247 430.264 54.7743 429.927 58.2319C428.997 66.5169 431.405 71.8425 436.665 73.1594C441.718 74.4244 446.828 70.0112 446.927 64.3433ZM444.36 68.9715C442.288 72.5008 437.742 73.429 434.475 71.0086C430.957 68.357 430.027 63.1062 431.673 55.1269L432.729 50.2047L433.632 50.6416C434.14 50.8955 435.749 51.6777 437.234 52.4289C441.946 54.7049 444.368 57.3354 445.346 61.1645C446.098 64.1359 445.822 66.4703 444.36 68.9715Z" fill="#006D33"/>
<path d="M432.737 81.2168C431.932 80.8334 430.575 79.9487 429.813 79.2128C429.001 78.4947 428.238 77.9403 428.09 77.9939C427.984 78.0582 428.548 78.6841 429.402 79.4128C430.963 80.7423 433.535 82.1735 434.023 82.0232C434.172 81.9696 433.585 81.6108 432.737 81.2168Z" fill="#006D33"/>
<path d="M425.664 72.1724C425.172 71.6717 424.455 67.8427 424.517 66.0123C424.574 64.7262 424.521 64.587 424.282 65.3662C423.905 66.698 424.408 70.8511 425.148 72.295C425.476 72.9225 425.758 73.2029 425.869 72.937C425.928 72.7001 425.841 72.3428 425.664 72.1724Z" fill="#006D33"/>
<path d="M427.983 44.6767C428.077 43.0321 428.289 41.4609 428.49 41.2038C428.69 40.9467 428.624 40.6668 428.368 40.6027C428.112 40.5385 427.774 40.9808 427.609 41.6418C427.279 43.1396 427.011 48.5598 427.27 48.9757C427.571 49.4024 427.755 48.307 427.983 44.6767Z" fill="#006D33"/>
<path d="M426.087 53.0558C426.224 51.7942 426.298 49.1789 426.236 47.2823C426.184 45.3463 426.475 42.5765 426.798 41.1104C427.172 39.6155 427.279 38.4719 427.04 38.5373C426.226 38.7516 425.706 42.2584 425.648 47.8457C425.644 50.8965 425.364 54.3379 425.078 55.4787C424.714 56.9343 424.731 57.3986 425.134 57.0396C425.764 56.4867 425.824 56.2506 426.087 53.0558Z" fill="#006D33"/>
<path d="M415.811 201.397C415.423 200.585 415.324 200.812 414.63 203.583C413.659 207.629 411.844 209.825 407.954 211.879C403.826 214.042 400.164 214.681 396.184 213.895C392.045 213.069 389.365 211.809 385.949 208.935C380.836 204.585 381.214 206.446 381.116 184.762C381.101 174.37 381.037 163.671 380.976 161.049C380.825 154.912 380.914 154.556 382.156 156.507C384.817 160.707 390.566 164.879 396.333 166.786C399.182 167.709 399.797 167.779 400.412 167.345C401.037 166.87 400.809 166.771 397.792 166.016C394.178 165.111 393.672 164.774 393.771 163.537C393.81 162.537 392.381 161.843 390.981 162.208C388.054 162.947 381.311 154.992 381.111 150.568C381.001 147.975 381.972 144.601 383.321 143.088C387.299 138.491 396.092 137.748 404.193 141.29C414.805 145.924 420.941 153.769 419.654 161.101L419.238 163.436L416.817 164.849C415.448 165.599 413.315 166.537 412.054 166.853C410.744 167.197 409.673 167.602 409.623 167.8C409.573 167.998 409.365 167.988 409.196 167.819C408.69 167.314 406.367 167.321 406.248 167.796C406.09 168.43 408.68 168.531 411.38 168.03C412.66 167.803 414.923 167.024 416.401 166.343C419.696 164.812 419.487 163.624 417.924 176.103C417.182 181.931 416.915 185.523 417.134 185.999C417.492 186.593 417.571 186.613 417.759 185.861C417.868 185.425 418.363 181.091 418.847 176.292C419.341 171.453 420.083 165.624 420.499 163.289C421.43 158.223 421.111 156.124 418.757 151.876C417.486 149.539 416.473 148.36 413.643 146.011C409.493 142.533 406.575 140.877 401.959 139.427C393.988 136.885 386.336 137.955 382.626 142.157C379.957 145.232 379.898 145.806 380.018 170.608C380.053 183.108 380.108 195.697 380.059 198.587C380.021 201.942 380.25 204.228 380.618 204.951C381.72 206.951 384.52 209.587 387.836 211.679C390.785 213.553 391.122 213.889 390.914 214.72C390.776 215.275 390.954 215.908 391.371 216.265C391.749 216.612 392.305 217.087 392.573 217.365C393.804 218.514 394.161 218.604 395.739 218.2C396.702 217.894 397.754 217.905 398.32 218.173C399.074 218.53 399.441 218.411 399.997 217.709C400.384 217.175 401.257 216.721 401.912 216.633C403.043 216.495 403.093 216.466 402.547 215.782C402.03 215.148 402.14 215.049 403.956 214.705C406.625 214.154 410.078 212.327 411.844 210.498C414.563 207.729 416.536 203.219 415.811 201.397ZM399.639 215.769C399.371 215.324 399.48 215.225 400.234 215.414C400.989 215.602 401.038 215.741 400.592 216.008C400.145 216.274 399.907 216.215 399.639 215.769ZM398.845 216.748C398.597 216.392 398.418 215.926 398.468 215.728C398.527 215.491 398.795 215.6 399.043 215.957C399.292 216.313 399.471 216.778 399.421 216.976C399.362 217.214 399.093 217.105 398.845 216.748ZM397.068 216.261C396.731 215.251 397.485 214.935 397.872 215.916C398.14 216.53 398.071 216.807 397.724 216.846C397.466 216.865 397.158 216.578 397.068 216.261ZM396.006 216.29C395.579 215.3 395.807 214.894 396.373 215.498C396.582 215.677 396.671 216.162 396.582 216.518C396.394 217.102 396.354 217.092 396.006 216.29ZM395.213 217.1C394.816 217.001 394.617 215.942 394.805 215.19C394.874 214.913 395.113 215.141 395.331 215.616C395.788 216.656 395.729 217.23 395.213 217.1ZM393.883 216.347C393.455 214.852 393.663 214.189 394.14 215.318C394.349 215.833 394.468 216.535 394.389 216.852C394.25 217.238 394.081 217.07 393.883 216.347ZM392.253 163.872C391.716 163.653 391.339 163.307 391.389 163.109C391.488 162.713 392.858 162.972 393.116 163.457C393.543 164.111 393.156 164.308 392.253 163.872Z" fill="#006D33"/>
<path d="M416.102 193.412C415.796 193.335 415.622 193.597 415.591 194.155C415.58 194.631 415.691 195.051 415.861 195.093C416.031 195.136 416.259 194.801 416.372 194.35C416.485 193.9 416.373 193.48 416.102 193.412Z" fill="#006D33"/>
<path d="M416.515 188.563C416.346 188.006 416.177 188.151 415.902 189.252C415.714 190.002 415.756 190.715 415.964 190.767C416.503 190.902 416.834 189.58 416.515 188.563Z" fill="#006D33"/>
<path d="M418.285 157.012C417.851 156.198 416.453 155.892 415.704 156.498C414.359 157.573 415.718 159.943 417.507 159.641C418.255 159.519 418.745 157.877 418.285 157.012ZM416.548 158.695C415.949 158.545 415.779 157.311 416.398 157.069C416.92 156.891 417.779 158.077 417.354 158.5C417.19 158.679 416.848 158.77 416.548 158.695Z" fill="#006D33"/>
<path d="M427.771 105.129C427.279 104.492 426.126 104.58 425.666 105.32C424.973 106.447 426.271 107.695 427.4 107.02C428.045 106.634 428.23 105.757 427.771 105.129ZM426.884 106.48C426.255 106.665 425.827 105.771 426.392 105.434C426.876 105.144 427.488 105.571 427.368 106.054C427.327 106.215 427.11 106.4 426.884 106.48Z" fill="#006D33"/>
<path d="M412.964 161.683C412.851 161.423 412.308 161.113 411.765 160.977C410.93 160.768 410.695 160.999 410.574 162.014C410.439 162.909 410.691 163.321 411.442 163.509C412.444 163.759 413.385 162.66 412.964 161.683Z" fill="#006D33"/>
<path d="M412.032 157.853C411.49 157.327 408.726 156.635 408 156.843C407.697 156.898 407.369 157.248 407.297 157.534C406.899 159.124 411.484 160.618 412.109 159.085C412.312 158.659 412.263 158.084 412.032 157.853ZM409.999 158.86C409.546 158.747 408.917 158.373 408.606 158.078C408.179 157.668 408.39 157.591 409.523 157.874C410.293 158.067 410.922 158.441 410.871 158.645C410.81 158.89 410.406 158.962 409.999 158.86Z" fill="#006D33"/>
<path d="M409.844 147.471C409.349 147.439 408.898 147.697 408.81 148.045C408.723 148.393 409 148.832 409.452 149.038C410.038 149.324 410.275 149.152 410.449 148.455C410.624 147.759 410.496 147.495 409.844 147.471Z" fill="#006D33"/>
<path d="M406.764 162.418C406.702 162.269 406.162 162.178 405.57 162.163C404.832 162.202 404.405 162.451 404.185 163.065C403.85 164.007 404.368 164.716 405.169 164.292C405.585 164.085 405.606 164.001 405.17 163.891C404.859 163.813 404.652 163.583 404.715 163.331C404.767 163.122 405.256 163.021 405.754 163.146C406.626 163.364 407.032 163.065 406.764 162.418Z" fill="#006D33"/>
<path d="M406.757 150.316C405.866 149.558 404.666 150.031 404.569 151.137C404.486 151.83 404.826 152.272 405.504 152.442C406.733 152.749 407.69 151.085 406.757 150.316Z" fill="#006D33"/>
<path d="M417.936 100.581C418.386 95.8141 417.661 90.7944 416.333 89.3358C414.133 86.9082 405.259 90.3587 401.377 95.1426C399.631 97.3331 399.534 97.5589 398.951 101.042C398.427 104.122 398.425 104.956 399.052 106.739C401.001 112.315 404.517 116.741 408.197 118.205C410.295 119.063 411.307 118.649 413.179 116.282C414.262 114.926 414.664 113.817 416.137 108.264C417.07 104.702 417.886 101.278 417.936 100.581ZM415.756 105.165C415.087 104.706 414.789 103.255 415.382 103.195C415.723 103.155 415.801 102.841 415.57 101.949C415.378 101.067 415.418 100.743 415.865 100.605C416.274 100.457 416.313 100.3 415.955 99.9183C415.693 99.6443 415.685 99.1834 415.89 98.8593C416.085 98.5745 416.144 98.1723 415.95 97.957C415.786 97.7906 415.738 97.3199 415.904 96.9862C416.08 96.6131 416.033 95.9758 415.821 95.5055C415.222 94.271 416.019 94.2204 416.744 95.4447C417.199 96.2676 417.198 96.601 416.819 96.6312C416.391 96.691 416.371 96.9362 416.768 97.6611C417.125 98.3763 417.095 98.6607 416.755 98.7006C416.376 98.7308 416.336 99.0546 416.587 99.868C416.886 100.652 416.856 100.936 416.506 100.849C416.118 100.752 416.088 100.869 416.359 101.438C416.552 101.82 416.522 102.438 416.297 102.84C416.121 103.213 416.012 103.812 416.138 104.135C416.408 105.037 416.261 105.459 415.756 105.165ZM415.227 106.785C414.985 106.432 414.811 105.972 414.86 105.775C414.919 105.54 415.181 105.647 415.423 106C415.665 106.352 415.839 106.813 415.79 107.009C415.731 107.245 415.469 107.137 415.227 106.785ZM414.93 108.796C414.658 108.728 414.599 108.963 414.733 109.581C414.887 110.287 414.848 110.443 414.381 110.327C413.954 110.22 413.907 109.749 414.23 108.621C414.555 107.325 414.72 107.158 415.059 107.619C415.543 108.324 415.474 108.932 414.93 108.796ZM413.522 111.947C412.959 111.556 413.04 110.408 413.584 110.544C414.089 110.671 414.33 111.19 414.183 111.779C414.104 112.093 413.842 112.152 413.522 111.947ZM412.924 113.507C412.76 113.341 412.664 112.9 412.742 112.586C412.821 112.272 413.054 112.163 413.219 112.33C413.423 112.506 413.48 112.937 413.401 113.251C413.323 113.565 413.128 113.683 412.924 113.507ZM411.334 115.737C411.131 115.394 411.219 115.207 411.52 115.158C411.812 115.147 412.007 114.696 412.009 114.196C412.001 113.401 412.089 113.381 412.486 113.94C412.893 114.459 412.863 114.743 412.278 115.431C411.8 116.02 411.527 116.119 411.334 115.737ZM416.602 94.1996C416.058 94.0634 415.198 92.2214 415.548 91.9755C415.733 91.8967 416.151 92.2097 416.48 92.7091C417.109 93.6591 417.146 94.3357 416.602 94.1996ZM410.825 116.944C410.631 116.895 410.486 116.65 410.545 116.415C410.594 116.219 410.808 116.189 410.973 116.355C411.176 116.531 411.283 116.766 411.253 116.884C411.233 116.963 411.058 117.002 410.825 116.944ZM412.865 106.486C412.584 106.29 412.088 106.291 411.777 106.547C410.92 107.166 411.12 108.676 412.091 108.919C412.79 109.094 412.829 109.271 412.144 110.851C411.097 113.383 409.135 116.604 408.649 116.566C408.008 116.489 407.194 111.822 407.404 109.664C407.573 108.163 407.749 107.79 408.05 108.074C408.534 108.613 409.751 108.041 409.977 107.139C410.193 106.275 409.223 105.532 408.425 105.916C407.529 106.359 408.045 102.484 409.378 98.4803C410.721 94.4371 411.14 93.7498 412.229 93.8554C412.958 93.9128 413.133 93.7065 413.409 92.2741C413.606 91.3224 413.909 90.6059 414.104 90.6545C414.453 90.7421 415.044 95.1442 414.818 96.0469C414.71 96.4786 414.467 96.4595 413.904 96.0684C412.604 95.159 411.223 95.5639 410.879 96.9376C410.722 97.5655 410.779 98.1636 411.012 98.222C411.245 98.2804 411.244 98.6138 410.98 99.0066C410.473 99.8805 411.015 100.517 412.764 100.955C413.968 101.256 414.123 101.462 414.062 102.531C414.05 103.237 413.872 104.444 413.695 105.317C413.449 106.465 413.254 106.75 412.865 106.486ZM415.523 90.7595C414.96 90.3684 414.942 89.6133 415.486 89.7495C415.914 89.8565 416.233 90.3952 416.135 90.7877C416.086 90.9839 415.804 90.9551 415.523 90.7595ZM413.682 99.4326C413.673 99.1384 413.382 98.8154 413.071 98.7376C412.76 98.6598 412.566 98.4444 412.625 98.2089C412.674 98.0127 412.452 97.7483 412.141 97.6705C411.83 97.5927 411.627 97.2499 411.705 96.9359C411.902 96.1509 413.213 96.5209 413.794 97.5004C414.065 97.902 414.17 98.6373 414.013 99.0985C413.895 99.5695 413.739 99.6973 413.682 99.4326ZM412.25 93.11C412.056 93.0614 412.047 92.7672 412.242 92.4824C412.476 92.2073 412.7 91.9715 412.778 91.991C412.856 92.0104 412.865 92.3046 412.786 92.6186C412.708 92.9326 412.483 93.1684 412.25 93.11ZM408.713 107.239C408.519 107.191 408.344 107.064 408.364 106.985C408.393 106.867 408.636 106.72 408.86 106.651C409.123 106.591 409.259 106.709 409.209 106.905C409.151 107.14 408.946 107.298 408.713 107.239ZM409.689 94.9296C409.034 96.3921 408.2 99.228 407.461 102.839C406.299 108.303 406.249 109 406.582 115.256C406.638 116.021 406.599 116.011 406.134 115.394C405.853 115.032 405.641 114.562 405.68 114.405C405.818 113.855 405.281 110.885 405.048 110.993C404.941 111.091 404.948 111.886 405.053 112.788C405.206 113.66 405.204 114.494 405.058 114.582C404.678 114.779 404.659 114.691 404.12 112.554C403.707 110.908 403.59 111.045 403.837 113.026C403.999 114.359 402.673 112.067 402.453 110.635C402.349 109.733 402.165 109.479 401.853 109.734C401.58 110 401.387 109.618 401.195 108.569C401.081 107.706 400.821 106.932 400.588 106.873C400.393 106.825 400.006 106.061 399.737 105.159C399.264 103.748 399.334 103.139 400.236 100.196C401.364 96.5156 402.164 95.2979 405.164 93.046C406.898 91.7284 412.085 89.3151 412.785 89.4902C412.94 89.5291 412.588 90.2751 411.925 91.1101C411.291 91.994 410.285 93.7025 409.689 94.9296Z" fill="#006D33"/>
<path d="M409.762 109.968C408.831 109.735 408.195 110.812 408.669 111.847C409.108 112.873 409.847 112.554 410.192 111.175C410.376 110.442 410.279 110.097 409.762 109.968Z" fill="#006D33"/>
<path d="M411.037 102.013C410.333 100.944 409.216 101.2 408.879 102.543C408.501 104.054 409.282 105.142 410.358 104.564C411.299 104.041 411.631 102.875 411.037 102.013ZM409.664 103.453C409.473 103.406 409.356 103.064 409.441 102.728C409.525 102.393 409.789 102.146 409.979 102.194C410.208 102.251 410.287 102.583 410.203 102.919C410.119 103.255 409.893 103.511 409.664 103.453Z" fill="#006D33"/>
<path d="M405.404 144.307C405.026 143.876 404.287 143.43 403.792 143.306C402.763 143.048 401.28 143.311 401.166 143.768C401.034 144.294 401.996 145.468 402.467 145.362C402.778 145.253 402.763 144.989 402.377 144.593C401.872 144.019 401.852 143.94 402.476 143.872C403.347 143.791 405.003 144.616 404.888 145.073C404.836 145.283 404.457 145.338 404 145.224C403.581 145.119 403.309 145.237 403.379 145.441C403.619 146.098 405.255 146.358 405.68 145.793C406.178 145.097 406.207 145.142 405.404 144.307Z" fill="#006D33"/>
<path d="M387.966 209.064C387.251 208.479 385.81 207.185 384.726 206.102C382.685 204.09 382.376 203.85 382.619 204.52C382.823 205.179 388.393 210.145 388.857 210.099C389.107 210.08 388.691 209.611 387.966 209.064Z" fill="#006D33"/>
<path d="M387.735 207.14C387.263 206.739 385.907 205.47 384.657 204.308C383.407 203.145 382.307 202.264 382.154 202.347C381.951 202.457 383.622 204.048 388.166 208.057C388.848 208.672 388.407 207.794 387.735 207.14Z" fill="#006D33"/>
<path d="M402.459 147.524C402.031 146.917 401.816 147.363 402.106 148.389C402.341 149.22 402.373 149.228 402.566 148.595C402.662 148.21 402.619 147.7 402.459 147.524Z" fill="#006D33"/>
<path d="M401.324 148.904C400.839 148.469 400.579 148.752 400.921 149.327C401.11 149.653 401.254 149.724 401.447 149.493C401.565 149.348 401.529 149.06 401.324 148.904Z" fill="#006D33"/>
<path d="M385.338 202.463C384.043 200.965 382.877 199.805 382.772 199.881C382.627 199.947 383.584 201.258 384.92 202.767C386.203 204.313 387.329 205.462 387.474 205.396C387.591 205.273 386.634 203.961 385.338 202.463Z" fill="#006D33"/>
<path d="M398.01 154.943C397.365 154.863 396.718 154.946 396.587 155.159C396.455 155.371 396.878 155.559 397.707 155.685C399.376 155.898 399.669 155.195 398.01 154.943Z" fill="#006D33"/>
<path d="M399.822 146.666C399.388 146.557 398.863 146.643 398.693 146.819C398.513 147.035 398.709 147.258 399.143 147.367C399.577 147.475 400.092 147.43 400.272 147.214C400.441 147.039 400.256 146.774 399.822 146.666Z" fill="#006D33"/>
<path d="M386.085 201.771C385.094 200.384 382.432 197.738 382.35 198.064C382.292 198.297 383.179 199.41 384.31 200.584C386.224 202.597 386.996 203.137 386.085 201.771Z" fill="#006D33"/>
<path d="M384.357 197.934C383.592 196.993 382.873 196.297 382.773 196.412C382.46 196.662 384.979 199.731 385.393 199.648C385.617 199.61 385.133 198.832 384.357 197.934Z" fill="#006D33"/>
<path d="M384.007 195.67C383.199 194.993 382.46 194.491 382.366 194.563C382.245 194.596 382.806 195.211 383.579 195.879C384.387 196.556 385.127 197.057 385.22 196.985C385.341 196.952 384.78 196.338 384.007 195.67Z" fill="#006D33"/>
<path d="M383.749 193.91C383.009 193.238 382.234 192.707 382.002 192.724C381.728 192.73 382.221 193.303 383.089 194.007C385.013 195.575 385.485 195.506 383.749 193.91Z" fill="#006D33"/>
<path d="M396.01 149.445C395.663 148.997 394.27 148.684 393.917 148.994C393.288 149.487 393.818 150.488 394.796 150.624C395.73 150.749 396.462 150.029 396.01 149.445Z" fill="#006D33"/>
<path d="M384.084 192.269C383.454 191.667 382.682 191.14 382.45 191.082C381.948 190.956 383.563 192.546 384.627 193.219C385.622 193.839 385.391 193.448 384.084 192.269Z" fill="#006D33"/>
<path d="M390.339 166.38C389.715 166.044 387.604 164.165 385.643 162.188C383.652 160.159 381.909 158.642 381.77 158.697C381.212 159.098 389.981 167.146 390.878 167.056C391.184 166.997 390.924 166.707 390.339 166.38Z" fill="#006D33"/>
<path d="M384.045 190.421C383.49 189.789 382.928 189.352 382.775 189.462C382.621 189.571 382.979 190.154 383.585 190.75C384.96 192.13 385.318 191.874 384.045 190.421Z" fill="#006D33"/>
<path d="M387.375 167.229C386.09 166.144 384.39 164.531 383.61 163.615C382.227 162.082 381.001 161.605 382.265 163.109C383.094 164.164 389.301 169.449 389.539 169.339C389.638 169.279 388.66 168.314 387.375 167.229Z" fill="#006D33"/>
<path d="M383.211 187.993C382.43 187.095 381.766 186.46 381.738 186.57C381.641 186.956 384.174 189.993 384.401 189.815C384.515 189.726 383.992 188.892 383.211 187.993Z" fill="#006D33"/>
<path d="M395.442 144.751C395.238 144.598 394.908 144.566 394.69 144.664C394.523 144.75 393.856 144.71 393.219 144.55C392.582 144.391 392.194 144.395 392.294 144.573C392.401 144.727 393.014 144.982 393.657 145.118C394.995 145.377 396.116 145.148 395.442 144.751Z" fill="#006D33"/>
<path d="M392.34 155.14C391.674 154.09 390.833 153.74 390.669 154.396C390.604 154.658 390.809 154.896 391.142 154.979C391.434 155.052 391.907 155.635 392.097 156.287C392.421 157.111 392.566 157.24 392.697 156.716C392.837 156.333 392.658 155.637 392.34 155.14Z" fill="#006D33"/>
<path d="M383.436 185.915C382.881 185.282 382.319 184.846 382.165 184.955C382.012 185.065 382.37 185.648 382.976 186.243C384.351 187.623 384.709 187.368 383.436 185.915Z" fill="#006D33"/>
<path d="M399.057 126.041C398.115 124.707 395.997 125.157 395.866 126.771C395.761 127.921 396.848 128.86 397.963 128.59C398.993 128.299 399.629 126.851 399.057 126.041ZM397.425 127.828C396.65 127.83 396.516 126.542 397.246 126.176C397.715 125.94 397.92 126.031 398.119 126.512C398.425 127.294 398.167 127.778 397.425 127.828Z" fill="#006D33"/>
<path d="M394.949 143.176C394.651 142.582 393.658 142.437 393.536 142.926C393.462 143.219 393.804 143.461 394.28 143.528C395.26 143.721 395.218 143.711 394.949 143.176Z" fill="#006D33"/>
<path d="M387.215 169.641C386.386 169.044 384.774 167.665 383.636 166.521C381.589 164.565 380.198 163.905 381.844 165.683C383.276 167.25 387.73 170.785 388.227 170.753C388.539 170.753 388.045 170.239 387.215 169.641Z" fill="#006D33"/>
<path d="M385.878 170.043C384.613 168.839 383.547 167.641 383.486 167.404C383.436 167.125 383.062 166.854 382.721 166.769C382.344 166.674 382.237 166.781 382.401 167.088C382.838 167.907 387.664 172.531 387.895 172.412C388.002 172.305 387.105 171.238 385.878 170.043Z" fill="#006D33"/>
<path d="M383.346 184.179C382.63 183.518 381.876 183.007 381.761 183.099C381.601 183.18 382.142 183.798 383.033 184.503C384.979 185.995 385.21 185.812 383.346 184.179Z" fill="#006D33"/>
<path d="M384.866 171.477C383.736 170.212 382.729 169.259 382.583 169.362C382.436 169.466 383.248 170.557 384.427 171.787C387.151 174.712 387.542 174.436 384.866 171.477Z" fill="#006D33"/>
<path d="M383.897 176.797C382.99 175.903 382.123 175.21 381.961 175.312C381.692 175.483 383.536 177.516 384.764 178.395C385.949 179.263 385.553 178.497 383.897 176.797Z" fill="#006D33"/>
<path d="M383.831 179.038C383.054 178.362 382.307 177.894 382.163 177.978C382.028 178.025 382.572 178.643 383.349 179.319C384.126 179.995 384.873 180.463 385.017 180.379C385.152 180.332 384.608 179.714 383.831 179.038Z" fill="#006D33"/>
<path d="M383.85 180.792C383.295 180.16 382.733 179.723 382.579 179.833C382.426 179.942 382.784 180.525 383.39 181.121C384.765 182.501 385.123 182.245 383.85 180.792Z" fill="#006D33"/>
<path d="M383.129 182.25C382.111 181.272 381.996 181.191 382.304 181.941C382.6 182.739 384.133 184.002 384.243 183.564C384.267 183.467 383.74 182.869 383.129 182.25Z" fill="#006D33"/>
<path d="M383.724 173.278C382.683 172.235 381.895 171.602 381.945 171.876C382.092 172.391 385.198 175.43 385.434 175.271C385.529 175.208 384.728 174.312 383.724 173.278Z" fill="#006D33"/>
<path d="M423.565 21.4692C423.297 19.7033 421.236 19.2681 420.031 20.7462C419.477 21.4571 419.391 21.7997 419.721 22.6507C420.221 23.9893 422.117 24.5854 423.012 23.6769C423.702 22.9194 423.76 22.691 423.565 21.4692ZM421.234 23.1104C420.174 23.007 419.951 21.8993 420.758 21.0092C421.264 20.4887 421.509 20.5096 422.052 21.0095C422.979 21.8079 422.411 23.2433 421.234 23.1104Z" fill="#006D33"/>
<path d="M383.135 174.603C382.283 173.87 381.566 173.366 381.543 173.458C381.482 173.702 384.038 175.9 384.385 175.889C384.581 175.873 384.031 175.314 383.135 174.603Z" fill="#006D33"/>
<path d="M389.059 149.389C388.911 149.148 388.698 149.043 388.578 149.166C388.218 149.535 388.462 150.106 388.915 149.964C389.271 149.85 389.295 149.754 389.059 149.389Z" fill="#006D33"/>
<path d="M405.359 79.2217C404.898 78.0266 403.816 77.7157 402.592 78.4489C400.803 79.5206 401.179 81.6941 403.212 82.2031C405.057 82.6649 406.14 81.2166 405.359 79.2217ZM403.438 81.4599C402.459 81.2148 402.046 79.6717 402.827 79.1076C403.665 78.4776 404.719 79.5412 404.427 80.7077C404.257 81.385 404.003 81.6013 403.438 81.4599Z" fill="#006D33"/>
<path d="M388.44 148.288C388.176 148.015 387.665 147.97 387.339 148.136C386.577 148.523 386.876 148.845 387.991 148.753C388.71 148.727 388.794 148.583 388.44 148.288Z" fill="#006D33"/>
</g>
</g>
<defs>
<clipPath id="clip0_3921_9003">
<rect width="430" height="350" fill="white"/>
</clipPath>
</defs>
</svg>
