<svg width="59" height="57" viewBox="0 0 59 57" fill="none" xmlns="http://www.w3.org/2000/svg">
<path fill-rule="evenodd" clip-rule="evenodd" d="M21.9356 43.924C19.4537 44.6992 16.5902 44.684 14.2499 43.525C8.84549 40.8422 6.50516 33.9262 8.68029 26.5998C9.65576 23.3128 11.3746 20.1208 15.009 16.9022C18.6434 13.6798 23.686 11.7798 26.0224 11.7798C26.219 11.7768 26.4143 11.8113 26.5971 11.8813C26.7799 11.9513 26.9465 12.0555 27.0876 12.1879C27.2286 12.3203 27.3412 12.4782 27.419 12.6527C27.4967 12.8272 27.5381 13.0148 27.5406 13.2048C27.5406 13.9914 26.8484 14.6298 26.0224 14.6298C23.3516 14.6298 20.9641 16.0358 18.136 18.103C15.9727 19.6876 14.2814 21.713 13.3492 23.4762C11.5595 26.8506 11.5005 31.6082 14.3915 32.8736C15.0627 32.1376 15.8898 31.5497 16.8169 31.1498C17.7439 30.7498 18.7492 30.5472 19.7644 30.5556C24.4844 30.5556 27.2653 34.2226 27.1434 37.5438C27.0293 40.7168 24.9407 42.9778 21.9356 43.924ZM45.5356 43.924C43.0537 44.6992 40.1902 44.684 37.8499 43.525C32.4455 40.8422 30.1052 33.9262 32.2803 26.5998C33.2558 23.3128 34.9746 20.1208 38.609 16.9022C42.2434 13.6798 47.286 11.7798 49.6224 11.7798C49.819 11.7768 50.0143 11.8113 50.1971 11.8813C50.3799 11.9513 50.5465 12.0555 50.6876 12.1879C50.8286 12.3203 50.9412 12.4782 51.019 12.6527C51.0967 12.8272 51.1381 13.0148 51.1406 13.2048C51.1406 13.9914 50.4484 14.6298 49.6224 14.6298C46.9516 14.6298 44.5641 16.0358 41.736 18.103C39.5727 19.6876 37.8814 21.713 36.9492 23.4762C35.1595 26.8506 35.1005 31.6082 37.9915 32.8736C39.38 31.4068 41.1932 30.5556 43.3644 30.5556C48.0844 30.5556 50.8653 34.2226 50.7434 37.5438C50.6293 40.7168 48.5407 42.9778 45.5356 43.924Z" fill="#848484"/>
</svg>
