<svg width="45" height="34" viewBox="0 0 45 34" fill="none" xmlns="http://www.w3.org/2000/svg">
<path fill-rule="evenodd" clip-rule="evenodd" d="M14.9356 32.9239C12.4537 33.6991 9.59023 33.6839 7.24989 32.5249C1.84549 29.8421 -0.49484 22.9261 1.68029 15.5997C2.65576 12.3127 4.37462 9.12074 8.00902 5.90214C11.6434 2.67974 16.686 0.779746 19.0224 0.779745C19.219 0.776728 19.4143 0.81122 19.5971 0.881251C19.7799 0.951281 19.9465 1.05547 20.0876 1.18785C20.2286 1.32023 20.3412 1.47819 20.419 1.65268C20.4967 1.82718 20.5381 2.01479 20.5406 2.20474C20.5406 2.99134 19.8484 3.62974 19.0224 3.62974C16.3516 3.62974 13.9641 5.03574 11.136 7.10294C8.97269 8.68754 7.28136 10.7129 6.34916 12.4761C4.55949 15.8505 4.50049 20.6081 7.39149 21.8735C8.06267 21.1376 8.88984 20.5497 9.81689 20.1497C10.7439 19.7498 11.7492 19.5471 12.7644 19.5555C17.4844 19.5555 20.2653 23.2225 20.1434 26.5437C20.0293 29.7167 17.9407 31.9777 14.9356 32.9239ZM38.5356 32.9239C36.0537 33.6991 33.1902 33.6839 30.8499 32.5249C25.4455 29.8421 23.1052 22.9261 25.2803 15.5997C26.2558 12.3127 27.9746 9.12074 31.609 5.90214C35.2434 2.67974 40.286 0.779744 42.6224 0.779743C42.819 0.776726 43.0143 0.811218 43.1971 0.881249C43.3799 0.951279 43.5465 1.05547 43.6876 1.18785C43.8286 1.32022 43.9412 1.47818 44.019 1.65268C44.0967 1.82718 44.1381 2.01478 44.1406 2.20474C44.1406 2.99134 43.4484 3.62974 42.6224 3.62974C39.9516 3.62974 37.5641 5.03574 34.736 7.10294C32.5727 8.68754 30.8814 10.7129 29.9492 12.4761C28.1595 15.8505 28.1005 20.6081 30.9915 21.8735C32.38 20.4067 34.1932 19.5555 36.3644 19.5555C41.0844 19.5555 43.8653 23.2225 43.7434 26.5437C43.6293 29.7167 41.5407 31.9777 38.5356 32.9239Z" fill="white"/>
</svg>
